<svg width="308" height="376" viewBox="0 0 308 376" fill="none" xmlns="http://www.w3.org/2000/svg">
<g clip-path="url(#clip0_44:2312)">
<g filter="url(#filter0_d_44:2312)">
<path d="M-137 64.3046L309.685 216.775C309.685 216.775 376.342 50.9102 287.153 -143.87L-137 64.3046Z" fill="#A7423C"/>
</g>
<path d="M-137 64.3047L227.627 189.043C233.731 188.667 250.935 181.043 256.311 169.885C262.973 155.987 260.987 139.739 250.298 129.188C237.238 116.305 225.71 103.129 252.292 92.9674C269.426 86.4234 279.226 70.3496 261.125 55.9785C243.023 41.6074 235.474 31.5825 245.036 13.0324C254.598 -5.51777 259.988 -11.0996 259.415 -25.6446C258.842 -40.1897 247.441 -44.1218 233.616 -52.0185C214.357 -63.0494 202.945 -76.9564 221.031 -93.1536C231.479 -102.539 232.298 -110.971 229.491 -115.576L-137 64.3047Z" fill="#F1CE8C"/>
<path d="M241.802 -121.599C304.702 26.5995 272.173 161.422 260.521 200.055L309.685 216.775C309.685 216.775 376.342 50.9103 287.153 -143.87L241.802 -121.599Z" fill="#DDB56C"/>
<path d="M250.691 -125.973L241.802 -121.599C304.702 26.5994 272.173 161.422 260.52 200.055L272.016 203.978C280.603 171.164 316.948 12.5808 250.691 -125.973Z" fill="#C29D50"/>
<path d="M152.8 28.3718C126.318 41.2594 115.406 73.3977 128.428 100.155C141.449 126.912 173.473 138.156 199.955 125.268C226.437 112.38 237.349 80.2422 224.327 53.485C211.306 26.7279 179.282 15.4843 152.8 28.3718Z" fill="#95322C"/>
<path d="M150.114 97.6383C151.397 97.0109 152.837 96.7777 154.252 96.9681C155.667 97.1586 156.994 97.7641 158.065 98.7082C159.137 99.6523 159.904 100.893 160.271 102.273C160.638 103.653 160.588 105.111 160.127 106.462C159.665 107.814 158.814 108.998 157.68 109.866C156.546 110.734 155.181 111.247 153.756 111.339C152.331 111.431 150.91 111.099 149.674 110.385C148.437 109.671 147.44 108.606 146.809 107.325C146.388 106.473 146.14 105.545 146.078 104.596C146.017 103.647 146.143 102.696 146.45 101.796C146.757 100.896 147.239 100.065 147.868 99.3518C148.496 98.6384 149.26 98.0561 150.114 97.6383Z" fill="#A95254"/>
<path d="M184.07 59.504C185.75 58.6884 187.634 58.3893 189.484 58.6446C191.334 58.8999 193.067 59.698 194.463 60.9381C195.859 62.1782 196.857 63.8045 197.329 65.6114C197.801 67.4183 197.726 69.3246 197.115 71.0892C196.503 72.8538 195.382 74.3974 193.894 75.5249C192.405 76.6524 190.615 77.313 188.751 77.4233C186.887 77.5335 185.031 77.0885 183.42 76.1444C181.809 75.2003 180.514 73.7995 179.698 72.1193C179.154 71.0045 178.836 69.7931 178.761 68.5548C178.687 67.3166 178.857 66.0757 179.263 64.9036C179.67 63.7314 180.303 62.651 181.128 61.7244C181.953 60.7978 182.953 60.0432 184.07 59.504Z" fill="#A95254"/>
<path d="M181.969 92.0269C184.242 90.9179 186.792 90.5074 189.298 90.8474C191.804 91.1875 194.152 92.2628 196.047 93.9373C197.942 95.6119 199.297 97.8107 199.943 100.256C200.588 102.701 200.494 105.282 199.673 107.674C198.851 110.065 197.339 112.159 195.328 113.692C193.316 115.224 190.896 116.126 188.372 116.283C185.848 116.44 183.334 115.845 181.149 114.574C178.963 113.302 177.203 111.411 176.091 109.14C175.353 107.631 174.919 105.99 174.815 104.313C174.71 102.636 174.938 100.955 175.484 99.3652C176.029 97.7759 176.883 96.3098 177.996 95.0506C179.109 93.7915 180.459 92.764 181.969 92.0269Z" fill="#A95254"/>
<path d="M157.086 60.8585C155.969 61.1458 155.297 62.2837 155.584 63.4001C155.872 64.5165 157.009 65.1886 158.126 64.9014C159.242 64.6142 159.915 63.4764 159.627 62.3599C159.34 61.2435 158.202 60.5713 157.086 60.8585Z" fill="#A95254"/>
<path d="M208.364 64.6737C208.742 64.4779 209.17 64.3998 209.593 64.4496C210.016 64.4993 210.414 64.6746 210.736 64.9528C211.059 65.231 211.29 65.5994 211.401 66.0105C211.512 66.4215 211.498 66.8565 211.359 67.2592C211.221 67.6618 210.965 68.0138 210.625 68.2697C210.284 68.5257 209.875 68.6738 209.45 68.695C209.025 68.7162 208.603 68.6096 208.239 68.3888C207.875 68.168 207.585 67.8433 207.407 67.4564C207.178 66.9585 207.15 66.3917 207.328 65.8735C207.506 65.3553 207.877 64.9257 208.364 64.6737Z" fill="#A95254"/>
<path d="M162.491 79.8974C163.248 79.51 164.104 79.3581 164.949 79.4611C165.793 79.5641 166.587 79.9173 167.229 80.4754C167.871 81.0335 168.331 81.7709 168.551 82.5928C168.77 83.4146 168.739 84.2833 168.46 85.0871C168.182 85.8909 167.67 86.5931 166.989 87.1033C166.308 87.6135 165.491 87.9084 164.641 87.95C163.791 87.9916 162.949 87.7781 162.221 87.3369C161.494 86.8957 160.916 86.2471 160.56 85.4743C160.1 84.4752 160.044 83.337 160.404 82.2977C160.764 81.2583 161.512 80.3984 162.491 79.8974Z" fill="#A95254"/>
<path d="M143.263 42.8933C144.021 42.5059 144.876 42.3539 145.721 42.4569C146.565 42.5599 147.36 42.9132 148.001 43.4713C148.643 44.0294 149.104 44.7668 149.323 45.5886C149.543 46.4105 149.511 47.2792 149.233 48.083C148.954 48.8868 148.442 49.589 147.761 50.0991C147.081 50.6093 146.263 50.9042 145.413 50.9459C144.564 50.9875 143.721 50.7739 142.994 50.3328C142.267 49.8916 141.688 49.2429 141.332 48.4701C141.088 47.9781 140.944 47.4423 140.908 46.8939C140.873 46.3456 140.948 45.7957 141.128 45.2765C141.307 44.7573 141.589 44.2791 141.956 43.8699C142.322 43.4607 142.767 43.1287 143.263 42.8933Z" fill="#A95254"/>
<path d="M140.858 68.155C141.92 67.6381 143.111 67.4476 144.28 67.6076C145.45 67.7677 146.546 68.2711 147.43 69.0541C148.313 69.8372 148.945 70.8647 149.244 72.0067C149.544 73.1488 149.498 74.3539 149.112 75.4698C148.726 76.5856 148.018 77.562 147.078 78.2754C146.137 78.9888 145.006 79.4071 143.827 79.4775C142.649 79.5479 141.476 79.2671 140.457 78.6707C139.438 78.0743 138.619 77.1891 138.103 76.1271C137.418 74.7035 137.323 73.0669 137.839 71.5737C138.355 70.0806 139.441 68.8518 140.858 68.155Z" fill="#A95254"/>
<path d="M197.278 44.4177C198.037 44.0591 198.884 43.9322 199.714 44.053C200.544 44.1738 201.32 44.5368 201.945 45.0966C202.57 45.6564 203.016 46.388 203.226 47.2C203.437 48.0119 203.404 48.868 203.13 49.661C202.857 50.4541 202.355 51.1488 201.689 51.6581C201.022 52.1675 200.22 52.4689 199.383 52.5246C198.546 52.5803 197.712 52.3877 196.984 51.9711C196.255 51.5545 195.666 50.9323 195.29 50.1825C195.036 49.6747 194.885 49.121 194.847 48.5542C194.81 47.9873 194.886 47.4186 195.071 46.8815C195.256 46.3444 195.547 45.8498 195.926 45.4267C196.305 45.0036 196.765 44.6605 197.278 44.4177Z" fill="#A95254"/>
<path d="M207.324 80.2968C208.385 79.784 209.575 79.597 210.742 79.7594C211.91 79.9219 213.003 80.4264 213.884 81.2095C214.765 81.9926 215.395 83.0191 215.693 84.1595C215.992 85.2999 215.946 86.5031 215.561 87.6174C215.176 88.7317 214.47 89.7071 213.532 90.4207C212.594 91.1342 211.465 91.5538 210.289 91.6266C209.112 91.6995 207.94 91.4222 206.921 90.8298C205.902 90.2375 205.081 89.3566 204.562 88.2982C203.868 86.8708 203.769 85.2263 204.287 83.726C204.805 82.2257 205.897 80.9923 207.324 80.2968Z" fill="#A95254"/>
<path d="M168.598 31.8073C170.202 31.0292 172.001 30.744 173.767 30.9877C175.532 31.2315 177.186 31.9932 178.519 33.1767C179.853 34.3602 180.805 35.9123 181.256 37.6368C181.707 39.3614 181.637 41.181 181.054 42.8657C180.472 44.5503 179.403 46.0245 177.982 47.1018C176.562 48.179 174.854 48.8111 173.075 48.918C171.296 49.025 169.524 48.6021 167.985 47.7027C166.446 46.8033 165.208 45.4679 164.428 43.8651C163.386 41.7125 163.24 39.2347 164.022 36.9745C164.804 34.7144 166.449 32.8563 168.598 31.8073Z" fill="#A95254"/>
<path d="M18.5391 81.2351C15.4919 74.8787 11.2213 69.1855 5.97171 64.4811C0.722134 59.7768 -5.4034 56.1535 -12.0546 53.8188C-18.7057 51.484 -25.752 50.4835 -32.7902 50.8744C-39.8284 51.2653 -46.7205 53.0401 -53.0721 56.0972C-64.9423 61.8747 -74.2244 71.8802 -79.0967 84.1497L22.1886 118.737C25.5136 106.204 24.2182 92.8924 18.5391 81.2351Z" fill="#95322C"/>
<path d="M2.52027 92.426C2.89943 92.2344 3.32715 92.1605 3.74862 92.2137C4.17009 92.267 4.56604 92.445 4.88564 92.7248C5.20524 93.0047 5.43393 93.3737 5.54232 93.7844C5.65072 94.1952 5.63388 94.629 5.49398 95.0301C5.35409 95.4313 5.09752 95.7814 4.75719 96.0357C4.41687 96.2899 4.00832 96.4367 3.58399 96.4571C3.15965 96.4775 2.73886 96.3707 2.37569 96.1503C2.01252 95.9299 1.7235 95.606 1.54573 95.2202C1.31477 94.7189 1.28729 94.1475 1.46904 93.6264C1.65079 93.1053 2.02766 92.6749 2.52027 92.426Z" fill="#A95254"/>
<path d="M9.44573 110.834C8.96801 109.828 8.21683 108.978 7.27817 108.38C6.33952 107.782 5.25137 107.46 4.13839 107.452C3.02541 107.444 1.93259 107.749 0.985112 108.333C0.0376312 108.917 -0.726183 109.756 -1.21887 110.754L9.8939 114.592C10.1593 113.324 10.0019 112.004 9.44573 110.834Z" fill="#A95254"/>
<path d="M280.49 205.023C280.49 205.023 331.535 35.6356 259.178 -128.398C259.178 -128.398 344.149 8.19125 280.49 205.023Z" fill="#F2D19A"/>
<path d="M201.745 -6.08957C203.475 -2.52848 206.222 0.439691 209.638 2.43948C213.055 4.43928 216.988 5.38087 220.94 5.14512C224.891 4.90937 228.685 3.50686 231.839 1.11504C234.994 -1.27677 237.368 -4.55043 238.662 -8.29189C239.956 -12.0334 240.111 -16.0745 239.108 -19.9041C238.105 -23.7338 235.988 -27.1799 233.026 -29.8065C230.065 -32.4332 226.39 -34.1224 222.468 -34.6604C218.546 -35.1985 214.552 -34.5612 210.992 -32.8292C208.628 -31.6821 206.513 -30.0802 204.769 -28.115C203.024 -26.1498 201.684 -23.86 200.825 -21.3765C199.966 -18.8929 199.606 -16.2645 199.763 -13.6414C199.921 -11.0184 200.595 -8.45214 201.745 -6.08957ZM231.956 -20.7874C233.138 -18.366 233.575 -15.6486 233.212 -12.9789C232.849 -10.3091 231.702 -7.80701 229.917 -5.78914C228.132 -3.77127 225.788 -2.32831 223.182 -1.64279C220.577 -0.957276 217.826 -1.06002 215.279 -1.93803C212.732 -2.81604 210.502 -4.42985 208.872 -6.5753C207.242 -8.72074 206.285 -11.3014 206.123 -13.9908C205.96 -16.6802 206.598 -19.3575 207.957 -21.6839C209.317 -24.0103 211.335 -25.8813 213.758 -27.0603C217.003 -28.6395 220.743 -28.866 224.155 -27.6898C227.568 -26.5136 230.373 -24.031 231.956 -20.7874Z" fill="#3A3930"/>
<path d="M101.436 128.65C104.388 127.199 107.766 126.868 110.944 127.717C114.121 128.566 116.884 130.539 118.718 133.269C120.553 135.999 121.336 139.301 120.922 142.564C120.509 145.828 118.926 148.83 116.468 151.016L122.995 153.327C124.997 150.825 126.369 147.878 126.994 144.735C127.619 141.592 127.48 138.344 126.587 135.267C125.694 132.189 124.075 129.37 121.865 127.05C119.655 124.729 116.919 122.973 113.889 121.931C110.858 120.888 107.622 120.589 104.452 121.06C101.282 121.53 98.2713 122.756 95.674 124.633C93.0768 126.511 90.969 128.985 89.5282 131.848C88.0875 134.71 87.356 137.877 87.3955 141.082L93.9223 143.393C93.3784 140.451 93.8199 137.412 95.1783 134.747C96.5367 132.081 98.7361 129.938 101.436 128.65Z" fill="#3A3930"/>
<path d="M60.0952 16.0275C43.9838 0.908454 22.3689 -2.23247 11.817 9.01204C1.26512 20.2565 5.77202 41.6284 21.8834 56.7474C37.9948 71.8664 59.6096 75.0074 70.1615 63.7629C80.7135 52.5184 76.2066 31.1465 60.0952 16.0275Z" fill="#F6E6CA"/>
<path d="M60.099 16.0431C52.4225 8.49261 42.4566 3.70418 31.7649 2.4291C24.836 9.80005 32.3571 26.0089 42.1469 35.1876C51.9366 44.3662 68.8602 50.5417 75.5049 43.4782C73.5466 32.8805 68.1284 23.2316 60.099 16.0431Z" fill="#BBB0A1"/>
<path d="M30.807 33.1089L45.3854 46.7893L82.445 7.29715L67.8667 -6.38328L30.807 33.1089Z" fill="#F6E6CA"/>
<path d="M64.8306 105.622C60.9258 106.316 56.929 106.31 54.2422 104.433C49.4166 101.063 50.8856 96.6649 54.662 93.9053C54.1061 93.6277 53.5861 93.3272 53.0546 93.0087C47.7272 89.6047 45.0779 84.2166 47.1376 80.9838C49.1973 77.751 55.244 77.8411 60.5176 81.2794C61.0995 81.6488 61.6597 82.0513 62.1954 82.485C62.9351 77.6166 66.3498 74.0512 71.6607 77.1119C74.4764 78.755 76.175 82.3733 77.2068 86.2143C79.073 81.7654 82.9704 79.1562 88.1881 82.1499C96.112 86.6543 95.9496 105.004 95.8373 109.27C95.8897 109.484 95.9189 109.702 95.9242 109.922L105.22 115.827L103.613 118.342L94.4282 112.493C94.1484 112.62 93.8572 112.721 93.5587 112.794C89.7345 114.725 73.2005 122.529 65.7944 117.29C60.7922 113.881 61.4912 109.266 64.8306 105.622Z" fill="#76C03F"/>
<path opacity="0.1" d="M104.43 116.887L47.3664 80.5096C49.6993 77.785 55.2883 77.9898 60.4653 81.2369C61.0472 81.6063 61.6074 82.0089 62.1431 82.4425C62.8828 77.5741 66.2975 74.0088 71.6084 77.0695C74.4242 78.7125 76.1228 82.3309 77.1545 86.1718C79.0207 81.7229 82.9181 79.1137 88.1358 82.1074C96.0597 86.6119 95.8973 104.961 95.785 109.228C95.8375 109.441 95.8666 109.66 95.872 109.88L105.168 115.785L104.43 116.887Z" fill="black"/>
<path d="M107.991 -24.3736L111.992 -9.76332C111.992 -9.76332 110.831 -0.00209894 101.651 -0.648081C99.0881 -0.805508 96.6515 -1.81359 94.7268 -3.51257C92.8022 -5.21156 91.4995 -7.50428 91.0254 -10.0274L97.291 -26.4525C97.291 -26.4525 104.499 -33.9004 107.991 -24.3736Z" fill="#E7B72B"/>
<path opacity="0.2" d="M112.049 -9.6735L108.048 -24.2838C106.727 -27.8647 104.979 -29.1013 103.135 -29.1396L101.088 -0.618446L101.778 -0.527266C110.888 0.0876998 112.049 -9.6735 112.049 -9.6735Z" fill="#390000"/>
<path d="M203.003 142.537L207.004 157.148C207.004 157.148 205.826 166.92 196.645 166.274C194.078 166.13 191.633 165.133 189.698 163.439C187.763 161.746 186.449 159.455 185.966 156.93L192.214 140.516C192.214 140.516 199.42 132.867 203.003 142.537Z" fill="#E7B72B"/>
<path opacity="0.2" d="M206.97 157.094L202.969 142.484C201.648 138.903 199.81 137.723 198.056 137.628L196.009 166.149L196.699 166.24C205.791 166.866 206.97 157.094 206.97 157.094Z" fill="#390000"/>
<path d="M115.516 32.8981L115.377 45.8496C115.377 45.8496 112.141 53.6225 104.728 50.9912C102.661 50.2516 100.898 48.845 99.7186 46.9931C98.5388 45.1412 98.0089 42.9493 98.2124 40.763L107.195 28.7224C107.195 28.7224 114.847 24.1513 115.516 32.8981Z" fill="#E7B72B"/>
<path opacity="0.2" d="M115.377 45.8498L115.516 32.8982C115.253 29.629 114.035 28.232 112.584 27.7407L104.207 50.7676C104.287 50.8934 104.54 50.9342 104.728 50.9913C112.141 53.6227 115.377 45.8498 115.377 45.8498Z" fill="#390000"/>
<path d="M239.288 132.057L231.615 142.505C231.615 142.505 224.446 146.921 219.962 140.477C218.71 138.673 218.093 136.503 218.211 134.31C218.328 132.116 219.172 130.025 220.61 128.364L234.954 123.826C234.954 123.826 243.86 124.596 239.288 132.057Z" fill="#E7B72B"/>
<path opacity="0.2" d="M231.638 142.541L239.311 132.093C240.995 129.302 240.821 127.442 239.947 126.229L219.694 140.017L220.003 140.502C224.469 146.957 231.638 142.541 231.638 142.541Z" fill="#390000"/>
<path d="M-8.50303 26.2127L-8.61256 39.1708C-8.61256 39.1708 -11.8666 46.9551 -19.2615 44.3123C-21.3311 43.5759 -23.0958 42.17 -24.2761 40.3173C-25.4564 38.4647 -25.9848 36.2711 -25.7775 34.0842L-16.7945 22.0436C-16.7945 22.0436 -9.21361 17.4414 -8.50303 26.2127Z" fill="#E7B72B"/>
<path opacity="0.2" d="M-8.63057 39.1822L-8.52105 26.2241C-8.75482 22.9614 -9.98475 21.5464 -11.4235 21.0731L-19.819 44.1115L-19.268 44.3417C-11.896 46.9486 -8.63057 39.1822 -8.63057 39.1822Z" fill="#390000"/>
<path d="M257.836 71.9984L257.697 84.95C257.697 84.95 254.461 92.7228 247.066 90.08C244.994 89.3468 243.227 87.9416 242.046 86.0881C240.866 84.2346 240.339 82.0394 240.55 79.8519L249.533 67.8113C249.533 67.8113 257.166 63.2516 257.836 71.9984Z" fill="#E7B72B"/>
<path opacity="0.2" d="M257.697 84.95L257.824 71.9805C257.59 68.7178 256.36 67.3028 254.922 66.8294L246.526 89.8678L247.077 90.098C254.472 92.7408 257.697 84.95 257.697 84.95Z" fill="#390000"/>
<path d="M230.335 162.274L223.789 170.285C223.789 170.285 217.886 173.515 214.598 168.155C213.672 166.667 213.269 164.911 213.454 163.168C213.639 161.425 214.401 159.793 215.62 158.533L227.247 155.522C227.247 155.522 234.305 156.485 230.335 162.274Z" fill="#E7B72B"/>
<path opacity="0.2" d="M223.789 170.285L230.335 162.274C231.817 160.117 231.759 158.637 231.106 157.613L214.375 167.766L214.616 168.143C217.875 173.497 223.789 170.285 223.789 170.285Z" fill="#390000"/>
<path d="M157.171 -6.95652L150.624 1.05504C150.624 1.05504 144.71 4.26685 141.415 -1.06378C140.498 -2.5452 140.095 -4.28827 140.27 -6.02212C140.445 -7.75597 141.188 -9.38342 142.383 -10.6516L154.011 -13.6619C154.011 -13.6619 161.122 -12.7338 157.171 -6.95652Z" fill="#E7B72B"/>
<path opacity="0.2" d="M150.624 1.05518L157.171 -6.95637C158.652 -9.11324 158.583 -10.6105 157.941 -11.6172L141.199 -1.48199L141.451 -1.08653C144.71 4.267 150.624 1.05518 150.624 1.05518Z" fill="#390000"/>
<path d="M245.366 22.4757L238.809 30.4693C238.809 30.4693 232.906 33.6991 229.611 28.3685C228.687 26.876 228.288 25.1181 228.477 23.3731C228.665 21.6282 229.43 19.996 230.651 18.7349L242.249 15.7179C242.249 15.7179 249.306 16.6805 245.366 22.4757Z" fill="#E7B72B"/>
<path opacity="0.2" d="M238.808 30.4692L245.366 22.4757C246.836 20.3008 246.778 18.8215 246.125 17.7969L229.395 27.95L229.647 28.3455C232.906 33.699 238.808 30.4692 238.808 30.4692Z" fill="#390000"/>
<path d="M178.268 -1.92398C179.021 -2.72804 179.994 -3.29088 181.066 -3.54123C182.138 -3.79158 183.261 -3.71819 184.291 -3.33034C185.321 -2.94249 186.213 -2.25764 186.854 -1.36248C187.495 -0.467323 187.856 0.597893 187.891 1.69826C187.926 2.79864 187.634 3.88469 187.052 4.81892C186.469 5.75315 185.623 6.49357 184.619 6.94638C183.616 7.39919 182.5 7.54403 181.415 7.36261C180.329 7.18118 179.321 6.68165 178.519 5.92722C177.447 4.91819 176.818 3.52512 176.771 2.05342C176.724 0.581708 177.263 -0.848572 178.268 -1.92398Z" fill="#3F363F"/>
<path d="M103.25 78.0639C104.002 77.2598 104.975 76.697 106.047 76.4466C107.12 76.1963 108.242 76.2697 109.272 76.6575C110.303 77.0454 111.195 77.7302 111.836 78.6254C112.476 79.5206 112.837 80.5858 112.872 81.6861C112.908 82.7865 112.615 83.8726 112.033 84.8068C111.45 85.741 110.604 86.4814 109.6 86.9342C108.597 87.3871 107.482 87.532 106.396 87.3505C105.31 87.1691 104.302 86.6696 103.5 85.9151C102.964 85.4185 102.532 84.8204 102.229 84.1556C101.926 83.4907 101.758 82.7723 101.735 82.0419C101.711 81.3116 101.833 80.5839 102.093 79.901C102.353 79.2181 102.746 78.5937 103.25 78.0639Z" fill="#3F363F"/>
<path d="M29.6736 76.0624C30.4256 75.2584 31.3993 74.6956 32.4714 74.4452C33.5435 74.1949 34.6657 74.2682 35.6961 74.6561C36.7265 75.0439 37.6185 75.7288 38.2594 76.624C38.9003 77.5191 39.2612 78.5843 39.2964 79.6847C39.3315 80.7851 39.0394 81.8711 38.4569 82.8053C37.8745 83.7396 37.0279 84.48 36.0244 84.9328C35.0209 85.3856 33.9056 85.5305 32.8197 85.3491C31.7338 85.1676 30.7262 84.6681 29.9244 83.9136C29.3884 83.417 28.9562 82.819 28.6531 82.1541C28.35 81.4892 28.1819 80.7708 28.1586 80.0404C28.1353 79.3101 28.2572 78.5824 28.5172 77.8996C28.7773 77.2167 29.1704 76.5922 29.6736 76.0624Z" fill="#3F363F"/>
<path d="M149.984 145.155C150.736 144.351 151.71 143.788 152.782 143.538C153.854 143.287 154.976 143.361 156.007 143.749C157.037 144.137 157.929 144.821 158.57 145.717C159.211 146.612 159.572 147.677 159.607 148.777C159.642 149.878 159.35 150.964 158.768 151.898C158.185 152.832 157.338 153.573 156.335 154.025C155.331 154.478 154.216 154.623 153.13 154.442C152.044 154.26 151.037 153.761 150.235 153.006C149.701 152.508 149.272 151.91 148.97 151.245C148.669 150.58 148.501 149.862 148.478 149.133C148.455 148.403 148.576 147.676 148.834 146.994C149.093 146.311 149.484 145.686 149.984 145.155Z" fill="#3F363F"/>
<path d="M244.34 59.6208C244.717 59.2159 245.205 58.9319 245.743 58.8048C246.281 58.6778 246.845 58.7134 247.363 58.9071C247.881 59.1007 248.33 59.4438 248.652 59.8928C248.975 60.3418 249.157 60.8766 249.175 61.4292C249.194 61.9818 249.048 62.5275 248.756 62.997C248.464 63.4665 248.039 63.8387 247.535 64.0664C247.031 64.2942 246.471 64.3672 245.925 64.2762C245.38 64.1853 244.874 63.9344 244.471 63.5554C243.934 63.0499 243.619 62.3524 243.594 61.6152C243.57 60.878 243.838 60.161 244.34 59.6208Z" fill="#3F363F"/>
<path d="M138.38 126.266C138.629 125.997 138.928 125.781 139.261 125.629C139.594 125.477 139.954 125.392 140.32 125.38C140.686 125.368 141.05 125.428 141.393 125.558C141.735 125.687 142.048 125.883 142.315 126.135C142.58 126.385 142.794 126.686 142.944 127.019C143.094 127.352 143.176 127.711 143.187 128.076C143.209 128.813 142.937 129.529 142.431 130.066C141.925 130.603 141.227 130.917 140.489 130.938C139.752 130.96 139.036 130.688 138.5 130.182C137.964 129.679 137.651 128.983 137.629 128.249C137.606 127.514 137.876 126.801 138.38 126.266Z" fill="#3F363F"/>
<path d="M205.047 10.558C205.556 10.0259 206.252 9.71417 206.988 9.68966C207.724 9.66515 208.439 9.92979 208.982 10.4269C209.457 10.9455 209.719 11.6242 209.715 12.3273C209.711 13.0305 209.442 13.7063 208.962 14.2198C208.481 14.7333 207.825 15.0466 207.124 15.0972C206.422 15.1478 205.728 14.9318 205.179 14.4926C204.646 13.9842 204.335 13.2876 204.31 12.5521C204.286 11.8165 204.55 11.1007 205.047 10.558Z" fill="#3F363F"/>
<path d="M46.1471 113.583C46.3959 113.314 46.6955 113.098 47.0284 112.946C47.3614 112.794 47.7212 112.709 48.0871 112.697C48.4529 112.685 48.8175 112.745 49.1599 112.875C49.5022 113.004 49.8156 113.2 50.0817 113.452C50.3492 113.699 50.5648 113.998 50.7159 114.33C50.867 114.662 50.9505 115.02 50.9616 115.385C50.9728 115.749 50.9113 116.112 50.7808 116.453C50.6502 116.793 50.4533 117.105 50.2013 117.368C49.9528 117.634 49.6542 117.849 49.3227 118C48.9912 118.151 48.6332 118.235 48.2693 118.247C47.9053 118.26 47.5424 118.2 47.2013 118.073C46.8603 117.945 46.5477 117.751 46.2815 117.503C46.0153 117.254 45.8006 116.956 45.6498 116.624C45.499 116.292 45.4149 115.935 45.4025 115.571C45.39 115.207 45.4493 114.844 45.5771 114.503C45.7048 114.162 45.8986 113.849 46.1471 113.583Z" fill="#3F363F"/>
<path d="M119.918 9.14423C120.167 8.87575 120.466 8.65924 120.799 8.50719C121.132 8.35515 121.492 8.27057 121.858 8.25838C122.224 8.24619 122.588 8.3066 122.931 8.43615C123.273 8.56569 123.586 8.76182 123.853 9.01314C124.12 9.26093 124.336 9.55944 124.487 9.89134C124.638 10.2232 124.721 10.5819 124.732 10.9464C124.744 11.3109 124.682 11.6739 124.552 12.0144C124.421 12.3549 124.224 12.6661 123.972 12.9297C123.724 13.196 123.425 13.4106 123.094 13.5614C122.762 13.7122 122.404 13.7963 122.04 13.8088C121.676 13.8212 121.313 13.7619 120.972 13.6341C120.631 13.5064 120.319 13.3127 120.052 13.0641C119.786 12.8155 119.571 12.517 119.421 12.1855C119.27 11.854 119.186 11.496 119.173 11.132C119.161 10.768 119.22 10.4051 119.348 10.064C119.476 9.72296 119.669 9.41044 119.918 9.14423Z" fill="#3F363F"/>
</g>
<defs>
<filter id="filter0_d_44:2312" x="-145" y="-147.87" width="486.614" height="376.645" filterUnits="userSpaceOnUse" color-interpolation-filters="sRGB">
<feFlood flood-opacity="0" result="BackgroundImageFix"/>
<feColorMatrix in="SourceAlpha" type="matrix" values="0 0 0 0 0 0 0 0 0 0 0 0 0 0 0 0 0 0 127 0" result="hardAlpha"/>
<feOffset dy="4"/>
<feGaussianBlur stdDeviation="4"/>
<feComposite in2="hardAlpha" operator="out"/>
<feColorMatrix type="matrix" values="0 0 0 0 0 0 0 0 0 0 0 0 0 0 0 0 0 0 0.15 0"/>
<feBlend mode="normal" in2="BackgroundImageFix" result="effect1_dropShadow_44:2312"/>
<feBlend mode="normal" in="SourceGraphic" in2="effect1_dropShadow_44:2312" result="shape"/>
</filter>
<clipPath id="clip0_44:2312">
<rect width="368.596" height="469.579" fill="white" transform="translate(61.0463 375.175) rotate(-122.5)"/>
</clipPath>
</defs>
</svg>
