<svg width="308" height="219" viewBox="0 0 308 219" fill="none" xmlns="http://www.w3.org/2000/svg">
<g clip-path="url(#clip0_43:2134)">
<g filter="url(#filter0_d_43:2134)">
<path d="M-137.757 63.8159L305.467 217.167C305.467 217.167 372.396 52.6357 284.576 -141.262L-137.757 63.8159Z" fill="#A7423C"/>
</g>
<path d="M239.401 -119.341C301.288 28.1877 268.431 161.966 256.613 200.275L305.467 217.167C305.467 217.167 372.396 52.6358 284.576 -141.262L239.401 -119.341Z" fill="#DDB56C"/>
<path d="M-137.757 63.8159L224.03 189.288C230.112 188.928 250.356 186.017 255.732 174.936C262.427 161.163 244.105 152.549 233.444 142.04C220.525 129.174 224.099 111.156 250.539 101.19C267.605 94.7522 275.821 71.5756 257.884 57.2341C239.948 42.8926 223.877 28.5575 233.405 10.1947C242.932 -8.16808 257.032 -9.45043 256.509 -23.8945C255.985 -38.3385 244.687 -42.3049 230.994 -50.205C211.899 -61.2318 200.619 -75.1205 218.639 -91.096C229.08 -100.381 229.934 -108.736 227.214 -113.386L-137.757 63.8159Z" fill="#E7B747"/>
<path d="M248.283 -123.636L239.401 -119.342C301.288 28.1876 268.431 161.965 256.613 200.275L268.018 204.225C276.752 171.744 313.523 14.3039 248.283 -123.636Z" fill="#C29D50"/>
<path d="M141.586 19.8679C141.586 19.8679 168.85 19.081 179.726 -3.43533C190.602 -25.9517 186.411 -37.7974 186.411 -37.7974C175.578 -34.8895 165.384 -29.9799 156.357 -23.3222C142.673 -12.7536 138.389 8.07082 141.586 19.8679Z" fill="#845C75"/>
<path opacity="0.2" d="M141.586 19.8679L186.369 -37.7995C175.554 -34.8862 165.377 -29.9839 156.358 -23.3434C142.673 -12.7536 138.389 8.07082 141.586 19.8679Z" fill="black"/>
<path d="M142.131 20.0007C142.131 20.0007 155.272 4.93158 148.559 -12.1476C141.846 -29.2267 133.371 -32.8218 133.371 -32.8218C129.553 -25.5352 127.13 -17.5996 126.226 -9.42321C125.1 3.20144 134.191 15.8805 142.131 20.0007Z" fill="#845C75"/>
<path opacity="0.2" d="M142.131 20.0007L133.37 -32.8006C129.546 -25.5241 127.123 -17.5942 126.226 -9.42325C125.1 3.2014 134.191 15.8805 142.131 20.0007Z" fill="black"/>
<path d="M189.249 136.55C189.249 136.55 183.248 155.636 196.165 168.566C209.081 181.496 218.35 181.441 218.35 181.441C218.927 173.233 217.971 164.989 215.532 157.131C211.496 145.123 198.083 137.152 189.249 136.55Z" fill="#845C75"/>
<path opacity="0.1" d="M189.249 136.55L218.437 181.402C219.014 173.208 218.058 164.978 215.616 157.135C211.497 145.123 198.083 137.152 189.249 136.55Z" fill="black"/>
<path d="M14.7138 92.0737C14.7138 92.0737 19.1875 111.588 36.8585 116.184C54.5295 120.78 62.4997 116.06 62.4997 116.06C58.8509 108.681 53.8533 102.05 47.7652 96.5103C38.334 88.1825 22.7334 88.0768 14.7138 92.0737Z" fill="#845C75"/>
<path opacity="0.1" d="M14.7138 92.0737L62.5864 116.022C58.9353 108.662 53.945 102.047 47.8709 96.5155C38.334 88.1825 22.7334 88.0768 14.7138 92.0737Z" fill="black"/>
<path d="M15.2139 42.397C15.2139 42.397 34.6537 37.7076 39.0868 19.9014C43.5198 2.09517 38.6866 -5.7321 38.6866 -5.7321C31.3507 -2.01347 24.7749 3.04411 19.2981 9.17991C11.0668 18.8066 11.1303 34.4156 15.2139 42.397Z" fill="#845C75"/>
<path opacity="0.1" d="M15.214 42.3969L38.6645 -5.71202C31.3342 -2.00341 24.765 3.048 19.2982 9.17988C11.0669 18.8066 11.1304 34.4155 15.214 42.3969Z" fill="black"/>
<path d="M276.507 205.383C276.507 205.383 327.942 37.273 256.668 -126.003C256.689 -126.002 340.576 10.0293 276.507 205.383Z" fill="#F2D19A"/>
<path d="M199.128 -4.73401C200.831 -1.19383 203.546 1.7617 206.93 3.75887C210.313 5.75605 214.212 6.70518 218.135 6.48625C222.058 6.26731 225.827 4.89013 228.967 2.52888C232.107 0.16763 234.477 -3.07166 235.776 -6.77942C237.075 -10.4872 237.245 -14.4969 236.266 -18.3016C235.286 -22.1062 233.2 -25.535 230.272 -28.1543C227.344 -30.7736 223.705 -32.4658 219.815 -33.0169C215.925 -33.568 211.959 -32.9533 208.418 -31.2506C206.065 -30.1219 203.958 -28.5401 202.216 -26.5958C200.475 -24.6515 199.135 -22.3828 198.272 -19.9197C197.409 -17.4566 197.04 -14.8474 197.187 -12.2416C197.334 -9.63583 197.993 -7.08458 199.128 -4.73401ZM229.224 -19.2072C230.378 -16.7984 230.792 -14.1016 230.415 -11.4574C230.037 -8.81327 228.884 -6.34039 227.101 -4.35117C225.319 -2.36195 222.987 -0.945642 220.4 -0.281207C217.813 0.383229 215.087 0.265998 212.566 -0.618092C210.046 -1.50218 207.844 -3.11347 206.239 -5.24838C204.634 -7.38329 203.697 -9.94603 203.548 -12.6129C203.399 -15.2797 204.043 -17.931 205.4 -20.2317C206.757 -22.5325 208.765 -24.3795 211.171 -25.5394C214.405 -27.0922 218.123 -27.2974 221.508 -26.11C224.893 -24.9227 227.668 -22.4398 229.224 -19.2072Z" fill="#3A3930"/>
<path d="M105.834 125.282C107.538 128.822 110.253 131.778 113.636 133.775C117.019 135.772 120.919 136.721 124.842 136.502C128.764 136.284 132.534 134.906 135.674 132.545C138.814 130.184 141.183 126.945 142.482 123.237C143.781 119.529 143.952 115.519 142.972 111.715C141.993 107.91 139.907 104.481 136.979 101.862C134.05 99.2427 130.411 97.5505 126.521 96.9993C122.631 96.4482 118.665 97.0629 115.125 98.7656C112.774 99.8965 110.668 101.479 108.928 103.424C107.189 105.369 105.85 107.637 104.987 110.099C104.124 112.562 103.755 115.17 103.9 117.775C104.046 120.38 104.703 122.931 105.834 125.282ZM136.669 110.442C137.903 113.001 138.349 115.868 137.953 118.681C137.557 121.493 136.336 124.125 134.443 126.244C132.551 128.362 130.073 129.872 127.322 130.581C124.572 131.291 121.673 131.169 118.992 130.231C116.311 129.293 113.968 127.58 112.261 125.31C110.553 123.041 109.557 120.315 109.398 117.479C109.24 114.643 109.926 111.824 111.37 109.378C112.814 106.932 114.951 104.969 117.511 103.738C119.209 102.918 121.051 102.441 122.934 102.335C124.816 102.228 126.701 102.494 128.481 103.117C130.26 103.739 131.899 104.707 133.304 105.964C134.709 107.221 135.853 108.743 136.669 110.442Z" fill="#3A3930"/>
<path d="M33.6117 94.2419C33.304 98.275 34.1927 102.309 36.1665 105.84C38.1404 109.37 41.1117 112.24 44.7085 114.09C48.3054 115.94 52.3681 116.688 56.388 116.241C60.408 115.793 64.2067 114.17 67.3086 111.574C71.6026 112.157 75.9709 111.368 79.7899 109.32C83.6088 107.273 86.6832 104.071 88.574 100.171C90.4648 96.2724 91.0754 91.8757 90.3185 87.6089C89.5617 83.3422 87.4762 79.4236 84.3597 76.4127C84.6448 72.3657 83.7261 68.3247 81.7195 64.7986C79.7129 61.2725 76.7079 58.4189 73.0829 56.5969C69.458 54.775 65.375 54.0662 61.348 54.5598C57.3211 55.0533 53.5302 56.7272 50.4525 59.3707C46.2228 58.9015 41.9517 59.7563 38.2283 61.8172C34.505 63.8781 31.5128 67.0435 29.6646 70.8769C27.8164 74.7103 27.2032 79.0227 27.9096 83.2193C28.616 87.416 30.6072 91.29 33.6085 94.3071L33.6117 94.2419ZM51.9104 63.7683C54.4735 61.5652 57.632 60.1711 60.9869 59.7619C64.3418 59.3526 67.7427 59.9466 70.7603 61.4689C73.7778 62.9912 76.2767 65.3734 77.9412 68.3149C79.6058 71.2563 80.3615 74.6251 80.1129 77.9957C82.702 80.5009 84.4337 83.7597 85.0612 87.3073C85.6886 90.8549 85.1797 94.5101 83.6069 97.7514C82.0342 100.993 79.478 103.654 76.303 105.357C73.1281 107.06 69.4965 107.716 65.9264 107.233C63.3453 109.401 60.181 110.758 56.831 111.133C53.481 111.509 50.0948 110.886 47.0978 109.342C44.1009 107.799 41.6268 105.405 39.9864 102.46C38.3461 99.5151 37.6126 96.1511 37.8782 92.7907C35.3855 90.2808 33.7324 87.0596 33.1467 83.5711C32.5611 80.0825 33.0716 76.4981 34.608 73.3118C36.1444 70.1255 38.6311 67.494 41.7254 65.7799C44.8198 64.0658 48.3695 63.3534 51.8856 63.7409L51.9104 63.7683Z" fill="#B7CD4D"/>
<path d="M29.8899 95.5243C29.514 100.15 30.5165 104.784 32.7707 108.841C35.025 112.897 38.4301 116.196 42.5566 118.32C46.6831 120.444 51.3462 121.299 55.9578 120.776C60.5693 120.253 64.9228 118.377 68.4692 115.383C73.4012 116.09 78.4304 115.211 82.8304 112.873C87.2304 110.536 90.7734 106.86 92.9477 102.377C95.122 97.8936 95.815 92.8355 94.9267 87.9329C94.0384 83.0302 91.6147 78.5368 88.0057 75.1016C88.3754 70.4513 87.3527 65.7961 85.0676 61.729C82.7826 57.6619 79.3387 54.367 75.1745 52.264C71.0104 50.1609 66.3146 49.3449 61.6851 49.9199C57.0556 50.4948 52.7021 52.4347 49.1789 55.4925C44.3192 54.9162 39.4008 55.8716 35.1103 58.2253C30.8197 60.5789 27.371 64.2134 25.2455 68.6215C23.12 73.0295 22.4238 77.9912 23.2541 82.8141C24.0844 87.6369 26.3997 92.0801 29.8769 95.5237L29.8899 95.5243ZM50.8664 60.5417C53.8023 58.0165 57.4211 56.4186 61.2651 55.9498C65.1091 55.4811 69.0058 56.1626 72.4626 57.9083C75.9193 59.6539 78.7808 62.3853 80.6854 65.7571C82.5899 69.1289 83.452 72.9897 83.1625 76.8514C86.1312 79.7187 88.118 83.4507 88.8393 87.5144C89.5606 91.5781 88.9794 95.7659 87.1788 99.4796C85.3781 103.193 82.4501 106.243 78.8128 108.194C75.1755 110.144 71.0149 110.896 66.9252 110.341C63.9753 112.813 60.3624 114.36 56.5378 114.791C52.7133 115.221 48.8467 114.515 45.4212 112.761C41.9956 111.006 39.1631 108.281 37.2774 104.926C35.3917 101.571 34.5365 97.7346 34.8186 93.8963C31.9566 91.0261 30.0558 87.3385 29.3785 83.3423C28.7011 79.346 29.2805 75.238 31.0368 71.585C32.7931 67.932 35.6396 64.914 39.1838 62.9473C42.7279 60.9807 46.7951 60.1622 50.8241 60.605L50.8664 60.5417Z" fill="#839F25"/>
<path d="M227 73.7471C232.822 60.7447 222.44 43.4427 203.812 35.102C185.184 26.7614 165.363 30.5405 159.541 43.543C153.719 56.5454 164.101 73.8474 182.729 82.188C201.358 90.5286 221.178 86.7495 227 73.7471Z" fill="#F6E6CA"/>
<path d="M182.76 82.2136C191.75 86.4758 201.897 87.6503 211.624 85.5548C215.434 77.0265 203.992 65.1442 192.663 60.0737C181.334 55.0033 164.703 54.72 161.017 62.8939C165.935 71.5558 173.579 78.3483 182.76 82.2136Z" fill="#BBB0A1"/>
<path d="M203.219 58.4555L186.344 50.9001L165.894 96.5751L182.768 104.13L203.219 58.4555Z" fill="#F6E6CA"/>
<path d="M110.264 -30.1416C102.322 -41.9689 82.1476 -42.3333 65.2028 -30.9555C48.2581 -19.5777 40.9596 -0.76619 48.9013 11.0612C56.8429 22.8885 77.0173 23.2529 93.9621 11.8751C110.907 0.497257 118.205 -18.3142 110.264 -30.1416Z" fill="#F6E6CA"/>
<path d="M93.9996 11.8632C102.379 6.49709 108.752 -1.48528 112.129 -10.8446C106.915 -18.5947 90.7755 -15.1885 80.472 -8.26778C70.1684 -1.34704 61.1152 12.6067 66.0936 20.0644C76.0456 20.4836 85.8569 17.6002 93.9996 11.8632Z" fill="#BBB0A1"/>
<path d="M84.6934 -18.077L69.344 -7.77039L97.2414 33.7767L112.591 23.4701L84.6934 -18.077Z" fill="#F6E6CA"/>
<path d="M196.341 14.9542C198.315 15.0507 199.994 13.5287 200.09 11.5546C200.187 9.58045 198.665 7.90186 196.691 7.80531C194.716 7.70876 193.038 9.23082 192.941 11.2049C192.845 13.179 194.367 14.8576 196.341 14.9542Z" fill="#845C33"/>
<path d="M224.664 140.338C224.709 141.05 224.542 141.759 224.184 142.375C223.826 142.991 223.292 143.487 222.652 143.8C222.011 144.114 221.293 144.229 220.586 144.133C219.88 144.037 219.218 143.734 218.684 143.261C218.151 142.788 217.769 142.168 217.589 141.478C217.408 140.789 217.436 140.061 217.67 139.387C217.903 138.714 218.332 138.125 218.9 137.695C219.469 137.265 220.152 137.013 220.864 136.972C221.814 136.918 222.746 137.241 223.458 137.871C224.17 138.502 224.604 139.389 224.664 140.338Z" fill="#845C33"/>
<path d="M239.032 167.398C239.102 168.489 238.847 169.577 238.298 170.524C237.749 171.47 236.932 172.232 235.95 172.714C234.968 173.196 233.865 173.376 232.781 173.23C231.697 173.085 230.68 172.621 229.86 171.897C229.039 171.174 228.452 170.223 228.172 169.165C227.892 168.108 227.933 166.991 228.288 165.956C228.643 164.922 229.298 164.016 230.168 163.353C231.039 162.691 232.086 162.301 233.178 162.234C234.638 162.145 236.075 162.638 237.172 163.606C238.269 164.574 238.938 165.937 239.032 167.398Z" fill="#3F363F"/>
<path d="M47.2426 79.8823C47.3085 80.9735 47.0493 82.0597 46.498 83.0035C45.9466 83.9474 45.1277 84.7066 44.1448 85.1851C43.162 85.6637 42.0594 85.84 40.9763 85.6919C39.8933 85.5439 38.8784 85.078 38.0601 84.3532C37.2418 83.6284 36.6568 82.6773 36.3791 81.62C36.1013 80.5628 36.1432 79.4469 36.4996 78.4135C36.8559 77.38 37.5107 76.4755 38.3811 75.8141C39.2515 75.1528 40.2984 74.7644 41.3895 74.698C42.1143 74.654 42.8406 74.7531 43.5271 74.9899C44.2135 75.2266 44.8466 75.5962 45.3901 76.0776C45.9337 76.559 46.377 77.1429 46.6949 77.7957C47.0127 78.4485 47.1989 79.1575 47.2426 79.8823Z" fill="#3F363F"/>
<path d="M169.999 139.955C170.05 140.722 169.871 141.487 169.486 142.153C169.101 142.819 168.527 143.355 167.836 143.693C167.146 144.031 166.37 144.156 165.608 144.052C164.846 143.948 164.132 143.62 163.557 143.109C162.983 142.598 162.573 141.928 162.38 141.183C162.188 140.439 162.221 139.654 162.476 138.928C162.731 138.203 163.196 137.569 163.812 137.109C164.428 136.649 165.167 136.382 165.935 136.343C166.952 136.285 167.951 136.633 168.712 137.31C169.474 137.987 169.936 138.938 169.999 139.955Z" fill="#845C33"/>
<path d="M146.921 143.597C146.96 144.249 146.806 144.899 146.476 145.463C146.147 146.027 145.657 146.481 145.07 146.768C144.482 147.054 143.823 147.159 143.176 147.071C142.528 146.982 141.922 146.704 141.433 146.27C140.944 145.837 140.594 145.268 140.428 144.636C140.262 144.004 140.288 143.337 140.501 142.719C140.714 142.102 141.106 141.561 141.627 141.166C142.147 140.771 142.773 140.539 143.426 140.5C144.3 140.448 145.159 140.745 145.814 141.325C146.469 141.906 146.867 142.723 146.921 143.597Z" fill="#845C33"/>
<path d="M133.394 36.0482C133.441 36.815 133.259 37.5785 132.871 38.2416C132.483 38.9048 131.907 39.4376 131.216 39.7726C130.524 40.1076 129.749 40.2295 128.988 40.1229C128.228 40.0162 127.516 39.6858 126.943 39.1737C126.37 38.6616 125.963 37.9908 125.772 37.2465C125.582 36.5023 125.617 35.7182 125.873 34.9939C126.129 34.2696 126.594 33.6377 127.21 33.1785C127.826 32.7193 128.564 32.4535 129.332 32.4149C130.352 32.358 131.353 32.7088 132.115 33.3902C132.877 34.0716 133.337 35.0277 133.394 36.0482Z" fill="#845C33"/>
<path d="M112.336 35.6756C112.382 36.406 112.136 37.1247 111.652 37.6735C111.168 38.2224 110.485 38.5565 109.755 38.6023C109.025 38.6481 108.306 38.4019 107.757 37.9178C107.208 37.4337 106.874 36.7514 106.828 36.021C106.783 35.2906 107.029 34.5719 107.513 34.0231C107.997 33.4742 108.679 33.1401 109.41 33.0943C110.14 33.0485 110.859 33.2947 111.408 33.7788C111.956 34.2629 112.291 34.9452 112.336 35.6756Z" fill="#845C33"/>
<path d="M120.394 49.5552C120.426 50.0981 120.297 50.6386 120.023 51.1083C119.749 51.5781 119.342 51.9562 118.853 52.1948C118.365 52.4334 117.816 52.5218 117.277 52.449C116.738 52.3762 116.233 52.1453 115.825 51.7856C115.417 51.4258 115.125 50.9532 114.985 50.4275C114.845 49.9018 114.865 49.3466 115.04 48.8319C115.216 48.3171 115.54 47.8659 115.972 47.5352C116.404 47.2045 116.924 47.0093 117.467 46.9739C117.829 46.9504 118.192 46.9985 118.535 47.1156C118.878 47.2328 119.195 47.4165 119.467 47.6564C119.739 47.8962 119.96 48.1874 120.119 48.5133C120.279 48.8392 120.372 49.1932 120.394 49.5552Z" fill="#845C33"/>
<path d="M123.112 79.8187C123.185 80.9668 122.914 82.1104 122.335 83.1045C121.757 84.0985 120.895 84.8981 119.861 85.4016C118.827 85.9051 117.666 86.0899 116.527 85.9325C115.387 85.775 114.32 85.2825 113.461 84.5174C112.602 83.7523 111.99 82.7492 111.702 81.6354C111.415 80.5217 111.465 79.3475 111.846 78.2621C112.227 77.1768 112.922 76.2291 113.842 75.5396C114.763 74.85 115.868 74.4497 117.017 74.3894C118.543 74.3093 120.039 74.8345 121.181 75.8511C122.322 76.8677 123.016 78.2934 123.112 79.8187Z" fill="#3F363F"/>
<path d="M98.0515 68.9238C98.1009 69.6357 97.9375 70.3463 97.5822 70.9652C97.2268 71.5841 96.6955 72.0834 96.0557 72.3997C95.416 72.716 94.6967 72.8351 93.9891 72.7417C93.2816 72.6483 92.6178 72.3467 92.0821 71.8752C91.5463 71.4038 91.1628 70.7837 90.9802 70.0938C90.7976 69.4038 90.8242 68.6752 91.0566 68.0005C91.289 67.3257 91.7166 66.7352 92.2853 66.3041C92.854 65.8729 93.538 65.6205 94.2505 65.5789C95.1968 65.5237 96.1268 65.844 96.8384 66.4702C97.5501 67.0964 97.986 67.9781 98.0515 68.9238Z" fill="#3F363F"/>
</g>
<defs>
<filter id="filter0_d_43:2134" x="-145.757" y="-145.262" width="483.628" height="374.429" filterUnits="userSpaceOnUse" color-interpolation-filters="sRGB">
<feFlood flood-opacity="0" result="BackgroundImageFix"/>
<feColorMatrix in="SourceAlpha" type="matrix" values="0 0 0 0 0 0 0 0 0 0 0 0 0 0 0 0 0 0 127 0" result="hardAlpha"/>
<feOffset dy="4"/>
<feGaussianBlur stdDeviation="4"/>
<feComposite in2="hardAlpha" operator="out"/>
<feColorMatrix type="matrix" values="0 0 0 0 0 0 0 0 0 0 0 0 0 0 0 0 0 0 0.15 0"/>
<feBlend mode="normal" in2="BackgroundImageFix" result="effect1_dropShadow_43:2134"/>
<feBlend mode="normal" in="SourceGraphic" in2="effect1_dropShadow_43:2134" result="shape"/>
</filter>
<clipPath id="clip0_43:2134">
<rect width="467.807" height="357.002" fill="white" transform="translate(-126.743 -161.379) rotate(2.8)"/>
</clipPath>
</defs>
</svg>
