<svg width="308" height="219" viewBox="0 0 308 219" fill="none" xmlns="http://www.w3.org/2000/svg">
<g clip-path="url(#clip0_43:2010)">
<g filter="url(#filter0_d_43:2010)">
<path d="M-130.893 65.3716L305.75 216.854C305.75 216.854 371.866 54.8201 285.493 -136.359L-130.893 65.3716Z" fill="#BC5743"/>
</g>
<path d="M240.962 -114.775C301.805 30.6681 269.295 162.519 257.615 200.214L305.75 216.854C305.75 216.854 371.866 54.8201 285.493 -136.359L240.962 -114.775Z" fill="#DDB56C"/>
<path d="M-130.893 65.3703L225.586 189.349C231.581 189.003 251.535 186.155 256.838 175.247C263.446 161.662 245.344 153.077 234.909 142.787C222.183 130.099 225.739 112.338 251.801 102.568C268.613 96.227 276.722 73.3968 259.068 59.2557C241.414 45.1147 225.563 30.9921 234.987 12.893C244.411 -5.20616 258.282 -6.43754 257.783 -20.6942C257.284 -34.9509 246.144 -38.8298 232.663 -46.6436C213.854 -57.5258 202.764 -71.2193 220.529 -86.9877C230.831 -96.1206 231.662 -104.365 229.091 -108.932L-130.893 65.3703Z" fill="#E7B742"/>
<path d="M249.71 -119.013L240.88 -114.785C301.722 30.6582 269.212 162.509 257.533 200.204L268.776 204.093C277.494 172.115 313.879 16.975 249.71 -119.013Z" fill="#C29D50"/>
<path d="M277.216 205.259C277.216 205.259 328.051 39.6318 258.008 -121.345C258.008 -121.345 340.547 12.7227 277.216 205.259Z" fill="#F2D19A"/>
<path d="M240.626 193.652C241.952 188.859 241.404 183.742 239.094 179.338C236.785 174.935 232.886 171.575 228.189 169.942C223.493 168.308 218.351 168.523 213.807 170.543C209.263 172.562 205.657 176.235 203.723 180.816L208.867 182.606C210.29 179.341 212.892 176.734 216.155 175.306C219.417 173.877 223.099 173.734 226.462 174.904C229.826 176.073 232.624 178.47 234.296 181.614C235.969 184.758 236.392 188.418 235.482 191.861L240.626 193.652Z" fill="#3A3930"/>
<path d="M140.605 100.924C134.827 127.991 148.722 153.898 171.64 158.79C194.558 163.683 217.82 145.707 223.598 118.641C229.376 91.5746 215.481 65.6671 192.563 60.7749C169.645 55.8826 146.383 73.8582 140.605 100.924Z" fill="#E8FFF7"/>
<path d="M182.435 70.7121C169.015 71.7942 159.014 83.5503 160.096 96.9702C161.178 110.39 172.934 120.392 186.354 119.31C199.774 118.228 209.776 106.471 208.693 93.0516C207.611 79.6317 195.855 69.63 182.435 70.7121Z" fill="#E4A727"/>
<path d="M49.4458 85.727C50.5931 80.3575 53.307 75.4489 57.2443 71.622C61.1816 67.795 66.1654 65.2217 71.5653 64.2275C76.9652 63.2332 82.5387 63.8627 87.5808 66.0363C92.623 68.2099 96.9072 71.8301 99.8918 76.4388C102.876 81.0475 104.427 86.4378 104.348 91.9279C104.269 97.418 102.563 102.761 99.4466 107.282C96.3304 111.803 91.9434 115.298 86.8407 117.325C81.7379 119.352 76.1486 119.821 70.7796 118.671C67.2148 117.91 63.8348 116.455 60.8329 114.387C57.831 112.319 55.266 109.68 53.2847 106.621C51.3033 103.561 49.9444 100.141 49.2857 96.5559C48.627 92.9708 48.6814 89.291 49.4458 85.727Z" fill="#95322C"/>
<path d="M69.6405 104.516C69.7954 103.696 70.1922 102.942 70.7799 102.35C71.3677 101.758 72.1192 101.356 72.9377 101.195C73.7562 101.034 74.6041 101.122 75.372 101.448C76.14 101.774 76.7927 102.322 77.2461 103.022C77.6994 103.722 77.9326 104.542 77.9155 105.376C77.8985 106.21 77.6319 107.02 77.1503 107.701C76.6687 108.382 75.9941 108.903 75.2135 109.197C74.4329 109.491 73.5821 109.545 72.7709 109.351C71.728 109.101 70.8211 108.46 70.2382 107.56C69.6554 106.66 69.4414 105.57 69.6405 104.516Z" fill="#C46B55"/>
<path d="M83.2715 77.7871C83.4303 76.9692 83.8302 76.2175 84.4197 75.6288C85.0093 75.04 85.7616 74.6412 86.5797 74.4836C87.3979 74.326 88.2445 74.4168 89.0106 74.7444C89.7766 75.072 90.4271 75.6213 90.8784 76.3218C91.3296 77.0222 91.561 77.8415 91.5426 78.6745C91.5242 79.5075 91.257 80.3159 90.7753 80.9958C90.2936 81.6756 89.6195 82.1957 88.8397 82.4892C88.0599 82.7827 87.2102 82.8361 86.3998 82.6426C85.8746 82.5309 85.3768 82.3164 84.9349 82.0115C84.493 81.7066 84.1158 81.3173 83.8251 80.8659C83.5343 80.4146 83.3357 79.9102 83.2407 79.3818C83.1457 78.8534 83.1562 78.3114 83.2715 77.7871Z" fill="#C46B55"/>
<path d="M63.9242 76.5851C64.0791 75.7655 64.4759 75.0111 65.0636 74.4191C65.6513 73.8272 66.4029 73.4249 67.2214 73.2642C68.0399 73.1034 68.8879 73.1916 69.6558 73.5173C70.4237 73.843 71.0764 74.3913 71.5298 75.0915C71.9831 75.7917 72.2163 76.6116 72.1992 77.4456C72.1821 78.2796 71.9157 79.0893 71.434 79.7703C70.9524 80.4514 70.2778 80.9725 69.4972 81.2666C68.7166 81.5606 67.8658 81.614 67.0545 81.4198C66.5314 81.3083 66.0353 81.0947 65.5947 80.7912C65.1542 80.4878 64.7778 80.1005 64.4871 79.6515C64.1963 79.2024 63.997 78.7005 63.9004 78.1744C63.8038 77.6482 63.8119 77.1082 63.9242 76.5851Z" fill="#C46B55"/>
<path d="M74.2537 84.8495C74.3634 84.3373 74.6224 83.8691 74.9981 83.504C75.3738 83.1388 75.8492 82.8932 76.3643 82.7981C76.8795 82.703 77.4112 82.7627 77.8925 82.9696C78.3737 83.1765 78.7829 83.5214 79.0683 83.9608C79.3537 84.4001 79.5025 84.9141 79.4959 85.4379C79.4893 85.9617 79.3278 86.4719 79.0315 86.9039C78.7352 87.3359 78.3175 87.6705 77.8313 87.8653C77.345 88.0601 76.8118 88.1065 76.2992 87.9985C75.9578 87.9266 75.634 87.788 75.3463 87.5907C75.0586 87.3934 74.8127 87.1412 74.6227 86.8487C74.4326 86.5561 74.3022 86.229 74.2389 85.8859C74.1756 85.5429 74.1806 85.1907 74.2537 84.8495Z" fill="#C46B55"/>
<path d="M86.0735 104.682C86.2237 103.996 86.6385 103.396 87.228 103.013C87.8174 102.63 88.534 102.495 89.2224 102.637C89.7347 102.747 90.2029 103.006 90.5681 103.381C90.9332 103.757 91.1787 104.232 91.2738 104.748C91.3689 105.263 91.3093 105.794 91.1023 106.276C90.8954 106.757 90.5506 107.166 90.1113 107.452C89.672 107.737 89.1579 107.886 88.6341 107.879C88.1102 107.873 87.6001 107.711 87.1681 107.415C86.7361 107.118 86.4015 106.701 86.2067 106.214C86.0119 105.728 85.9655 105.195 86.0735 104.682Z" fill="#C46B55"/>
<path d="M58.0277 92.4261C58.2471 91.4016 58.7652 90.4651 59.5165 89.7348C60.2678 89.0046 61.2187 88.5134 62.249 88.3232C63.2793 88.133 64.3429 88.2524 65.3054 88.6662C66.268 89.0801 67.0862 89.7698 67.657 90.6484C68.2278 91.527 68.5254 92.5551 68.5123 93.6028C68.4992 94.6504 68.1759 95.6707 67.5834 96.5347C66.9908 97.3988 66.1555 98.0679 65.1829 98.4575C64.2103 98.8472 63.1441 98.9399 62.1189 98.724C60.7428 98.4285 59.5397 97.6 58.773 96.4197C58.0063 95.2394 57.7383 93.8034 58.0277 92.4261Z" fill="#C46B55"/>
<path d="M75.4328 90.1867C74.1305 92.819 75.2088 96.0085 77.841 97.3107C80.4733 98.6129 83.6628 97.5347 84.965 94.9025C86.2672 92.2702 85.189 89.0807 82.5568 87.7785C79.9245 86.4763 76.735 87.5545 75.4328 90.1867Z" fill="#C46B55"/>
<path d="M89.1457 120.842C90.8231 124.33 93.497 127.243 96.8294 129.212C100.162 131.182 104.003 132.119 107.868 131.906C111.733 131.692 115.448 130.338 118.544 128.014C121.639 125.69 123.976 122.5 125.26 118.848C126.543 115.196 126.715 111.246 125.753 107.496C124.792 103.747 122.741 100.366 119.859 97.782C116.977 95.1979 113.393 93.5262 109.562 92.9781C105.73 92.4299 101.821 93.03 98.3305 94.7025C93.6476 96.9523 90.0496 100.969 88.3273 105.871C86.605 110.772 86.8994 116.157 89.1457 120.842ZM119.546 106.253C120.759 108.776 121.196 111.602 120.803 114.374C120.409 117.145 119.202 119.738 117.335 121.824C115.468 123.909 113.024 125.394 110.312 126.09C107.601 126.787 104.744 126.663 102.102 125.735C99.4613 124.807 97.1546 123.117 95.4744 120.878C93.7941 118.639 92.8157 115.952 92.6629 113.156C92.5102 110.361 93.1899 107.583 94.6162 105.175C96.0424 102.766 98.1511 100.834 100.675 99.624C102.35 98.8184 104.166 98.3509 106.021 98.2481C107.876 98.1454 109.733 98.4094 111.486 99.0252C113.238 99.6409 114.852 100.596 116.236 101.837C117.619 103.077 118.744 104.578 119.546 106.253Z" fill="#3A3930"/>
<path d="M166.707 -51.2354L148.835 55.9214L54.9037 54.2298L51.9456 -13.996L166.707 -51.2354Z" fill="#E7D46B"/>
<path d="M119.585 32.7767C119.962 30.9991 120.858 29.3733 122.16 28.1051C123.461 26.8369 125.11 25.9834 126.897 25.6525C128.683 25.3215 130.528 25.5282 132.197 26.2462C133.867 26.9641 135.285 28.1612 136.274 29.6859C137.263 31.2105 137.777 32.9942 137.751 34.8112C137.726 36.6281 137.162 38.3967 136.131 39.893C135.1 41.3893 133.648 42.5461 131.959 43.2169C130.27 43.8878 128.42 44.0425 126.644 43.6616C125.465 43.4116 124.347 42.9316 123.354 42.249C122.361 41.5663 121.512 40.6945 120.856 39.6834C120.201 38.6723 119.751 37.5418 119.533 36.3567C119.315 35.1715 119.333 33.9549 119.585 32.7767Z" fill="#E7B74D"/>
<path d="M120.708 3.64321C117.234 3.28419 114.126 5.8095 113.767 9.28365C113.408 12.7578 115.933 15.8652 119.408 16.2242C122.882 16.5832 125.989 14.0579 126.348 10.5838C126.707 7.10962 124.182 4.00223 120.708 3.64321Z" fill="#E7B74D"/>
<path d="M60.6468 35.2049C61.1085 33.0318 62.2045 31.0445 63.796 29.4945C65.3875 27.9445 67.403 26.9015 69.5875 26.4973C71.772 26.0931 74.0273 26.346 76.068 27.224C78.1087 28.102 79.8432 29.5656 81.0518 31.4296C82.2605 33.2936 82.8891 35.4743 82.858 37.6957C82.8269 39.917 82.1376 42.0792 80.8773 43.9087C79.617 45.7382 77.8423 47.1527 75.7779 47.9733C73.7134 48.7939 71.4519 48.9837 69.2796 48.5186C66.3733 47.8907 63.8337 46.1378 62.2161 43.643C60.5984 41.1482 60.0342 38.1144 60.6468 35.2049Z" fill="#E7B74D"/>
<path d="M62.2981 -5.75007C62.7636 -7.92132 63.8625 -9.90577 65.4558 -11.4526C67.049 -12.9993 69.0651 -14.039 71.2492 -14.44C73.4333 -14.8411 75.6872 -14.5856 77.7261 -13.7058C79.765 -12.826 81.4972 -11.3614 82.7038 -9.49725C83.9104 -7.63306 84.5372 -5.45295 84.5049 -3.23259C84.4726 -1.01222 83.7826 1.14872 82.5223 2.977C81.262 4.80529 79.4879 6.21882 77.4243 7.03892C75.3607 7.85902 73.1002 8.04882 70.9287 7.58437C69.485 7.27838 68.1159 6.69031 66.9 5.85382C65.6841 5.01734 64.6454 3.94895 63.8435 2.71C63.0416 1.47104 62.4923 0.0859179 62.2271 -1.36589C61.9619 -2.81769 61.986 -4.30762 62.2981 -5.75007Z" fill="#E7B74D"/>
<path d="M106.407 44.9696C111.293 22.058 93.3226 -1.20112 66.2646 -6.9768C39.2066 -12.7525 13.2861 1.12408 8.50222 24.0671C8.42928 24.773 8.23395 25.4452 8.12163 26.126L106.006 47.0263C106.137 46.3684 106.334 45.6754 106.407 44.9696Z" fill="#E8FFF7"/>
<path d="M66.5479 37.3883C67.2172 34.257 67.2633 31.0245 66.6835 27.8754C66.1036 24.7264 64.9092 21.7223 63.1684 19.0348C61.4276 16.3473 59.1744 14.0291 56.5377 12.2123C53.9009 10.3956 50.9321 9.11601 47.8008 8.44661C44.6696 7.77722 41.4371 7.73113 38.2881 8.31098C35.139 8.89083 32.1349 10.0852 29.4474 11.8261C26.7599 13.5669 24.4416 15.82 22.6249 18.4567C20.8082 21.0935 19.5286 24.0623 18.8592 27.1935C18.8163 27.6088 18.7755 28.0032 18.7326 28.4184L66.301 38.5588C66.3418 38.1644 66.4656 37.7785 66.5479 37.3883Z" fill="#E4A727"/>
<path d="M74.1653 0.428094C75.84 3.91924 78.5124 6.83531 81.8445 8.80762C85.1766 10.7799 89.0188 11.7199 92.8851 11.5085C96.7514 11.2972 100.468 9.94413 103.565 7.6204C106.663 5.29666 109.001 2.10668 110.286 -1.5462C111.57 -5.19908 111.742 -9.15081 110.78 -12.9016C109.819 -16.6523 107.767 -20.0336 104.883 -22.618C102 -25.2024 98.4148 -26.8737 94.5815 -27.4206C90.7483 -27.9674 86.839 -27.3653 83.3479 -25.6903C78.6707 -23.4402 75.0771 -19.4265 73.3556 -14.53C71.6341 -9.63348 71.9253 -4.254 74.1653 0.428094ZM104.586 -14.1584C105.797 -11.6355 106.232 -8.81043 105.837 -6.04024C105.442 -3.27005 104.235 -0.679129 102.368 1.40505C100.501 3.48922 98.0578 4.97309 95.3475 5.66902C92.6373 6.36495 89.7815 6.24173 87.1413 5.31494C84.501 4.38814 82.1948 2.69936 80.5142 0.462106C78.8335 -1.77515 77.8539 -4.46045 77.6991 -7.25436C77.5443 -10.0483 78.2213 -12.8253 79.6445 -15.2345C81.0678 -17.6437 83.1734 -19.5769 85.6951 -20.7897C87.3708 -21.5956 89.1888 -22.0633 91.0454 -22.1661C92.9019 -22.269 94.7606 -22.0049 96.515 -21.3891C98.2695 -20.7732 99.8854 -19.8176 101.27 -18.577C102.655 -17.3363 103.782 -15.8348 104.586 -14.1584Z" fill="#3A3930"/>
<path d="M133.499 3.43284C126.549 17.0848 131.982 33.786 145.634 40.7361C159.286 47.6861 175.987 42.2531 182.937 28.6011C189.887 14.9491 184.454 -1.75203 170.802 -8.70206C157.15 -15.6521 140.449 -10.2191 133.499 3.43284Z" fill="#95322C"/>
<path d="M151.278 28.8338C151.432 28.0148 151.828 27.2607 152.414 26.6686C153.001 26.0765 153.751 25.6736 154.568 25.5116C155.386 25.3496 156.233 25.4359 157.001 25.7596C157.769 26.0832 158.422 26.6294 158.877 27.3276C159.332 28.0259 159.568 28.8443 159.553 29.6775C159.539 30.5108 159.276 31.3207 158.797 32.003C158.319 32.6853 157.647 33.2087 156.869 33.5059C156.09 33.8031 155.24 33.8605 154.429 33.6706C153.382 33.4256 152.469 32.7858 151.882 31.8847C151.295 30.9836 151.079 29.8907 151.278 28.8338Z" fill="#C46B55"/>
<path d="M164.9 2.18803C165.054 1.36905 165.45 0.614966 166.037 0.0228832C166.623 -0.5692 167.373 -0.972208 168.191 -1.13422C169.008 -1.29623 169.855 -1.20981 170.623 -0.886157C171.391 -0.562499 172.045 -0.0163663 172.5 0.681892C172.955 1.38015 173.19 2.19855 173.176 3.03179C173.162 3.86504 172.898 4.67497 172.42 5.35726C171.941 6.03955 171.269 6.56299 170.491 6.86019C169.712 7.15739 168.863 7.21474 168.051 7.02486C167.004 6.77982 166.092 6.14005 165.505 5.23894C164.918 4.33783 164.701 3.24492 164.9 2.18803Z" fill="#C46B55"/>
<path d="M145.555 0.965255C145.713 0.147996 146.112 -0.603317 146.7 -1.1922C147.288 -1.78109 148.039 -2.18067 148.856 -2.33954C149.674 -2.49841 150.519 -2.40932 151.286 -2.08378C152.052 -1.75823 152.703 -1.21106 153.156 -0.512574C153.609 0.185911 153.842 1.00381 153.827 1.83608C153.811 2.66834 153.547 3.47694 153.068 4.15801C152.59 4.83907 151.919 5.36145 151.141 5.65812C150.363 5.95479 149.514 6.01219 148.704 5.82288C147.653 5.5774 146.738 4.93433 146.15 4.02862C145.563 3.12291 145.35 2.02498 145.555 0.965255Z" fill="#C46B55"/>
<path d="M155.905 9.23177C156.015 8.71885 156.276 8.25023 156.652 7.88521C157.029 7.52019 157.506 7.27523 158.022 7.18132C158.538 7.08742 159.071 7.14882 159.552 7.35773C160.033 7.56664 160.442 7.91366 160.726 8.35486C161.009 8.79606 161.156 9.31157 161.147 9.83613C161.138 10.3607 160.973 10.8707 160.673 11.3016C160.374 11.7325 159.954 12.0648 159.465 12.2565C158.977 12.4483 158.443 12.4907 157.93 12.3786C157.245 12.2286 156.647 11.8133 156.267 11.2235C155.888 10.6337 155.758 9.91746 155.905 9.23177Z" fill="#C46B55"/>
<path d="M167.725 29.0646C167.835 28.5524 168.094 28.0842 168.469 27.7191C168.845 27.3539 169.321 27.1083 169.836 27.0132C170.351 26.9181 170.883 26.9778 171.364 27.1847C171.845 27.3916 172.254 27.7366 172.54 28.1759C172.825 28.6152 172.974 29.1292 172.967 29.653C172.961 30.1768 172.799 30.687 172.503 31.119C172.207 31.551 171.789 31.8856 171.303 32.0804C170.816 32.2752 170.283 32.3216 169.771 32.2136C169.428 32.1443 169.102 32.0073 168.813 31.8107C168.524 31.6141 168.277 31.3618 168.087 31.0686C167.896 30.7754 167.766 30.4472 167.704 30.1031C167.642 29.759 167.649 29.4059 167.725 29.0646Z" fill="#C46B55"/>
<path d="M139.677 16.8291C139.897 15.8039 140.416 14.867 141.169 14.1369C141.921 13.4068 142.873 12.9162 143.905 12.7272C144.936 12.5382 146 12.6592 146.963 13.075C147.925 13.4909 148.743 14.1828 149.312 15.0633C149.882 15.9438 150.177 16.9734 150.161 18.0218C150.145 19.0701 149.819 20.0903 149.223 20.9532C148.628 21.8161 147.789 22.4829 146.815 22.8695C145.84 23.256 144.773 23.3449 143.748 23.1248C142.373 22.8297 141.172 22.0006 140.408 20.8199C139.645 19.6393 139.382 18.2037 139.677 16.8291Z" fill="#C46B55"/>
<path d="M157.144 14.1848C155.842 16.817 156.92 20.0066 159.552 21.3088C162.184 22.611 165.374 21.5328 166.676 18.9005C167.978 16.2683 166.9 13.0788 164.268 11.7766C161.636 10.4743 158.446 11.5525 157.144 14.1848Z" fill="#C46B55"/>
<path d="M174.213 13.3898C170.984 15.5951 169.267 18.8167 170.344 21.383C171.422 23.9493 174.804 24.9283 178.59 24.2284C177.761 28.8008 181.121 32.0227 186.759 29.6468C195.751 25.876 196.236 16.1064 196.05 12.2263L208.289 7.09139L204.755 23.6172C201.011 24.1115 191.237 26.3117 189.166 36.0014C187.858 42.1609 191.785 44.7699 196.203 43.0234C196.174 46.965 197.835 50.1791 200.525 50.7508C203.214 51.3225 205.982 49.1116 207.561 45.6029C210.852 48.8806 215.395 47.9652 216.684 41.9925C218.72 32.446 210.985 26.485 207.673 24.4222L211.174 7.99812L220.038 17.4539C218.274 20.9226 214.732 30.0196 221.402 37.1505C225.578 41.6107 229.948 40.1319 231.075 35.5273C234.247 37.7226 237.788 38.1724 239.763 36.3202C241.738 34.468 241.528 30.8164 239.483 27.4577C244.214 26.7506 246.191 22.4437 241.94 17.8919C235.175 10.6672 225.574 13.8296 222.188 15.3261L211.944 4.40575L215.003 -9.96585L212.067 -10.584L209.029 3.57994L194.927 9.48748C192.403 6.70871 185.003 -0.0570049 175.858 3.76104C170.146 6.04531 170.178 10.8117 174.213 13.3898Z" fill="#84C041"/>
<path opacity="0.2" d="M213.476 -10.4173L200.459 50.5763C203.128 51.1458 205.916 48.9371 207.495 45.4284C210.787 48.706 215.329 47.7906 216.618 41.8179C218.654 32.2714 210.919 26.3105 207.607 24.2476L211.109 7.82358L219.972 17.2793C218.208 20.748 214.666 29.845 221.336 36.9759C225.512 41.4361 229.882 39.9573 231.009 35.3527C234.181 37.5479 237.722 37.9979 239.697 36.1457C241.672 34.2935 241.462 30.6418 239.417 27.2831C244.148 26.5761 246.125 22.2691 241.875 17.7173C235.109 10.4926 225.508 13.655 222.122 15.1515L211.878 4.23122L214.937 -10.1404L213.476 -10.4173Z" fill="black"/>
<path d="M38.1564 112.74L-8.01032 56.1423L-59.2986 90.7297L36.1681 123.655L38.1564 112.74Z" fill="#E7D46B"/>
<path d="M-4.52701 94.3127C-4.22894 92.9303 -3.527 91.6677 -2.51024 90.6849C-1.49348 89.7021 -0.207686 89.0434 1.18397 88.7925C2.57562 88.5416 4.01042 88.7097 5.30641 89.2754C6.60239 89.8412 7.70113 90.7792 8.46324 91.9703C9.22535 93.1615 9.61646 94.5522 9.587 95.966C9.55754 97.3798 9.10882 98.7529 8.29775 99.9113C7.48668 101.07 6.34983 101.961 5.0314 102.472C3.71297 102.984 2.27238 103.092 0.892387 102.783C-0.942975 102.367 -2.54068 101.245 -3.55493 99.6595C-4.56917 98.0743 -4.91838 96.1535 -4.52701 94.3127Z" fill="#E7B74D"/>
<path d="M10.3294 107.703C10.5034 106.87 10.9208 106.107 11.5286 105.512C12.1363 104.916 12.9072 104.514 13.7436 104.357C14.5799 104.199 15.4441 104.294 16.2268 104.628C17.0094 104.962 17.6752 105.521 18.14 106.234C18.6047 106.947 18.8474 107.782 18.8374 108.633C18.8273 109.484 18.5649 110.313 18.0835 111.014C17.602 111.716 16.9231 112.259 16.1328 112.575C15.3425 112.891 14.4763 112.965 13.6438 112.788C12.5311 112.551 11.5575 111.883 10.9363 110.93C10.3151 109.977 10.0968 108.817 10.3294 107.703Z" fill="#E7B74D"/>
<path d="M7.46265 42.0464C3.89168 40.4604 0.25857 40.6934 -1.33545 42.9207C-2.92948 45.148 -2.02492 48.5777 0.567592 51.5103C-3.79909 53.1573 -4.73423 57.7398 0.227899 61.295C8.15901 66.9825 16.7247 62.2653 19.9301 60.0787L30.735 67.8048L14.7916 73.459C12.4274 70.55 5.34446 63.3554 -3.9165 66.6788C-9.77574 68.7591 -10.0157 73.5183 -6.12894 76.312C-9.48548 78.3361 -11.3608 81.4575 -10.4327 84.0503C-9.50466 86.6431 -6.16711 87.8484 -2.37945 87.3375C-3.47641 91.8613 -0.301836 95.2527 5.40779 93.199C14.5771 89.95 15.6041 80.2154 15.5464 76.3067L31.3818 70.6833L27.9927 83.1743C24.1184 83.5083 14.4951 85.2625 11.9282 94.6701C10.3324 100.569 13.955 103.482 18.3833 102.052C18.1733 105.912 19.6433 109.148 22.2764 109.861C24.9095 110.573 27.8945 108.49 29.663 104.98C32.7453 108.655 37.4636 108.073 39.0909 102.072C41.6956 92.5007 34.01 86.0622 30.9164 83.917L34.8665 69.4487L48.6725 64.5807L47.6641 61.7488L34.0036 66.6318L21.5786 57.7312C22.6248 54.1044 24.5036 44.248 16.4544 38.4853C11.576 34.7289 7.55735 37.2722 7.46265 42.0464Z" fill="#84C041"/>
<path opacity="0.2" d="M48.3101 63.0115L-10.5007 83.8964C-9.58915 86.4455 -6.23512 87.6944 -2.44746 87.1836C-3.54442 91.7074 -0.369843 95.0989 5.33979 93.0451C14.5091 89.7962 15.5361 80.0615 15.4784 76.1528L31.3138 70.5293L27.9247 83.0203C24.0504 83.3544 14.427 85.1086 11.8602 94.5163C10.2644 100.415 13.8871 103.328 18.3153 101.898C18.1053 105.758 19.5753 108.994 22.2084 109.707C24.8415 110.42 27.8265 108.336 29.595 104.826C32.6773 108.502 37.3956 107.919 39.0229 101.918C41.6276 92.3468 33.942 85.9082 30.8484 83.7631L34.7985 69.2948L48.6045 64.4267L48.3101 63.0115Z" fill="black"/>
</g>
<defs>
<filter id="filter0_d_43:2010" x="-138.893" y="-140.359" width="476.835" height="369.213" filterUnits="userSpaceOnUse" color-interpolation-filters="sRGB">
<feFlood flood-opacity="0" result="BackgroundImageFix"/>
<feColorMatrix in="SourceAlpha" type="matrix" values="0 0 0 0 0 0 0 0 0 0 0 0 0 0 0 0 0 0 127 0" result="hardAlpha"/>
<feOffset dy="4"/>
<feGaussianBlur stdDeviation="4"/>
<feComposite in2="hardAlpha" operator="out"/>
<feColorMatrix type="matrix" values="0 0 0 0 0 0 0 0 0 0 0 0 0 0 0 0 0 0 0.15 0"/>
<feBlend mode="normal" in2="BackgroundImageFix" result="effect1_dropShadow_43:2010"/>
<feBlend mode="normal" in="SourceGraphic" in2="effect1_dropShadow_43:2010" result="shape"/>
</filter>
<clipPath id="clip0_43:2010">
<rect width="461.318" height="349.323" fill="white" transform="translate(317.079 218.087) rotate(-174.1)"/>
</clipPath>
</defs>
</svg>
