<svg width="308" height="222" viewBox="0 0 308 222" fill="none" xmlns="http://www.w3.org/2000/svg">
<g clip-path="url(#clip0_43:2195)">
<g filter="url(#filter0_d_43:2195)">
<path d="M-143.877 67.2232L306.621 220.455C306.621 220.455 373.651 53.1699 283.521 -143.087L-143.877 67.2232Z" fill="#A7423C"/>
</g>
<path d="M237.804 -120.607C301.377 28.7433 268.752 164.645 256.965 203.576L306.621 220.455C306.621 220.455 373.651 53.1699 283.521 -143.087L237.804 -120.607Z" fill="#DDB56C"/>
<path d="M-143.877 67.2231L223.85 192.602C230.018 192.204 250.541 189.143 255.937 177.872C262.657 163.863 244.021 155.22 233.15 144.616C219.973 131.63 223.504 113.331 250.277 103.079C267.557 96.4568 275.769 72.8988 257.495 58.4436C239.221 43.9884 222.84 29.5298 232.409 10.8488C241.978 -7.83223 256.276 -9.20817 255.668 -23.8599C255.061 -38.5116 243.577 -42.4758 229.642 -50.4183C210.21 -61.5043 198.693 -75.5355 216.89 -91.8396C227.434 -101.316 228.256 -109.797 225.472 -114.5L-143.877 67.2231Z" fill="#E7B747"/>
<path d="M246.793 -125.011L237.804 -120.607C301.377 28.7432 268.752 164.645 256.965 203.576L268.558 207.523C277.247 174.522 313.716 14.5923 246.793 -125.011Z" fill="#C29D50"/>
<path d="M139.304 21.1509C139.304 21.1509 166.961 20.2077 177.876 -2.69459C188.791 -25.5969 184.476 -37.593 184.476 -37.593C173.5 -34.5851 163.184 -29.5498 154.061 -22.7472C140.233 -11.9518 135.997 9.19884 139.304 21.1509Z" fill="#845C75"/>
<path opacity="0.2" d="M139.304 21.1509L184.433 -37.5949C173.476 -34.5817 163.177 -29.5539 154.062 -22.7686C140.233 -11.9518 135.997 9.19884 139.304 21.1509Z" fill="black"/>
<path d="M139.857 21.2825C139.857 21.2825 153.11 5.92395 146.208 -11.3684C139.307 -28.6608 130.689 -32.2632 130.689 -32.2632C126.854 -24.8502 124.438 -16.7861 123.564 -8.48572C122.488 4.32889 131.779 17.1444 139.857 21.2825Z" fill="#845C75"/>
<path opacity="0.2" d="M139.857 21.2825L130.688 -32.2417C126.847 -24.8389 124.43 -16.7805 123.564 -8.4857C122.488 4.3289 131.779 17.1444 139.857 21.2825Z" fill="black"/>
<path d="M188.281 139.28C188.281 139.28 182.294 158.677 195.468 171.726C208.641 184.776 218.045 184.67 218.045 184.67C218.586 176.339 217.573 167.981 215.056 160.021C210.898 147.86 197.247 139.843 188.281 139.28Z" fill="#845C75"/>
<path opacity="0.1" d="M188.281 139.28L218.132 184.631C218.675 176.314 217.66 167.969 215.142 160.025C210.898 147.86 197.247 139.844 188.281 139.28Z" fill="black"/>
<path d="M10.966 95.0827C10.966 95.0827 15.6086 114.857 33.5615 119.427C51.5145 123.996 59.5757 119.164 59.5757 119.164C55.8345 111.698 50.7289 104.997 44.5226 99.4084C34.9098 91.0093 19.0812 90.9849 10.966 95.0827Z" fill="#845C75"/>
<path opacity="0.1" d="M10.966 95.0827L59.6635 119.125C55.92 111.678 50.8219 104.993 44.6299 99.413C34.9098 91.0093 19.0812 90.9849 10.966 95.0827Z" fill="black"/>
<path d="M11.2095 44.6795C11.2095 44.6795 30.9077 39.8185 35.3107 21.7292C39.7138 3.63999 34.7685 -4.27566 34.7685 -4.27566C27.3455 -0.463872 20.7008 4.70234 15.1768 10.9567C6.87663 20.7674 7.02401 36.6034 11.2095 44.6795Z" fill="#845C75"/>
<path opacity="0.1" d="M11.2096 44.6795L34.7462 -4.25512C27.3289 -0.453521 20.6908 4.70639 15.1769 10.9567C6.87672 20.7674 7.02409 36.6035 11.2096 44.6795Z" fill="black"/>
<path d="M277.176 208.652C277.176 208.652 328.467 37.8194 255.288 -127.457C255.309 -127.456 341.141 10.1116 277.176 208.652Z" fill="#F2D19A"/>
<path d="M197.553 -4.11529C199.3 -0.53257 202.071 2.45161 205.514 4.45991C208.957 6.46822 212.918 7.41047 216.897 7.16751C220.876 6.92455 224.693 5.50727 227.866 3.09493C231.039 0.682581 233.426 -2.6165 234.724 -6.3852C236.023 -10.1539 236.174 -14.223 235.16 -18.0779C234.146 -21.9328 232.012 -25.4004 229.027 -28.0423C226.042 -30.6842 222.341 -32.3817 218.391 -32.9202C214.442 -33.4588 210.421 -32.814 206.838 -31.0676C204.457 -29.91 202.327 -28.294 200.571 -26.3121C198.815 -24.3302 197.467 -22.0213 196.604 -19.5177C195.742 -17.0141 195.382 -14.365 195.544 -11.722C195.707 -9.07902 196.39 -6.49409 197.553 -4.11529ZM228.011 -18.9593C229.195 -16.5215 229.629 -13.7876 229.26 -11.1029C228.891 -8.41821 227.734 -5.90316 225.937 -3.87548C224.139 -1.8478 221.78 -0.398463 219.159 0.2894C216.538 0.977259 213.771 0.872802 211.209 -0.0107823C208.648 -0.894367 206.405 -2.51744 204.765 -4.67494C203.125 -6.83243 202.162 -9.42755 201.996 -12.1325C201.83 -14.8374 202.47 -17.5307 203.834 -19.8722C205.199 -22.2137 207.227 -24.0982 209.661 -25.2879C212.934 -26.8804 216.705 -27.1084 220.146 -25.9217C223.587 -24.735 226.416 -22.2307 228.011 -18.9593Z" fill="#3A3930"/>
<path d="M103.591 128.291C105.338 131.874 108.108 134.858 111.551 136.866C114.995 138.875 118.956 139.817 122.935 139.574C126.913 139.331 130.731 137.914 133.904 135.501C137.077 133.089 139.464 129.79 140.762 126.021C142.06 122.253 142.212 118.184 141.198 114.329C140.184 110.474 138.049 107.006 135.064 104.364C132.08 101.722 128.378 100.025 124.429 99.4863C120.479 98.9478 116.459 99.5925 112.876 101.339C110.496 102.499 108.368 104.116 106.614 106.098C104.859 108.08 103.512 110.389 102.65 112.892C101.788 115.394 101.427 118.043 101.589 120.685C101.75 123.327 102.43 125.912 103.591 128.291ZM134.796 113.071C136.061 115.661 136.53 118.567 136.143 121.423C135.756 124.279 134.53 126.955 132.622 129.115C130.713 131.274 128.207 132.819 125.42 133.553C122.634 134.288 119.692 134.18 116.966 133.242C114.241 132.304 111.856 130.579 110.111 128.286C108.366 125.992 107.341 123.232 107.165 120.356C106.989 117.479 107.67 114.615 109.123 112.126C110.575 109.636 112.733 107.634 115.323 106.371C117.041 105.53 118.908 105.037 120.818 104.919C122.727 104.8 124.64 105.06 126.449 105.682C128.258 106.305 129.926 107.278 131.358 108.545C132.791 109.813 133.959 111.351 134.796 113.071Z" fill="#3A3930"/>
<path d="M30.1501 97.1815C29.8593 101.275 30.7824 105.363 32.8037 108.935C34.8251 112.506 37.8549 115.402 41.5141 117.26C45.1732 119.118 49.299 119.855 53.3752 119.38C57.4513 118.905 61.2968 117.238 64.4301 114.587C68.7898 115.156 73.2176 114.332 77.0813 112.234C80.945 110.136 84.0472 106.871 85.9448 102.906C87.8425 98.9396 88.4386 94.4755 87.648 90.1506C86.8575 85.8257 84.7208 81.8611 81.5429 78.8229C81.8106 74.7154 80.8571 70.6205 78.8025 67.0536C76.7479 63.4868 73.684 60.6075 69.9965 58.7783C66.309 56.9491 62.1628 56.2516 58.0798 56.7738C53.9968 57.2959 50.1595 59.0144 47.051 61.7127C42.7572 61.2591 38.4284 62.1491 34.6617 64.2598C30.895 66.3705 27.8761 69.5979 26.0213 73.497C24.1666 77.3961 23.5673 81.7746 24.3063 86.0286C25.0453 90.2826 27.0861 94.2026 30.1472 97.2477L30.1501 97.1815ZM48.5535 66.1666C51.1423 63.9179 54.3394 62.4866 57.741 62.0536C61.1426 61.6206 64.5963 62.2052 67.6659 63.7336C70.7355 65.262 73.2834 67.6657 74.9879 70.6412C76.6923 73.6166 77.4769 77.0305 77.2426 80.4515C79.8827 82.9795 81.657 86.2766 82.3124 89.8726C82.9679 93.4686 82.471 97.1797 80.8925 100.477C79.3141 103.773 76.7348 106.488 73.5226 108.232C70.3104 109.976 66.6294 110.661 63.0047 110.19C60.3975 112.403 57.1943 113.797 53.7975 114.196C50.4007 114.594 46.9618 113.98 43.913 112.431C40.8641 110.881 38.3413 108.465 36.6614 105.486C34.9814 102.506 34.2194 99.0973 34.471 95.6865C31.9287 93.1532 30.2344 89.894 29.6216 86.3577C29.0089 82.8214 29.5078 79.1821 31.0497 75.9411C32.5915 72.7002 35.1005 70.0172 38.2308 68.2617C41.3612 66.5062 44.9588 65.7645 48.5283 66.139L48.5535 66.1666Z" fill="#B7CD4D"/>
<path d="M26.3816 98.5031C26.0248 103.198 27.0665 107.894 29.3751 111.998C31.6838 116.102 35.156 119.431 39.354 121.564C43.5519 123.697 48.2875 124.539 52.9635 123.984C57.6395 123.429 62.0464 121.502 65.6286 118.446C70.6362 119.137 75.734 118.219 80.1857 115.824C84.6374 113.429 88.2125 109.68 90.3947 105.12C92.5768 100.56 93.2531 95.4249 92.3258 90.4555C91.3985 85.4861 88.9156 80.9401 85.2358 77.474C85.5862 72.7539 84.5238 68.0363 82.1838 63.9221C79.8439 59.8079 76.3323 56.4833 72.0963 54.3717C67.8604 52.2601 63.0917 51.4572 58.3978 52.0651C53.704 52.6731 49.2973 54.6643 45.739 57.7854C40.8054 57.2265 35.8205 58.222 31.4799 60.6327C27.1393 63.0435 23.6596 66.7492 21.5266 71.2328C19.3936 75.7165 18.7136 80.7542 19.5816 85.6428C20.4496 90.5315 22.8222 95.0272 26.3683 98.5025L26.3816 98.5031ZM47.4779 62.8993C50.4432 60.3217 54.1062 58.6812 58.0038 58.1852C61.9013 57.6892 65.8584 58.36 69.3748 60.1127C72.8912 61.8654 75.8089 64.6214 77.7591 68.0323C79.7093 71.4431 80.6045 75.3556 80.3313 79.2751C83.3585 82.1683 85.3941 85.9441 86.1475 90.0633C86.9008 94.1824 86.3334 98.4343 84.5263 102.212C82.7191 105.989 79.7647 109.099 76.0847 111.097C72.4048 113.095 68.1876 113.88 64.0353 113.338C61.0555 115.862 57.3982 117.452 53.5202 117.909C49.6422 118.366 45.7155 117.67 42.2307 115.908C38.746 114.146 35.8577 111.397 33.9267 108.003C31.9956 104.609 31.1076 100.721 31.3734 96.8252C28.4545 93.9283 26.5065 90.1971 25.798 86.1462C25.0895 82.0953 25.6556 77.9244 27.418 74.2088C29.1805 70.4932 32.0525 67.4161 35.6378 65.402C39.2232 63.3878 43.3452 62.5359 47.4353 62.9637L47.4779 62.8993Z" fill="#839F25"/>
<path d="M232.701 90.0113C240.85 63.2788 225.564 34.9347 198.558 26.7028C171.553 18.471 143.055 33.4687 134.906 60.2011C126.758 86.9336 142.044 115.278 169.05 123.51C196.055 131.741 224.553 116.744 232.701 90.0113Z" fill="#95322C"/>
<path d="M185.914 45.7044C185.517 46.9957 184.746 48.1402 183.698 48.9934C182.651 49.8465 181.374 50.37 180.029 50.4976C178.684 50.6252 177.331 50.3513 176.142 49.7104C174.953 49.0694 173.98 48.0903 173.347 46.8968C172.714 45.7032 172.449 44.3488 172.586 43.0047C172.722 41.6606 173.254 40.3872 174.114 39.3453C174.974 38.3034 176.124 37.5399 177.418 37.1512C178.712 36.7625 180.092 36.7662 181.384 37.1616C182.244 37.422 183.044 37.8502 183.738 38.4213C184.433 38.9925 185.007 39.6954 185.428 40.4895C185.849 41.2837 186.109 42.1533 186.192 43.0484C186.276 43.9434 186.181 44.8461 185.914 45.7044Z" fill="#A95254"/>
<path d="M190.393 93.862C189.878 95.552 188.873 97.0512 187.506 98.1705C186.138 99.2897 184.47 99.9787 182.712 100.15C180.953 100.322 179.183 99.9686 177.626 99.1348C176.068 98.3011 174.792 97.0244 173.959 95.466C173.127 93.9076 172.775 92.1374 172.948 90.379C173.121 88.6206 173.811 86.9529 174.931 85.5865C176.051 84.2202 177.551 83.2165 179.242 82.7022C180.932 82.188 182.737 82.1862 184.428 82.6971C186.698 83.3889 188.601 84.9529 189.72 87.046C190.838 89.1392 191.08 91.5904 190.393 93.862Z" fill="#A95254"/>
<path d="M169.198 71.429C168.49 73.7161 167.119 75.7418 165.259 77.2493C163.399 78.7569 161.134 79.6787 158.75 79.8979C156.366 80.1172 153.97 79.624 151.866 78.4809C149.763 77.3379 148.045 75.5963 146.932 73.4766C145.819 71.357 145.359 68.9546 145.612 66.5738C145.865 64.193 146.819 61.9408 148.353 60.1023C149.886 58.2638 151.931 56.9217 154.228 56.246C156.525 55.5703 158.97 55.5913 161.255 56.3065C162.77 56.7776 164.177 57.5425 165.396 58.5575C166.615 59.5726 167.622 60.8178 168.36 62.2222C169.097 63.6265 169.551 65.1625 169.695 66.7422C169.839 68.3219 169.67 69.9145 169.198 71.429Z" fill="#A95254"/>
<path d="M207.282 75.4999C207.164 75.8672 206.941 76.1915 206.639 76.4321C206.338 76.6727 205.972 76.8189 205.588 76.8522C205.204 76.8855 204.819 76.8043 204.48 76.6191C204.142 76.4339 203.866 76.1528 203.688 75.8112C203.509 75.4696 203.435 75.0827 203.476 74.6993C203.516 74.3158 203.669 73.9529 203.915 73.6562C204.162 73.3595 204.49 73.1423 204.859 73.0318C205.229 72.9213 205.623 72.9226 205.992 73.0354C206.239 73.1111 206.469 73.2352 206.668 73.4005C206.867 73.5657 207.031 73.7689 207.151 73.9981C207.271 74.2274 207.345 74.4782 207.367 74.736C207.389 74.9938 207.36 75.2534 207.282 75.4999Z" fill="#A95254"/>
<path d="M171.135 107.345C171.021 107.719 170.798 108.05 170.496 108.298C170.193 108.546 169.824 108.698 169.435 108.736C169.046 108.773 168.654 108.695 168.309 108.51C167.965 108.325 167.683 108.042 167.5 107.697C167.316 107.352 167.239 106.96 167.278 106.571C167.317 106.182 167.471 105.813 167.72 105.511C167.968 105.21 168.301 104.989 168.676 104.876C169.05 104.764 169.449 104.765 169.823 104.879C170.321 105.037 170.736 105.384 170.981 105.845C171.226 106.305 171.281 106.844 171.135 107.345Z" fill="#A95254"/>
<path d="M190.202 65.7218C189.974 66.4701 189.53 67.1339 188.924 67.6293C188.319 68.1247 187.58 68.4294 186.802 68.5048C186.023 68.5802 185.239 68.423 184.55 68.0531C183.861 67.6831 183.297 67.1169 182.93 66.4263C182.562 65.7357 182.408 64.9517 182.487 64.1734C182.565 63.3951 182.872 62.6575 183.37 62.054C183.868 61.4506 184.533 61.0083 185.282 60.7832C186.032 60.5581 186.831 60.5603 187.579 60.7895C188.58 61.0964 189.419 61.7881 189.911 62.7129C190.403 63.6376 190.508 64.7198 190.202 65.7218Z" fill="#A95254"/>
<path d="M228.241 76.265C228.016 77.0156 227.574 77.6826 226.97 78.1814C226.366 78.6802 225.627 78.9883 224.848 79.0666C224.069 79.145 223.284 78.9901 222.592 78.6215C221.901 78.2529 221.335 77.6873 220.966 76.9964C220.597 76.3055 220.441 75.5206 220.518 74.7411C220.596 73.9616 220.903 73.2227 221.402 72.6182C221.9 72.0137 222.567 71.5709 223.317 71.3458C224.067 71.1208 224.867 71.1237 225.616 71.3543C226.111 71.5038 226.572 71.7495 226.972 72.0774C227.372 72.4053 227.703 72.8089 227.947 73.265C228.191 73.7212 228.342 74.2211 228.393 74.7358C228.443 75.2506 228.391 75.7703 228.241 76.265Z" fill="#A95254"/>
<path d="M212.273 58.2543C211.943 59.3222 211.304 60.2683 210.437 60.9732C209.569 61.678 208.513 62.1099 207.4 62.2141C206.287 62.3183 205.168 62.0903 204.185 61.5588C203.202 61.0273 202.399 60.2162 201.876 59.2281C201.354 58.24 201.137 57.1192 201.251 56.0075C201.366 54.8958 201.808 53.8431 202.521 52.9824C203.234 52.1218 204.186 51.4919 205.257 51.1723C206.328 50.8528 207.47 50.858 208.538 51.1872C209.247 51.4059 209.906 51.7622 210.478 52.2357C211.05 52.7092 211.522 53.2908 211.869 53.9471C212.216 54.6033 212.43 55.3215 212.499 56.0605C212.569 56.7995 212.491 57.545 212.273 58.2543Z" fill="#A95254"/>
<path d="M192.323 112.722C192.088 113.496 191.629 114.182 191.004 114.695C190.379 115.207 189.616 115.522 188.811 115.601C188.007 115.679 187.197 115.517 186.485 115.134C185.773 114.752 185.19 114.167 184.811 113.453C184.432 112.739 184.273 111.929 184.354 111.125C184.436 110.321 184.754 109.559 185.269 108.936C185.784 108.313 186.473 107.857 187.247 107.626C188.022 107.394 188.847 107.398 189.62 107.636C190.651 107.954 191.515 108.668 192.021 109.621C192.528 110.575 192.636 111.69 192.323 112.722Z" fill="#A95254"/>
<path d="M160.962 96.5344C160.635 97.609 159.998 98.5627 159.129 99.2745C158.261 99.9864 157.2 100.424 156.082 100.533C154.965 100.642 153.84 100.416 152.85 99.8851C151.861 99.3539 151.051 98.5409 150.524 97.5492C149.997 96.5576 149.776 95.4318 149.89 94.3145C150.003 93.1972 150.446 92.1387 151.161 91.2731C151.877 90.4075 152.833 89.7737 153.909 89.452C154.985 89.1304 156.132 89.1354 157.205 89.4664C157.917 89.6829 158.578 90.0375 159.152 90.5102C159.726 90.9828 160.201 91.5641 160.55 92.2207C160.899 92.8773 161.115 93.5963 161.186 94.3365C161.256 95.0768 161.18 95.8237 160.962 96.5344Z" fill="#A95254"/>
<path d="M219.569 100.986C219.078 102.618 218.113 104.067 216.797 105.149C215.481 106.231 213.873 106.898 212.177 107.064C210.481 107.23 208.774 106.889 207.273 106.083C205.772 105.277 204.544 104.042 203.745 102.537C202.947 101.032 202.614 99.3231 202.789 97.6281C202.964 95.9331 203.639 94.3284 204.727 93.0177C205.816 91.7071 207.27 90.7496 208.904 90.2671C210.539 89.7845 212.279 89.7986 213.906 90.3075C216.065 90.9834 217.871 92.4838 218.932 94.483C219.992 96.4822 220.221 98.8189 219.569 100.986Z" fill="#A95254"/>
<path d="M115.76 20.4812C121.597 7.25835 110.972 -10.2406 92.028 -18.6038C73.084 -26.9671 52.9946 -23.0276 47.1571 -9.80473C41.3196 3.41811 51.9446 20.9171 70.8886 29.2803C89.8327 37.6435 109.922 33.704 115.76 20.4812Z" fill="#F6E6CA"/>
<path d="M70.9193 29.306C80.0639 33.5826 90.3645 34.7204 100.222 32.5426C104.042 23.8698 92.3707 11.8751 80.8495 6.79093C69.3283 1.70677 52.4535 1.50769 48.7569 9.82031C53.7928 18.5823 61.5847 25.4332 70.9193 29.306Z" fill="#BBB0A1"/>
<path d="M91.5502 5.09304L74.3898 -2.48279L53.8839 43.9664L71.0443 51.5423L91.5502 5.09304Z" fill="#F6E6CA"/>
<path d="M194.831 15.8755C196.834 15.9629 198.529 14.4096 198.617 12.406C198.704 10.4023 197.151 8.70718 195.147 8.6197C193.144 8.53222 191.448 10.0855 191.361 12.0892C191.274 14.0928 192.827 15.788 194.831 15.8755Z" fill="#845C33"/>
<path d="M224.233 142.936C224.282 143.658 224.117 144.378 223.756 145.005C223.396 145.632 222.858 146.139 222.21 146.46C221.562 146.781 220.833 146.902 220.115 146.808C219.398 146.715 218.725 146.41 218.181 145.933C217.637 145.456 217.247 144.829 217.06 144.13C216.873 143.431 216.898 142.693 217.131 142.008C217.364 141.323 217.796 140.723 218.37 140.284C218.945 139.845 219.637 139.586 220.359 139.541C221.322 139.48 222.271 139.803 222.996 140.439C223.722 141.075 224.167 141.973 224.233 142.936Z" fill="#845C33"/>
<path d="M238.953 170.313C239.03 171.42 238.777 172.525 238.225 173.488C237.674 174.451 236.849 175.229 235.855 175.723C234.861 176.217 233.743 176.405 232.642 176.263C231.541 176.122 230.507 175.656 229.671 174.927C228.835 174.197 228.234 173.235 227.944 172.164C227.655 171.092 227.69 169.959 228.045 168.908C228.4 167.856 229.059 166.933 229.939 166.256C230.818 165.58 231.879 165.179 232.986 165.105C234.468 165.007 235.928 165.5 237.046 166.476C238.165 167.452 238.85 168.832 238.953 170.313Z" fill="#3F363F"/>
<path d="M43.9041 82.5409C43.9767 83.6476 43.7196 84.751 43.1652 85.7115C42.6108 86.6721 41.784 87.4467 40.7894 87.9374C39.7948 88.4281 38.677 88.6129 37.5774 88.4684C36.4778 88.3239 35.4456 87.8567 34.6116 87.1257C33.7775 86.3947 33.1789 85.4328 32.8915 84.3616C32.604 83.2904 32.6407 82.158 32.9967 81.1077C33.3528 80.0573 34.0123 79.1361 34.8918 78.4605C35.7714 77.7849 36.8315 77.3853 37.9382 77.3122C38.6733 77.2636 39.4107 77.3603 40.1084 77.5969C40.8061 77.8334 41.4504 78.205 42.0044 78.6906C42.5584 79.1761 43.0113 79.7661 43.3373 80.4267C43.6633 81.0874 43.8559 81.8058 43.9041 82.5409Z" fill="#3F363F"/>
<path d="M168.769 142.837C168.825 143.615 168.648 144.393 168.261 145.07C167.874 145.748 167.294 146.295 166.595 146.642C165.896 146.989 165.109 147.12 164.336 147.018C163.562 146.917 162.836 146.587 162.25 146.072C161.664 145.557 161.245 144.879 161.045 144.124C160.846 143.37 160.875 142.573 161.13 141.835C161.385 141.098 161.854 140.453 162.476 139.982C163.099 139.512 163.847 139.237 164.626 139.193C165.658 139.13 166.673 139.478 167.45 140.16C168.226 140.843 168.7 141.806 168.769 142.837Z" fill="#845C33"/>
<path d="M145.374 146.655C145.418 147.317 145.264 147.976 144.933 148.551C144.602 149.125 144.108 149.588 143.513 149.882C142.918 150.175 142.25 150.286 141.593 150.2C140.935 150.113 140.318 149.834 139.82 149.397C139.321 148.96 138.963 148.384 138.791 147.744C138.62 147.103 138.642 146.426 138.855 145.799C139.068 145.171 139.463 144.62 139.989 144.216C140.515 143.813 141.149 143.574 141.811 143.531C142.698 143.473 143.571 143.77 144.239 144.356C144.907 144.941 145.315 145.768 145.374 146.655Z" fill="#845C33"/>
<path d="M131.079 37.6108C131.131 38.3886 130.95 39.1642 130.56 39.8392C130.17 40.5142 129.588 41.0579 128.889 41.4015C128.189 41.745 127.403 41.8729 126.63 41.7687C125.858 41.6645 125.134 41.3331 124.55 40.8165C123.966 40.2999 123.549 39.6214 123.352 38.8672C123.154 38.1131 123.186 37.3173 123.441 36.581C123.697 35.8446 124.166 35.201 124.789 34.7317C125.411 34.2625 126.159 33.9889 126.938 33.9457C127.973 33.8825 128.991 34.2332 129.767 34.9205C130.544 35.6079 131.016 36.5756 131.079 37.6108Z" fill="#845C33"/>
<path d="M109.712 37.3445C109.763 38.0854 109.517 38.816 109.028 39.3755C108.54 39.935 107.85 40.2776 107.109 40.328C106.368 40.3783 105.637 40.1323 105.078 39.644C104.518 39.1558 104.176 38.4652 104.125 37.7243C104.075 36.9834 104.321 36.2529 104.809 35.6934C105.297 35.1339 105.988 34.7913 106.729 34.7409C107.47 34.6906 108.2 34.9366 108.76 35.4248C109.319 35.9131 109.662 36.6036 109.712 37.3445Z" fill="#845C33"/>
<path d="M117.96 51.3835C117.996 51.9342 117.869 52.4833 117.593 52.9614C117.317 53.4396 116.906 53.8253 116.412 54.07C115.917 54.3147 115.361 54.4074 114.813 54.3364C114.266 54.2653 113.752 54.0338 113.336 53.6709C112.921 53.308 112.621 52.83 112.477 52.2974C112.333 51.7647 112.349 51.2012 112.525 50.678C112.7 50.1547 113.027 49.6952 113.463 49.3574C113.9 49.0195 114.426 48.8186 114.977 48.7799C115.344 48.7541 115.712 48.801 116.061 48.918C116.41 49.035 116.732 49.2198 117.01 49.4617C117.287 49.7037 117.514 49.998 117.677 50.3278C117.84 50.6576 117.936 51.0163 117.96 51.3835Z" fill="#845C33"/>
<path d="M120.879 82.0733C120.959 83.2377 120.69 84.3994 120.108 85.411C119.526 86.4226 118.657 87.2384 117.61 87.7548C116.563 88.2711 115.387 88.4648 114.23 88.3111C113.073 88.1574 111.988 87.6634 111.112 86.8917C110.237 86.12 109.61 85.1055 109.313 83.9771C109.015 82.8486 109.059 81.6571 109.44 80.5539C109.821 79.4506 110.521 78.4855 111.451 77.781C112.382 77.0765 113.501 76.6645 114.666 76.5972C116.214 76.5078 117.735 77.0328 118.898 78.0581C120.061 79.0834 120.773 80.5262 120.879 82.0733Z" fill="#3F363F"/>
<path d="M95.396 71.1532C95.4498 71.8754 95.2879 72.5973 94.9306 73.2272C94.5733 73.8571 94.0368 74.3665 93.3893 74.6908C92.7419 75.0152 92.0126 75.1398 91.2942 75.0488C90.5758 74.9578 89.9007 74.6553 89.3546 74.1797C88.8084 73.7042 88.416 73.077 88.227 72.378C88.0381 71.6789 88.0612 70.9394 88.2934 70.2535C88.5256 69.5676 88.9564 68.9662 89.5312 68.5257C90.1059 68.0852 90.7987 67.8254 91.5214 67.7794C92.4813 67.7184 93.4266 68.0384 94.152 68.6701C94.8775 69.3017 95.3244 70.194 95.396 71.1532Z" fill="#3F363F"/>
</g>
<defs>
<filter id="filter0_d_43:2195" x="-151.877" y="-147.087" width="490.466" height="379.542" filterUnits="userSpaceOnUse" color-interpolation-filters="sRGB">
<feFlood flood-opacity="0" result="BackgroundImageFix"/>
<feColorMatrix in="SourceAlpha" type="matrix" values="0 0 0 0 0 0 0 0 0 0 0 0 0 0 0 0 0 0 127 0" result="hardAlpha"/>
<feOffset dy="4"/>
<feGaussianBlur stdDeviation="4"/>
<feComposite in2="hardAlpha" operator="out"/>
<feColorMatrix type="matrix" values="0 0 0 0 0 0 0 0 0 0 0 0 0 0 0 0 0 0 0.15 0"/>
<feBlend mode="normal" in2="BackgroundImageFix" result="effect1_dropShadow_43:2195"/>
<feBlend mode="normal" in="SourceGraphic" in2="effect1_dropShadow_43:2195" result="shape"/>
</filter>
<clipPath id="clip0_43:2195">
<rect width="474.63" height="362.209" fill="white" transform="translate(-133.899 -161.312) rotate(2.5)"/>
</clipPath>
</defs>
</svg>
