<svg width="308" height="223" viewBox="0 0 308 223" fill="none" xmlns="http://www.w3.org/2000/svg">
<g clip-path="url(#clip0_43:2252)">
<g filter="url(#filter0_d_43:2252)">
<path d="M-129.265 70.7768L308.369 218.21C308.369 218.21 373.086 55.8078 285.021 -134.266L-129.265 70.7768Z" fill="#A7423C"/>
</g>
<path d="M240.706 -112.334C302.784 32.3134 271.463 164.232 260.134 201.962L308.369 218.21C308.369 218.21 373.086 55.8078 285.021 -134.266L240.706 -112.334Z" fill="#DDB56C"/>
<path d="M-129.265 70.7766L227.965 191.407C233.947 191.001 253.859 187.994 259.124 177.05C265.616 163.429 247.441 155.107 236.944 144.822C224.112 132.265 227.503 114.525 253.464 104.505C270.218 98.1077 278.11 75.1186 260.344 61.209C242.579 47.2993 226.565 33.3536 235.812 15.1242C245.059 -3.10513 258.917 -4.3929 258.292 -18.598C257.668 -32.8031 246.497 -36.6021 233.041 -44.2775C214.177 -54.9896 202.943 -68.5603 220.573 -84.4458C230.775 -93.6612 231.537 -101.898 228.828 -106.438L-129.265 70.7766Z" fill="#E7B72B"/>
<path d="M249.407 -116.64L240.706 -112.397C302.784 32.2507 271.462 164.17 260.133 201.899L271.408 205.697C279.742 173.745 314.74 18.561 249.407 -116.64Z" fill="#C29D50"/>
<path d="M279.76 206.833C279.76 206.833 329.16 41.043 257.687 -119.025C257.687 -119.025 341.439 14.1816 279.76 206.833Z" fill="#F2D19A"/>
<path d="M40.0884 116.577L-6.53434 60.496L-57.493 95.4669L38.2023 127.491L40.0884 116.577Z" fill="#E3C444"/>
<path d="M91.6386 127.879C93.3429 131.355 96.0409 134.248 99.3913 136.191C102.742 138.135 106.594 139.042 110.46 138.798C114.327 138.553 118.034 137.169 121.113 134.819C124.192 132.469 126.503 129.26 127.756 125.597C129.009 121.934 129.146 117.983 128.15 114.242C127.154 110.502 125.07 107.14 122.161 104.583C119.253 102.026 115.65 100.389 111.81 99.8781C107.97 99.3673 104.064 100.006 100.587 101.713C98.2789 102.844 96.2166 104.417 94.5177 106.344C92.8188 108.271 91.5166 110.514 90.6856 112.944C89.8546 115.374 89.511 117.943 89.6745 120.506C89.838 123.069 90.5054 125.574 91.6386 127.879ZM121.896 113.029C123.141 115.538 123.612 118.359 123.248 121.135C122.885 123.911 121.705 126.517 119.856 128.622C118.008 130.726 115.575 132.234 112.867 132.955C110.159 133.676 107.298 133.576 104.647 132.669C101.996 131.762 99.674 130.089 97.9767 127.861C96.2794 125.633 95.2829 122.952 95.1139 120.157C94.9448 117.362 95.6109 114.58 97.0274 112.164C98.4439 109.749 100.547 107.808 103.07 106.588C106.424 104.967 110.284 104.734 113.809 105.94C117.334 107.146 120.241 109.694 121.896 113.029Z" fill="#3A3930"/>
<path d="M39.9277 68.5466C59.2103 59.0837 67.0842 35.6333 57.5144 16.1685C47.9447 -3.29631 24.5552 -11.4045 5.27251 -1.94164C-14.0101 7.52121 -21.884 30.9717 -12.3143 50.4365C-2.74451 69.9013 20.645 78.0094 39.9277 68.5466Z" fill="#95322C"/>
<path d="M3.45479 48.5592C4.38976 48.0974 5.44085 47.9232 6.47497 48.0585C7.50909 48.1939 8.47973 48.6327 9.26408 49.3195C10.0484 50.0063 10.6112 50.9101 10.8812 51.9166C11.1511 52.9231 11.1161 53.9869 10.7805 54.9735C10.4449 55.9601 9.82393 56.8251 8.9961 57.4589C8.16827 58.0927 7.17085 58.4669 6.13006 58.5341C5.08927 58.6013 4.05196 58.3584 3.14939 57.8363C2.24681 57.3142 1.51957 56.5363 1.05974 55.6011C0.448688 54.349 0.357533 52.9064 0.806123 51.5875C1.25471 50.2686 2.20669 49.1801 3.45479 48.5592Z" fill="#C46B55"/>
<path d="M28.1339 20.6481C29.3571 20.0492 30.7306 19.8261 32.0806 20.0071C33.4307 20.1881 34.6967 20.7649 35.7186 21.6647C36.7405 22.5645 37.4723 23.7468 37.8217 25.0622C38.171 26.3776 38.1221 27.7669 37.6811 29.0545C37.2401 30.3421 36.4268 31.4702 35.3442 32.2961C34.2615 33.1219 32.958 33.6085 31.5986 33.6942C30.2391 33.78 28.8848 33.4611 27.7067 32.7778C26.5287 32.0946 25.5799 31.0777 24.9804 29.8557C24.5822 29.0443 24.348 28.1624 24.291 27.2606C24.234 26.3587 24.3554 25.4544 24.6483 24.5993C24.9411 23.7443 25.3996 22.9553 25.9977 22.2773C26.5958 21.5994 27.3217 21.0457 28.1339 20.6481Z" fill="#C46B55"/>
<path d="M26.693 44.3798C28.3491 43.5661 30.2096 43.2614 32.039 43.5044C33.8684 43.7474 35.5846 44.527 36.9704 45.7448C38.3561 46.9625 39.3492 48.5635 39.8239 50.3453C40.2986 52.127 40.2337 54.0094 39.6373 55.7543C39.0409 57.4992 37.9398 59.0281 36.4734 60.1476C35.007 61.2672 33.2412 61.927 31.3994 62.0436C29.5575 62.1602 27.7225 61.7284 26.1264 60.8028C24.5303 59.8771 23.2449 58.4992 22.4329 56.8435C21.3453 54.626 21.1831 52.068 21.9819 49.7311C22.7806 47.3942 24.475 45.4695 26.693 44.3798Z" fill="#C46B55"/>
<path d="M8.91856 20.8157C9.27954 20.6486 9.69095 20.6261 10.068 20.7528C10.4451 20.8795 10.7592 21.1459 10.9457 21.4971C11.0903 21.6785 11.1924 21.89 11.2445 22.1161C11.2965 22.3421 11.2973 22.5769 11.2466 22.8033C11.196 23.0296 11.0952 23.2418 10.9518 23.4242C10.8083 23.6065 10.6258 23.7545 10.4176 23.8572C10.2095 23.9599 9.98094 24.0147 9.74879 24.0176C9.51665 24.0205 9.28678 23.9714 9.07611 23.874C8.86543 23.7765 8.67932 23.6332 8.53135 23.4545C8.38338 23.2758 8.27735 23.0662 8.22105 22.8411C8.0549 22.4786 8.03461 22.0662 8.16445 21.6891C8.2943 21.3121 8.56431 20.9994 8.91856 20.8157Z" fill="#A95254"/>
<path d="M45.8597 24.3767C46.2242 24.206 46.6409 24.1832 47.0219 24.3131C47.4029 24.4431 47.7186 24.7156 47.9025 25.0734C47.9886 25.4175 47.9542 25.7808 47.8051 26.1027C47.6559 26.4246 47.4009 26.6858 47.0825 26.8428C46.7642 26.9999 46.4016 27.0433 46.0551 26.9659C45.7086 26.8886 45.399 26.695 45.1779 26.4175C45.0059 26.0552 44.9808 25.6405 45.1079 25.2601C45.2349 24.8797 45.5043 24.5632 45.8597 24.3767Z" fill="#C46B55"/>
<path d="M12.4368 35.5882C12.9883 35.3038 13.6123 35.1907 14.2286 35.2636C14.845 35.3364 15.4254 35.5919 15.8952 35.9971C16.365 36.4023 16.7026 36.9387 16.8647 37.5373C17.0268 38.1358 17.0059 38.7691 16.8047 39.3557C16.6034 39.9422 16.2311 40.4552 15.7356 40.8286C15.2401 41.202 14.6441 41.4188 14.0243 41.4509C13.4045 41.483 12.7893 41.3291 12.2578 41.009C11.7262 40.6889 11.3028 40.2172 11.0419 39.6546C10.7049 38.9279 10.6618 38.0991 10.9217 37.3414C11.1817 36.5838 11.7244 35.9557 12.4368 35.5882Z" fill="#C46B55"/>
<path d="M-1.68166 8.69931C-1.13 8.41333 -0.505201 8.29906 0.112082 8.37127C0.729366 8.44348 1.31082 8.69883 1.78142 9.10439C2.25203 9.50996 2.59016 10.0471 2.75223 10.6465C2.9143 11.246 2.89284 11.8802 2.69064 12.4673C2.48844 13.0545 2.11478 13.5676 1.61785 13.9405C1.12091 14.3135 0.523507 14.5291 -0.0972482 14.5595C-0.718003 14.5899 -1.33361 14.4338 -1.86469 14.1113C-2.39577 13.7887 -2.81796 13.3146 -3.07671 12.7501C-3.40902 12.025 -3.4495 11.2001 -3.18982 10.4461C-2.93013 9.69201 -2.39015 9.06659 -1.68166 8.69931Z" fill="#A95254"/>
<path d="M-3.35542 27.1361C-2.5819 26.7597 -1.7141 26.6208 -0.861592 26.7368C-0.00908337 26.8528 0.789889 27.2187 1.43442 27.7881C2.07894 28.3575 2.54014 29.105 2.75973 29.9361C2.97932 30.7672 2.94746 31.6447 2.66819 32.4578C2.38892 33.2708 1.87476 33.9829 1.19064 34.5042C0.506524 35.0255 -0.316873 35.3326 -1.17556 35.3867C-2.03424 35.4407 -2.88973 35.2393 -3.63393 34.808C-4.37813 34.3766 -4.97766 33.7346 -5.35687 32.963C-5.86252 31.9248 -5.93581 30.7287 -5.56069 29.6366C-5.18558 28.5445 -4.3926 27.6454 -3.35542 27.1361Z" fill="#A95254"/>
<path d="M37.7245 9.69115C38.2773 9.42711 38.8958 9.33213 39.5024 9.41809C40.109 9.50405 40.6767 9.76715 41.1342 10.1743C41.5916 10.5815 41.9185 11.1147 42.0737 11.7068C42.2289 12.299 42.2056 12.9237 42.0066 13.5027C41.8076 14.0816 41.4418 14.5889 40.9553 14.9609C40.4687 15.3329 39.8829 15.553 39.2716 15.5935C38.6602 15.634 38.0505 15.4932 37.519 15.1888C36.9875 14.8843 36.5579 14.4297 36.284 13.8821C36.0995 13.5131 35.9905 13.1111 35.9631 12.6995C35.9358 12.2879 35.9908 11.8751 36.1249 11.485C36.259 11.0948 36.4694 10.7353 36.7441 10.4273C37.0187 10.1193 37.352 9.86907 37.7245 9.69115Z" fill="#A95254"/>
<path d="M45.1509 35.7844C45.9235 35.4053 46.7912 35.2636 47.6443 35.3772C48.4975 35.4907 49.2978 35.8543 49.9442 36.4221C50.5905 36.9899 51.0539 37.7364 51.2757 38.5672C51.4975 39.3981 51.4679 40.276 51.1904 41.09C50.913 41.904 50.4002 42.6176 49.717 43.1406C49.0338 43.6635 48.2107 43.9724 47.3519 44.0282C46.493 44.084 45.6368 43.8841 44.8916 43.4539C44.1464 43.0236 43.5455 42.3824 43.165 41.6111C42.6583 40.5748 42.5828 39.3803 42.9549 38.2885C43.327 37.1967 44.1165 36.2964 45.1509 35.7844Z" fill="#C46B55"/>
<path d="M16.7644 0.554032C17.9361 -0.0177657 19.2512 -0.229505 20.5434 -0.0544267C21.8356 0.120651 23.0468 0.67467 24.0237 1.53759C25.0007 2.40051 25.6995 3.53354 26.0318 4.79333C26.3641 6.05313 26.3149 7.38308 25.8905 8.61497C25.4661 9.84685 24.6855 10.9253 23.6475 11.7139C22.6095 12.5025 21.3607 12.9658 20.0591 13.0452C18.7575 13.1246 17.4616 12.8166 16.3353 12.1601C15.209 11.5035 14.3029 10.5279 13.7317 9.35676C12.9663 7.78754 12.8558 5.97891 13.4244 4.3283C13.9931 2.6777 15.1944 1.32018 16.7644 0.554032Z" fill="#A95254"/>
<path d="M38.9899 108.687C38.7775 111.818 39.4804 114.944 41.0107 117.672C42.541 120.4 44.8305 122.609 47.5924 124.022C50.3543 125.436 53.4658 125.991 56.5369 125.618C59.6079 125.245 62.502 123.961 64.8564 121.926C68.1405 122.351 71.4724 121.711 74.3767 120.1C77.2811 118.489 79.6096 115.988 81.0299 112.954C82.4502 109.92 82.8899 106.508 82.2861 103.205C81.6823 99.9025 80.066 96.8772 77.6677 94.5611C77.882 91.4084 77.1681 88.262 75.6168 85.5214C74.0655 82.7807 71.7466 80.5695 68.9547 79.1683C66.1627 77.7672 63.0237 77.2395 59.936 77.6521C56.8484 78.0646 53.9515 79.399 51.6131 81.4857C48.3755 81.1437 45.1134 81.8303 42.2775 83.4507C39.4416 85.0711 37.1718 87.5452 35.7817 90.5314C34.3916 93.5175 33.9498 96.8682 34.5173 100.121C35.0849 103.373 36.6338 106.367 38.95 108.688L38.9899 108.687ZM52.7503 84.8976C54.6959 83.175 57.101 82.0761 59.662 81.7394C62.2229 81.4028 64.825 81.8435 67.1397 83.0061C69.4544 84.1686 71.3779 86.0009 72.6675 88.2715C73.9572 90.5421 74.5551 93.1493 74.3858 95.7641C76.3744 97.6882 77.7152 100.199 78.2174 102.94C78.7197 105.681 78.3579 108.513 77.1835 111.033C76.0091 113.553 74.0818 115.633 71.6755 116.978C69.2692 118.323 66.5062 118.864 63.7792 118.524C61.8208 120.214 59.4146 121.28 56.8618 121.589C54.3089 121.897 51.7229 121.435 49.4272 120.26C47.1315 119.085 45.2283 117.249 43.9556 114.982C42.6829 112.715 42.0973 110.117 42.2722 107.515C40.3491 105.584 39.0637 103.095 38.5933 100.392C38.1228 97.6889 38.4906 94.9044 39.6458 92.4227C40.801 89.941 42.6866 87.8844 45.0428 86.5364C47.3989 85.1885 50.1093 84.6158 52.8002 84.8972L52.7503 84.8976Z" fill="#DB713F"/>
<path d="M36.5834 109.544C36.3078 113.086 37.1056 116.63 38.8755 119.724C40.6453 122.817 43.3074 125.323 46.5238 126.921C49.7401 128.519 53.3657 129.139 56.9401 128.701C60.5145 128.262 63.8765 126.786 66.5994 124.46C70.4179 124.971 74.3025 124.271 77.6921 122.462C81.0816 120.653 83.8006 117.827 85.4562 114.394C87.1119 110.961 87.6185 107.098 86.9029 103.363C86.1872 99.6284 84.2864 96.2148 81.475 93.6156C81.7362 90.0635 80.9188 86.5153 79.1271 83.4238C77.3355 80.3322 74.6507 77.8374 71.4153 76.2575C68.18 74.6776 64.5406 74.0842 60.9614 74.5531C57.3822 75.0219 54.0255 76.5317 51.3194 78.89C47.559 78.4834 43.7635 79.2445 40.4621 81.0671C37.1606 82.8898 34.5179 85.6831 32.9023 89.0577C31.2868 92.4322 30.7789 96.2197 31.4497 99.892C32.1204 103.564 33.9362 106.938 36.6439 109.543L36.5834 109.544ZM52.5847 82.7332C54.8404 80.7881 57.63 79.5463 60.6009 79.1652C63.5717 78.784 66.5902 79.2805 69.2745 80.5919C71.9588 81.9033 74.1883 83.9706 75.681 86.5323C77.1737 89.0941 77.8625 92.0351 77.6604 94.9835C79.9724 97.1529 81.5304 99.9874 82.112 103.083C82.6935 106.178 82.269 109.375 80.8989 112.219C79.5287 115.062 77.2831 117.406 74.4825 118.916C71.6819 120.426 68.4695 121.025 65.3038 120.627C63.0339 122.534 60.2442 123.738 57.2841 124.088C54.324 124.437 51.3253 123.918 48.6637 122.593C46.0022 121.269 43.7963 119.2 42.3224 116.644C40.8485 114.088 40.1722 111.16 40.3783 108.226C38.1452 106.053 36.6519 103.248 36.1046 100.201C35.5574 97.1535 35.9832 94.0134 37.3233 91.2146C38.6634 88.4158 40.8516 86.0965 43.5855 84.5772C46.3194 83.0579 49.4639 82.4135 52.5847 82.7332Z" fill="#D7423C"/>
<path d="M25.0144 21.5479C25.2515 13.0611 23.5741 4.62977 20.1065 -3.12137L13.3783 0.208699C18.4766 11.8314 18.8984 24.9695 14.5562 36.895C10.2141 48.8204 1.44154 58.617 -9.93993 64.2508C-21.3214 69.8845 -34.4374 70.9224 -46.5645 67.1491C-58.6917 63.3757 -68.8982 55.081 -75.065 43.9872L-81.7725 47.3171C-75.785 58.3106 -66.3332 67.0223 -54.8835 72.1005C-43.4338 77.1786 -30.6265 78.3393 -18.4489 75.4024C-6.27138 72.4654 4.59552 65.5951 12.4656 55.8574C20.3356 46.1198 24.7687 34.0593 25.077 21.5474L25.0144 21.5479Z" fill="#E7E1DA"/>
<path d="M0.657383 17.0723C0.733574 13.6479 0.480191 10.2241 -0.099249 6.84817L-6.72379 10.1148C-5.54595 19.6454 -7.36089 29.3062 -11.9177 37.7615C-16.4745 46.2168 -23.5479 53.0489 -32.1602 57.3133C-40.7724 61.5776 -50.498 63.0634 -59.9922 61.5654C-69.4863 60.0674 -78.2801 55.6594 -85.1577 48.9511L-91.8029 52.2388C-84.5575 59.9874 -75.1664 65.4046 -64.8269 67.7996C-54.4875 70.1946 -43.6684 69.4588 -33.7491 65.6861C-23.8298 61.9134 -15.2598 55.2747 -9.13202 46.6166C-3.00421 37.9584 0.403782 27.6732 0.657383 17.0723Z" fill="#E7E1DA"/>
<path d="M187.199 63.2226C193.913 64.6043 200.238 67.4557 205.717 71.5717C211.196 75.6877 215.693 80.9659 218.886 87.0266C222.079 93.0873 223.887 99.7797 224.181 106.622C224.474 113.465 223.246 120.287 220.585 126.599C217.923 132.911 213.895 138.554 208.788 143.124C203.682 147.694 197.626 151.076 191.054 153.027C184.483 154.978 177.561 155.45 170.786 154.408C164.01 153.366 157.55 150.837 151.87 147.002L148.169 152.994C154.694 157.409 162.116 160.327 169.903 161.539C177.69 162.751 185.649 162.227 193.21 160.004C200.771 157.782 207.745 153.916 213.635 148.684C219.524 143.451 224.182 136.982 227.274 129.74C230.367 122.498 231.818 114.662 231.523 106.794C231.227 98.9258 229.194 91.2203 225.567 84.2297C221.941 77.2392 216.811 71.1367 210.547 66.3597C204.282 61.5827 197.037 58.2494 189.331 56.5988L187.199 63.2226Z" fill="#E7E1DA"/>
<path d="M98.1769 69.3127C98.1769 69.3127 125.031 68.3282 135.515 46.0666C145.999 23.805 141.831 12.2562 141.831 12.2562C131.191 15.2018 121.197 20.1087 112.363 26.724C99.0023 37.238 94.9268 57.7559 98.1769 69.3127Z" fill="#94A92A"/>
<path opacity="0.1" d="M98.1767 69.3127L141.831 12.298C131.211 15.2601 121.233 20.1656 112.405 26.7653C99.0022 37.238 94.9266 57.756 98.1767 69.3127Z" fill="black"/>
<path d="M99.158 69.4293C99.158 69.4293 111.979 54.4818 105.138 37.7473C98.2975 21.0127 90.0498 17.5216 90.0498 17.5216C86.3545 24.6902 84.0251 32.4826 83.1801 40.5017C82.2465 53.0118 91.302 65.4139 99.158 69.4293Z" fill="#94A92A"/>
<path opacity="0.1" d="M99.158 69.4294L90.1125 17.5419C86.4255 24.7123 84.1032 32.5044 83.2638 40.5219C82.2466 53.0119 91.302 65.414 99.158 69.4294Z" fill="black"/>
<path d="M193.064 147.372C193.064 147.372 195.32 166.918 212.311 173.291C229.302 179.665 237.361 175.865 237.361 175.865C234.568 168.247 230.376 161.217 225 155.136C216.598 145.958 201.338 144.299 193.064 147.372Z" fill="#94A92A"/>
<path opacity="0.1" d="M193.064 147.372L237.423 175.823C234.613 168.244 230.423 161.251 225.063 155.198C216.598 145.958 201.338 144.299 193.064 147.372Z" fill="black"/>
<path d="M191.208 -17.4916C191.208 -17.4916 171.953 -13.323 167.225 4.09598C162.496 21.5149 167.028 29.3308 167.028 29.3308C174.334 25.8313 180.92 20.9964 186.445 15.0758C194.769 5.79342 195.053 -9.54474 191.208 -17.4916Z" fill="#94A92A"/>
<path opacity="0.1" d="M191.208 -17.4915L167.049 29.3099C174.347 25.8162 180.926 20.9883 186.445 15.0759C194.769 5.79353 195.053 -9.54463 191.208 -17.4915Z" fill="black"/>
<path d="M67.2592 89.7733C67.2592 89.7733 50.1962 79.8998 34.9726 89.5967C19.749 99.2935 17.8241 108.145 17.8241 108.145C25.586 110.466 33.7131 111.321 41.7887 110.665C54.2075 109.369 64.7884 98.2128 67.2592 89.7733Z" fill="#94A92A"/>
<path opacity="0.1" d="M67.2592 89.7732L17.8654 108.103C25.6116 110.431 33.7264 111.286 41.7884 110.624C54.2076 109.369 64.7884 98.2127 67.2592 89.7732Z" fill="black"/>
<path d="M203.776 135.273C229.642 122.579 240.204 91.1222 227.367 65.0118C214.53 38.9013 183.155 28.0248 157.288 40.7185C131.422 53.4122 120.86 84.8691 133.697 110.98C146.534 137.09 177.909 147.967 203.776 135.273Z" fill="#95322C"/>
<path d="M154.912 108.366C156.167 107.75 157.578 107.52 158.964 107.705C160.35 107.889 161.65 108.481 162.7 109.404C163.75 110.328 164.502 111.542 164.861 112.892C165.22 114.243 165.17 115.669 164.718 116.991C164.265 118.313 163.43 119.472 162.318 120.32C161.207 121.168 159.868 121.667 158.472 121.755C157.076 121.843 155.686 121.515 154.477 120.813C153.267 120.111 152.293 119.067 151.678 117.812C150.854 116.131 150.732 114.191 151.339 112.42C151.945 110.649 153.23 109.191 154.912 108.366Z" fill="#C46B55"/>
<path d="M187.997 70.9668C189.638 70.1634 191.48 69.8642 193.291 70.107C195.102 70.3497 196.8 71.1234 198.171 72.3305C199.542 73.5375 200.524 75.1235 200.992 76.888C201.461 78.6525 201.395 80.5161 200.804 82.2433C200.212 83.9706 199.121 85.4838 197.669 86.5916C196.216 87.6994 194.468 88.3521 192.644 88.4671C190.821 88.5822 189.004 88.1543 187.424 87.2378C185.843 86.3213 184.571 84.9572 183.767 83.3181C183.232 82.2296 182.918 81.0467 182.842 79.8368C182.765 78.627 182.928 77.414 183.321 76.2671C183.714 75.1201 184.329 74.0617 185.131 73.1522C185.934 72.2428 186.907 71.5002 187.997 70.9668Z" fill="#C46B55"/>
<path d="M186.064 102.76C188.285 101.668 190.781 101.259 193.235 101.585C195.689 101.911 197.991 102.957 199.85 104.591C201.709 106.224 203.041 108.372 203.678 110.762C204.314 113.152 204.227 115.677 203.427 118.018C202.627 120.358 201.15 122.409 199.183 123.911C197.216 125.413 194.847 126.298 192.377 126.454C189.906 126.611 187.445 126.031 185.303 124.79C183.162 123.548 181.438 121.7 180.349 119.479C178.89 116.504 178.672 113.073 179.744 109.938C180.815 106.803 183.088 104.221 186.064 102.76Z" fill="#C46B55"/>
<path d="M162.221 71.1919C162.591 71.0022 163.009 70.9271 163.421 70.9764C163.834 71.0258 164.223 71.1972 164.537 71.4687C164.852 71.7403 165.078 72.0995 165.187 72.5003C165.295 72.9012 165.282 73.3253 165.147 73.7184C165.013 74.1114 164.764 74.4554 164.433 74.7061C164.102 74.9569 163.703 75.103 163.288 75.1257C162.873 75.1484 162.46 75.0467 162.103 74.8336C161.747 74.6204 161.462 74.3057 161.285 73.9297C161.056 73.4411 161.026 72.8828 161.2 72.3721C161.374 71.8615 161.74 71.4385 162.221 71.1919Z" fill="#C46B55"/>
<path d="M211.795 75.9266C212.165 75.7348 212.584 75.6581 212.998 75.7066C213.412 75.755 213.802 75.9263 214.118 76.1983C214.433 76.4703 214.66 76.8306 214.769 77.2327C214.878 77.6347 214.863 78.06 214.727 78.4538C214.592 78.8477 214.341 79.1918 214.008 79.4419C213.675 79.692 213.274 79.8367 212.858 79.8571C212.441 79.8775 212.028 79.7728 211.672 79.5565C211.316 79.3402 211.033 79.0222 210.859 78.6435C210.636 78.1572 210.609 77.6039 210.783 77.0982C210.958 76.5924 211.32 76.1729 211.795 75.9266Z" fill="#C46B55"/>
<path d="M166.919 90.9663C167.658 90.5812 168.494 90.4257 169.322 90.52C170.15 90.6143 170.93 90.9539 171.563 91.4952C172.195 92.0365 172.651 92.7547 172.872 93.5572C173.092 94.3596 173.067 95.2097 172.8 95.9978C172.532 96.786 172.035 97.4761 171.372 97.9793C170.708 98.4825 169.909 98.7758 169.077 98.8213C168.246 98.8668 167.419 98.6625 166.705 98.2347C165.991 97.8068 165.421 97.1751 165.069 96.4208C164.831 95.9416 164.689 95.4199 164.654 94.886C164.618 94.3521 164.688 93.8163 164.86 93.3095C165.032 92.8027 165.302 92.3347 165.655 91.9326C166.009 91.5305 166.438 91.2021 166.919 90.9663Z" fill="#C46B55"/>
<path d="M148.001 54.8758C148.74 54.4943 149.578 54.3426 150.404 54.4403C151.231 54.5381 152.01 54.8808 152.64 55.4244C153.27 55.9679 153.723 56.6874 153.94 57.4903C154.158 58.2932 154.13 59.1427 153.86 59.9295C153.59 60.7164 153.091 61.4045 152.426 61.9054C151.761 62.4063 150.962 62.697 150.13 62.7401C149.299 62.7832 148.474 62.5768 147.761 62.1474C147.048 61.7179 146.48 61.0851 146.13 60.3304C145.678 59.3556 145.62 58.244 145.968 57.2276C146.317 56.2112 147.045 55.3687 148.001 54.8758Z" fill="#C46B55"/>
<path d="M145.755 79.5868C146.792 79.0783 147.956 78.8882 149.1 79.0405C150.245 79.1927 151.318 79.6806 152.185 80.4422C153.052 81.2039 153.674 82.2053 153.971 83.3198C154.269 84.4343 154.229 85.6119 153.857 86.7039C153.485 87.7958 152.797 88.753 151.88 89.4545C150.964 90.156 149.86 90.5704 148.708 90.6452C147.556 90.72 146.407 90.4519 145.408 89.8748C144.408 89.2977 143.602 88.4375 143.091 87.4029C142.412 86.0127 142.31 84.4104 142.809 82.9458C143.309 81.4813 144.368 80.2736 145.755 79.5868Z" fill="#C46B55"/>
<path d="M200.861 56.1856C201.601 55.8279 202.431 55.6968 203.246 55.8087C204.06 55.9207 204.824 56.2707 205.44 56.8148C206.056 57.3589 206.497 58.0728 206.708 58.8668C206.919 59.6608 206.891 60.4994 206.626 61.2772C206.362 62.0551 205.873 62.7375 205.222 63.2387C204.57 63.7399 203.785 64.0376 202.965 64.0942C202.144 64.1509 201.325 63.964 200.611 63.5571C199.897 63.1502 199.319 62.5414 198.95 61.8073C198.702 61.3136 198.554 60.7755 198.516 60.2243C198.478 59.6731 198.55 59.1199 198.728 58.5967C198.906 58.0736 199.186 57.591 199.552 57.1771C199.918 56.7631 200.363 56.4261 200.861 56.1856Z" fill="#C46B55"/>
<path d="M210.823 91.2292C211.859 90.7208 213.023 90.5307 214.168 90.683C215.312 90.8353 216.386 91.323 217.253 92.0847C218.12 92.8464 218.742 93.8478 219.039 94.9623C219.337 96.0768 219.297 97.2544 218.925 98.3463C218.552 99.4382 217.865 100.395 216.948 101.097C216.032 101.798 214.928 102.213 213.775 102.288C212.623 102.362 211.475 102.094 210.475 101.517C209.476 100.94 208.67 100.08 208.159 99.0454C207.82 98.3575 207.619 97.6095 207.57 96.8443C207.52 96.079 207.622 95.3115 207.869 94.5855C208.117 93.8596 208.505 93.1895 209.012 92.6136C209.518 92.0377 210.134 91.5672 210.823 91.2292Z" fill="#C46B55"/>
<path d="M172.766 43.9498C174.337 43.1827 176.102 42.8987 177.835 43.1336C179.568 43.3684 181.193 44.1116 182.503 45.2692C183.814 46.4267 184.751 47.9466 185.197 49.6365C185.643 51.3264 185.577 53.1104 185.008 54.7629C184.438 56.4154 183.391 57.8621 181.999 58.9199C180.606 59.9778 178.931 60.5993 177.185 60.7058C175.439 60.8123 173.701 60.399 172.19 59.5183C170.679 58.6376 169.464 57.329 168.697 55.758C167.676 53.6521 167.531 51.2281 168.293 49.0155C169.056 46.8029 170.664 44.9817 172.766 43.9498Z" fill="#C46B55"/>
<path d="M78.2276 -1.23238C79.9337 2.24319 82.6335 5.13498 85.9853 7.07703C89.337 9.01908 93.1902 9.92411 97.057 9.67757C100.924 9.43101 104.63 8.04399 107.708 5.692C110.786 3.34002 113.096 0.128788 114.346 -3.53528C115.596 -7.19934 115.73 -11.1515 114.731 -14.8917C113.732 -18.6319 111.645 -21.9921 108.734 -24.5468C105.823 -27.1015 102.219 -28.736 98.3776 -29.2435C94.5364 -29.751 90.6308 -29.1086 87.1551 -27.3977C82.5017 -25.107 78.9481 -21.0653 77.2743 -16.1598C75.6006 -11.2542 75.9434 -5.88559 78.2276 -1.23238ZM108.485 -16.082C109.719 -13.575 110.182 -10.7586 109.814 -7.989C109.446 -5.21937 108.265 -2.62086 106.419 -0.522094C104.573 1.57667 102.145 3.08139 99.4435 3.80192C96.7416 4.52245 93.8865 4.42643 91.2392 3.52588C88.592 2.62533 86.2716 0.960762 84.5713 -1.25734C82.8709 -3.47544 81.8671 -6.14748 81.6868 -8.93556C81.5064 -11.7236 82.1576 -14.5025 83.558 -16.9209C84.9584 -19.3392 87.0452 -21.2885 89.5543 -22.522C92.9204 -24.1707 96.8035 -24.4186 100.352 -23.2114C103.901 -22.0042 106.826 -19.4404 108.485 -16.082Z" fill="#3A3930"/>
<path d="M201.941 0.729953C203.647 4.20552 206.347 7.09731 209.699 9.03935C213.051 10.9814 216.904 11.8864 220.771 11.6399C224.637 11.3933 228.344 10.0063 231.422 7.65433C234.499 5.30234 236.809 2.09112 238.059 -1.57294C239.309 -5.237 239.444 -9.1892 238.445 -12.9294C237.446 -16.6696 235.359 -20.0297 232.448 -22.5844C229.537 -25.1391 225.932 -26.7736 222.091 -27.2811C218.25 -27.7886 214.344 -27.1462 210.869 -25.4353C206.215 -23.1447 202.662 -19.103 200.988 -14.1974C199.314 -9.29186 199.657 -3.92325 201.941 0.729953ZM231.451 -13.7589C232.606 -11.3978 233.034 -8.74769 232.682 -6.14347C232.329 -3.53925 231.213 -1.09776 229.472 0.872561C227.732 2.84288 225.445 4.25362 222.903 4.92653C220.36 5.59944 217.675 5.50433 215.186 4.65323C212.698 3.80213 210.518 2.2332 208.921 0.144694C207.325 -1.94381 206.384 -4.45815 206.217 -7.08076C206.05 -9.70336 206.666 -12.3165 207.985 -14.59C209.304 -16.8636 211.268 -18.6955 213.629 -19.8543C215.199 -20.6253 216.906 -21.0792 218.653 -21.19C220.399 -21.3008 222.15 -21.0664 223.806 -20.5002C225.461 -19.934 226.988 -19.0472 228.3 -17.8904C229.612 -16.7336 230.683 -15.3297 231.451 -13.7589Z" fill="#3A3930"/>
<path d="M203.827 102.084C203.927 108.934 202.506 115.721 199.665 121.957C196.824 128.192 192.635 133.721 187.399 138.145C182.163 142.568 176.01 145.777 169.383 147.54C162.757 149.303 155.821 149.575 149.077 148.339C142.332 147.102 135.946 144.387 130.378 140.388C124.81 136.389 120.198 131.206 116.876 125.213C113.553 119.22 111.602 112.566 111.163 105.729C110.724 98.8917 111.808 92.0425 114.337 85.6743L107.664 83.3572C104.804 90.6696 103.593 98.5222 104.119 106.355C104.644 114.189 106.893 121.81 110.704 128.675C114.515 135.541 119.795 141.482 126.168 146.076C132.541 150.669 139.849 153.801 147.572 155.25C155.295 156.698 163.243 156.427 170.85 154.455C178.456 152.483 185.533 148.859 191.577 143.841C197.621 138.824 202.483 132.536 205.816 125.427C209.149 118.317 210.872 110.561 210.861 102.71L203.827 102.084Z" fill="#E7E1DA"/>
</g>
<defs>
<filter id="filter0_d_43:2252" x="-137.265" y="-138.266" width="476.554" height="368.476" filterUnits="userSpaceOnUse" color-interpolation-filters="sRGB">
<feFlood flood-opacity="0" result="BackgroundImageFix"/>
<feColorMatrix in="SourceAlpha" type="matrix" values="0 0 0 0 0 0 0 0 0 0 0 0 0 0 0 0 0 0 127 0" result="hardAlpha"/>
<feOffset dy="4"/>
<feGaussianBlur stdDeviation="4"/>
<feComposite in2="hardAlpha" operator="out"/>
<feColorMatrix type="matrix" values="0 0 0 0 0 0 0 0 0 0 0 0 0 0 0 0 0 0 0.15 0"/>
<feBlend mode="normal" in2="BackgroundImageFix" result="effect1_dropShadow_43:2252"/>
<feBlend mode="normal" in="SourceGraphic" in2="effect1_dropShadow_43:2252" result="shape"/>
</filter>
<clipPath id="clip0_43:2252">
<rect width="460.481" height="352.666" fill="white" transform="translate(-131.023 -130.635) rotate(-0.5)"/>
</clipPath>
</defs>
</svg>
