<svg width="308" height="287" viewBox="0 0 308 287" fill="none" xmlns="http://www.w3.org/2000/svg">
<g clip-path="url(#clip0_42:960)">
<g filter="url(#filter0_d_42:960)">
<path d="M-156.672 57.344L317.889 221.018C317.889 221.018 389.219 44.6851 294.887 -162.878L-156.672 57.344Z" fill="#A7423C"/>
</g>
<path d="M-156.672 57.344L230.698 191.249C237.192 190.852 255.51 182.792 261.23 170.928C268.363 156.1 266.316 138.882 254.963 127.619C241.107 113.864 228.899 99.7932 257.177 89.0759C275.436 82.1497 285.9 65.0806 266.696 49.7387C247.493 34.3969 239.515 23.6391 249.792 3.9373C260.069 -15.7645 265.757 -21.7066 265.187 -37.1726C264.617 -52.6386 252.506 -56.8609 237.835 -65.3339C217.377 -77.1165 205.282 -91.961 224.54 -109.22C235.702 -119.169 236.585 -128.131 233.668 -133.086L-156.672 57.344Z" fill="#F0C76E"/>
<path d="M246.709 -139.347C313.16 18.5734 278.222 161.966 265.653 202.975L317.957 221.008C317.957 221.008 389.286 44.675 294.954 -162.888L246.709 -139.347Z" fill="#DDB56C"/>
<path d="M256.124 -143.965L246.709 -139.347C313.16 18.5735 278.222 161.966 265.653 202.975L277.741 207.201C287.088 172.385 326.174 3.6922 256.124 -143.965Z" fill="#C29D50"/>
<path d="M286.884 208.426C286.884 208.426 341.617 28.2202 265.114 -146.524C265.114 -146.524 355.095 -0.882427 286.884 208.426Z" fill="#F2D19A"/>
<path d="M-19.9131 39.1531C-8.65871 27.2183 14.309 30.6439 31.3863 46.7851C48.4636 62.9264 53.2386 85.6771 41.9617 97.6152C30.6849 109.553 7.73957 106.124 -9.33773 89.9831C-26.415 73.8419 -31.1676 51.0878 -19.9131 39.1531Z" fill="#F6E6CA"/>
<path d="M31.3864 46.7851C23.2387 38.7272 12.6587 33.591 1.2937 32.1761C-6.10312 40.025 1.86658 57.321 12.2418 67.1012C22.617 76.8814 40.6091 83.5048 47.6909 76.0011C45.6317 64.727 39.898 54.4527 31.3864 46.7851Z" fill="#BBB0A1"/>
<path d="M0.185453 64.8778L15.6482 79.4836L55.1651 37.5675L39.7023 22.9616L0.185453 64.8778Z" fill="#F6E6CA"/>
<path d="M204.472 125.156C221.276 108.854 225.681 86.1191 214.311 74.3768C202.941 62.6344 180.101 66.3309 163.297 82.633C146.493 98.9352 142.088 121.67 153.458 133.412C164.828 145.154 187.668 141.458 204.472 125.156Z" fill="#F6E6CA"/>
<path d="M207.875 123.785C216.285 115.999 221.884 105.646 223.799 94.3396C216.296 86.6073 198.716 93.7762 188.535 103.693C178.353 113.609 170.848 131.314 178.029 138.728C189.354 137.184 199.849 131.93 207.875 123.785Z" fill="#BBB0A1"/>
<path d="M191.274 91.8868L176 106.682L216.052 148.109L231.326 133.314L191.274 91.8868Z" fill="#F6E6CA"/>
<path d="M189.036 40.2569C204.325 34.3322 209.839 11.7517 201.351 -10.1781C192.864 -32.1078 173.589 -45.0824 158.3 -39.1576C143.011 -33.2329 137.498 -10.6524 145.985 11.2773C154.473 33.2071 173.747 46.1817 189.036 40.2569Z" fill="#F6E6CA"/>
<path d="M145.987 11.2627C149.882 22.048 157.234 31.2403 166.896 37.4051C176.938 33.6107 177.222 14.5077 172.022 1.17873C166.822 -12.1503 153.476 -25.8673 143.859 -22.1365C140.863 -11.0749 141.611 0.669465 145.987 11.2627Z" fill="#BBB0A1"/>
<path d="M181.932 8.4071L174.253 -11.4359L120.556 9.37254L128.236 29.2156L181.932 8.4071Z" fill="#F6E6CA"/>
<path d="M52.0884 3.62059C47.9363 4.35581 43.6926 4.32487 40.8493 2.3185C35.7262 -1.29677 37.3204 -5.96182 41.3075 -8.87432C40.735 -9.17868 40.1849 -9.4864 39.6057 -9.83563C33.9369 -13.5758 31.1465 -19.2141 33.3353 -22.6606C35.5241 -26.1071 42.0123 -25.9299 47.5747 -22.2886C48.1878 -21.8972 48.7791 -21.4725 49.3459 -21.0165C50.1547 -26.1835 53.8061 -29.9633 59.4269 -26.6976C62.4518 -24.856 64.2298 -21.0849 65.2984 -17.0013C67.3184 -21.73 71.4445 -24.4797 76.988 -21.2713C85.385 -16.448 85.2126 3.09695 85.0596 7.59249C85.0964 7.83929 85.13 8.06364 85.1635 8.288L94.9999 14.6164L93.2899 17.2804L83.579 11.0249C83.2877 11.1668 82.9807 11.2743 82.6645 11.3451C78.6138 13.3725 60.9891 21.6261 53.119 16.0359C47.8738 12.3701 48.668 7.41174 52.0884 3.62059Z" fill="#985375"/>
<path opacity="0.2" d="M94.2957 15.731L33.7198 -23.1538C36.2199 -26.0505 42.2251 -25.7323 47.5971 -22.2918C48.2102 -21.9004 48.8015 -21.4758 49.3682 -21.0198C50.1771 -26.1868 53.8284 -29.9665 59.4492 -26.7009C62.4741 -24.8593 64.2521 -21.0881 65.3207 -17.0045C67.3407 -21.7332 71.4668 -24.483 77.0103 -21.2746C85.4073 -16.4513 85.235 3.09368 85.0819 7.58923C85.1188 7.83602 85.1524 8.06038 85.1859 8.28474L95.0223 14.6132L94.2957 15.731Z" fill="black"/>
<path d="M124.455 65.7443C121.229 63.0154 118.518 59.7506 118.226 56.262C117.726 50.0061 122.317 48.219 127.126 49.427C127.032 48.7988 126.939 48.1706 126.838 47.4975C125.989 40.7434 128.589 34.9876 132.637 34.4744C136.684 33.9612 140.64 38.9666 141.502 45.6501C141.612 46.3904 141.72 47.1084 141.658 47.9204C146.133 45.2101 151.392 45.594 152.489 52.0129C153.005 55.468 151.287 59.303 148.823 62.7448C153.733 61.2541 158.505 62.674 159.607 68.9774C161.263 78.524 146.182 90.916 142.674 93.665C142.53 93.8528 142.373 94.0296 142.203 94.1941L143.561 105.735L140.424 106.204L138.957 94.7023C138.663 94.5673 138.385 94.4013 138.127 94.207C133.983 92.395 116.346 84.1588 115.571 74.5265C115.022 68.0945 119.335 65.5232 124.455 65.7443Z" fill="#985375"/>
<path opacity="0.2" d="M142.236 105.91L133.207 34.4579C137.018 34.5076 140.627 39.3355 141.435 45.66C141.545 46.4004 141.653 47.1184 141.591 47.9304C146.066 45.2201 151.325 45.604 152.422 52.0229C152.938 55.478 151.22 59.3129 148.756 62.7548C153.666 61.2641 158.438 62.684 159.54 68.9874C161.196 78.5339 146.114 90.9259 142.607 93.675C142.463 93.8627 142.306 94.0396 142.136 94.2041L143.562 105.735L142.236 105.91Z" fill="black"/>
<path d="M126.314 116.822L130.52 132.387C130.52 132.387 129.255 142.783 119.533 142.126C116.807 141.947 114.219 140.862 112.179 139.044C110.139 137.225 108.763 134.777 108.271 132.088L114.98 114.731C114.98 114.731 122.561 106.58 126.314 116.822Z" fill="#E7B72B"/>
<path opacity="0.2" d="M130.52 132.387L126.315 116.822C124.921 113.016 122.989 111.745 121.095 111.639L118.763 142.034L119.488 142.132C129.255 142.783 130.52 132.387 130.52 132.387Z" fill="#390000"/>
<path d="M90.1112 53.3533L89.8817 67.1497C89.8817 67.1497 86.3979 75.423 78.5492 72.5821C76.3455 71.8002 74.4656 70.3042 73.2077 68.3315C71.9498 66.3587 71.3859 64.0222 71.6057 61.6926L81.1526 48.9121C81.1526 48.9121 89.4279 44.0284 90.1112 53.3533Z" fill="#E7B72B"/>
<path opacity="0.2" d="M89.949 67.1397L90.1785 53.3433C89.912 49.8738 88.6329 48.3676 87.0654 47.845L78.054 72.335C78.2429 72.4272 78.4384 72.5053 78.6388 72.5687C86.4651 75.413 89.949 67.1397 89.949 67.1397Z" fill="#390000"/>
<path d="M225.93 38.3764L217.648 49.5C217.648 49.5 210.028 54.171 205.287 47.2875C203.957 45.3668 203.304 43.0571 203.433 40.7239C203.562 38.3908 204.464 36.1674 205.997 34.4056L221.321 29.6153C221.321 29.6153 230.836 30.4182 225.93 38.3764Z" fill="#E7B72B"/>
<path opacity="0.2" d="M217.648 49.5L225.84 38.3899C227.689 35.4299 227.411 33.5678 226.533 32.1393L204.967 46.8307C204.997 47.0327 205.181 47.1887 205.297 47.3548C210.118 54.1576 217.648 49.5 217.648 49.5Z" fill="#390000"/>
<path d="M263.145 66.7611L262.916 80.5574C262.916 80.5574 259.451 88.805 251.583 85.9898C249.381 85.2073 247.503 83.7098 246.249 81.7359C244.995 79.762 244.436 77.425 244.662 75.097L254.192 62.2043C254.192 62.2043 262.376 57.472 263.145 66.7611Z" fill="#E7B72B"/>
<path opacity="0.2" d="M262.986 80.5697L263.216 66.7733C262.972 63.3005 261.67 61.7977 260.106 61.2974L251.114 85.7617L251.68 86.0211C259.522 88.8172 262.986 80.5697 262.986 80.5697Z" fill="#390000"/>
<path d="M233.657 162.755L226.681 171.275C226.681 171.275 220.316 174.68 216.897 168.975C215.914 167.396 215.482 165.536 215.67 163.685C215.858 161.834 216.655 160.099 217.936 158.751L230.293 155.574C230.293 155.574 237.873 156.62 233.657 162.755Z" fill="#E7B72B"/>
<path opacity="0.2" d="M226.681 171.275L233.657 162.755C235.241 160.477 235.186 158.879 234.496 157.79L216.673 168.55C216.738 168.697 216.813 168.839 216.897 168.975C220.316 174.68 226.681 171.275 226.681 171.275Z" fill="#390000"/>
<path d="M250.016 14.019L243.037 22.5165C243.037 22.5165 236.671 25.922 233.256 20.2395C232.278 18.6468 231.858 16.7738 232.062 14.916C232.266 13.0582 233.081 11.3213 234.38 9.97923L246.741 6.82456C246.741 6.82456 254.228 7.86162 250.016 14.019Z" fill="#E7B72B"/>
<path opacity="0.2" d="M243.037 22.5164L250.016 14.0189C251.597 11.7183 251.545 10.1435 250.855 9.05386L233.028 19.7918C233.095 19.9457 233.17 20.0953 233.256 20.2395C236.739 25.9119 243.037 22.5164 243.037 22.5164Z" fill="#390000"/>
<path d="M21.5501 -0.324976C22.3525 -1.1778 23.3896 -1.77308 24.5303 -2.03548C25.6711 -2.29788 26.864 -2.21559 27.9582 -1.79903C29.0523 -1.38246 29.9985 -0.650362 30.677 0.304612C31.3554 1.25959 31.7355 2.39449 31.7693 3.56565C31.803 4.73681 31.4889 5.89156 30.8667 6.88373C30.2444 7.8759 29.3419 8.66088 28.2736 9.13929C27.2052 9.6177 26.019 9.76803 24.865 9.57126C23.7111 9.37448 22.6413 8.83944 21.7912 8.03387C20.6536 6.95605 19.9894 5.4708 19.9442 3.90383C19.8991 2.33685 20.4766 0.816079 21.5501 -0.324976Z" fill="#3F363F"/>
<path d="M98.7582 72.7271C99.5605 71.8743 100.598 71.279 101.738 71.0166C102.879 70.7542 104.072 70.8365 105.166 71.2531C106.26 71.6696 107.207 72.4018 107.885 73.3567C108.563 74.3117 108.944 75.4466 108.977 76.6177C109.011 77.7889 108.697 78.9437 108.075 79.9358C107.452 80.928 106.55 81.713 105.482 82.1914C104.413 82.6698 103.227 82.8201 102.073 82.6233C100.919 82.4266 99.8494 81.8915 98.9992 81.086C97.8616 80.0082 97.1974 78.5229 97.1522 76.9559C97.1071 75.389 97.6846 73.8682 98.7582 72.7271Z" fill="#3F363F"/>
<path d="M232.289 54.8581C235.519 54.3753 237.747 51.3622 237.263 48.1282C236.78 44.8941 233.769 42.6639 230.538 43.1467C227.307 43.6296 225.08 46.6427 225.563 49.8767C226.047 53.1107 229.058 55.341 232.289 54.8581Z" fill="#3F363F"/>
<path d="M103.423 29.7345C104.226 28.8817 105.263 28.2864 106.404 28.024C107.544 27.7616 108.737 27.8438 109.831 28.2604C110.926 28.677 111.872 29.4091 112.55 30.3641C113.229 31.319 113.609 32.4539 113.642 33.6251C113.676 34.7963 113.362 35.951 112.74 36.9432C112.118 37.9354 111.215 38.7204 110.147 39.1988C109.078 39.6772 107.892 39.8275 106.738 39.6307C105.584 39.4339 104.514 38.8989 103.664 38.0933C102.527 37.0155 101.863 35.5303 101.817 33.9633C101.772 32.3963 102.35 30.8755 103.423 29.7345Z" fill="#3F363F"/>
<path d="M148.271 144.299C149.072 143.454 150.106 142.865 151.241 142.607C152.376 142.35 153.562 142.434 154.65 142.851C155.737 143.267 156.677 143.997 157.351 144.947C158.024 145.897 158.402 147.026 158.435 148.191C158.469 149.356 158.157 150.504 157.539 151.491C156.921 152.479 156.025 153.261 154.963 153.739C153.902 154.216 152.723 154.369 151.574 154.176C150.426 153.984 149.361 153.455 148.512 152.658C147.374 151.58 146.71 150.094 146.665 148.528C146.62 146.961 147.197 145.44 148.271 144.299Z" fill="#3F363F"/>
<path d="M248.844 53.5537C249.11 53.2705 249.429 53.0427 249.783 52.8834C250.136 52.7241 250.518 52.6363 250.906 52.6252C251.294 52.6141 251.681 52.6799 252.043 52.8187C252.406 52.9576 252.738 53.1668 253.019 53.4343C253.589 53.9727 253.922 54.7154 253.944 55.4992C253.967 56.283 253.677 57.0436 253.14 57.6137C252.602 58.1837 251.86 58.5166 251.077 58.539C250.294 58.5614 249.534 58.2715 248.964 57.7331C248.679 57.4687 248.449 57.1499 248.288 56.7953C248.127 56.4408 248.038 56.0577 248.027 55.6685C248.015 55.2792 248.082 54.8917 248.222 54.5285C248.363 54.1654 248.574 53.834 248.844 53.5537Z" fill="#3F363F"/>
<path d="M219.846 0.43072C220.247 0.00818294 220.764 -0.286067 221.331 -0.414911C221.899 -0.543754 222.492 -0.501414 223.036 -0.293227C223.579 -0.0850408 224.049 0.279659 224.386 0.754852C224.723 1.23005 224.912 1.79443 224.929 2.3768C224.946 2.95917 224.79 3.53342 224.481 4.02708C224.172 4.52074 223.724 4.9117 223.193 5.15062C222.662 5.38954 222.072 5.4657 221.498 5.36951C220.924 5.27331 220.391 5.00908 219.967 4.61013C219.684 4.34408 219.456 4.02469 219.297 3.67033C219.138 3.31597 219.05 2.93362 219.039 2.54525C219.028 2.15687 219.093 1.77013 219.232 1.40725C219.37 1.04437 219.579 0.712505 219.846 0.43072Z" fill="#3F363F"/>
<path d="M141.13 126.095C141.083 124.467 139.726 123.185 138.1 123.231C136.474 123.278 135.193 124.636 135.24 126.264C135.287 127.892 136.644 129.173 138.271 129.127C139.897 129.08 141.177 127.723 141.13 126.095Z" fill="#3F363F"/>
<path d="M233.972 112.075C233.925 110.448 232.568 109.166 230.942 109.212C229.315 109.259 228.035 110.616 228.082 112.244C228.129 113.872 229.486 115.154 231.112 115.108C232.739 115.061 234.019 113.703 233.972 112.075Z" fill="#3F363F"/>
<path d="M38.0145 110.453C38.4151 110.031 38.9318 109.737 39.4994 109.608C40.067 109.479 40.6601 109.521 41.2038 109.729C41.7474 109.938 42.2174 110.302 42.5543 110.778C42.8912 111.253 43.08 111.817 43.0967 112.399C43.1135 112.982 42.9576 113.556 42.6486 114.05C42.3397 114.543 41.8915 114.934 41.3607 115.173C40.8299 115.412 40.2403 115.488 39.6662 115.392C39.0921 115.296 38.5593 115.032 38.135 114.633C37.569 114.092 37.2387 113.35 37.2162 112.568C37.1936 111.785 37.4805 111.025 38.0145 110.453Z" fill="#3F363F"/>
<path d="M71.0376 87.1243C70.99 85.4963 69.6329 84.2148 68.0064 84.262C66.38 84.3093 65.1002 85.6673 65.1478 87.2953C65.1955 88.9233 66.5526 90.2048 68.179 90.1575C69.8054 90.1103 71.0853 88.7523 71.0376 87.1243Z" fill="#3F363F"/>
<path d="M80.278 107.761L80.4447 122.829L91.9911 123.58L94.4673 110.251L80.278 107.761Z" fill="#D7423C"/>
<path d="M171.7 49.0042L171.892 64.0908L183.416 64.8457L185.911 51.4906L171.7 49.0042Z" fill="#D7423C"/>
<path d="M185.635 161.72L200.196 165.622L204.021 154.729L191.87 148.701L185.635 161.72Z" fill="#DD7B1D"/>
<path d="M68.9132 35.3966L83.4515 39.3021L87.2961 28.383L75.1253 22.3805L68.9132 35.3966Z" fill="#9B787B"/>
<path d="M241.138 138.448L247.693 147.354L254.878 142.839L250.668 133.835L241.138 138.448Z" fill="#AEC02D"/>
<path d="M53.0049 115.851L59.5603 124.757L66.7485 120.265L62.5128 111.242L53.0049 115.851Z" fill="#AEC02D"/>
<path d="M-10.222 19.057L-3.64758 27.9373L3.54061 23.4454L-0.691742 14.4445L-10.222 19.057Z" fill="#AEC02D"/>
</g>
<defs>
<filter id="filter0_d_42:960" x="-164.672" y="-166.878" width="516.408" height="399.896" filterUnits="userSpaceOnUse" color-interpolation-filters="sRGB">
<feFlood flood-opacity="0" result="BackgroundImageFix"/>
<feColorMatrix in="SourceAlpha" type="matrix" values="0 0 0 0 0 0 0 0 0 0 0 0 0 0 0 0 0 0 127 0" result="hardAlpha"/>
<feOffset dy="4"/>
<feGaussianBlur stdDeviation="4"/>
<feComposite in2="hardAlpha" operator="out"/>
<feColorMatrix type="matrix" values="0 0 0 0 0 0 0 0 0 0 0 0 0 0 0 0 0 0 0.15 0"/>
<feBlend mode="normal" in2="BackgroundImageFix" result="effect1_dropShadow_42:960"/>
<feBlend mode="normal" in="SourceGraphic" in2="effect1_dropShadow_42:960" result="shape"/>
</filter>
<clipPath id="clip0_42:960">
<rect width="500.271" height="383.079" fill="white" transform="translate(-179 -92.0552) rotate(-8.5)"/>
</clipPath>
</defs>
</svg>
