<svg width="308" height="233" viewBox="0 0 308 233" fill="none" xmlns="http://www.w3.org/2000/svg">
<g clip-path="url(#clip0_42_885)" filter="url(#filter0_d_42_885)">
<g filter="url(#filter1_d_42_885)">
<path d="M-134.977 63.9833L317.165 220.918C317.165 220.918 385.657 53.1594 296.257 -144.847L-134.977 63.9833Z" fill="#AA5B3D"/>
</g>
<path d="M250.143 -122.418C313.111 28.1329 279.432 164.618 267.329 203.617L317.165 220.918C317.165 220.918 385.657 53.1594 296.257 -144.847L250.143 -122.418Z" fill="#DDB56C"/>
<path d="M-134.977 63.9833L234.083 192.364C240.301 192.007 260.958 189.067 266.457 177.773C273.267 163.721 254.551 154.918 243.761 144.158C230.574 131.019 234.288 112.661 261.265 102.511C278.672 95.9827 287.069 72.3375 268.74 57.6904C250.411 43.0433 234.069 28.3442 243.829 9.67683C253.588 -8.99052 267.951 -10.4039 267.437 -25.0637C266.924 -39.7235 255.4 -43.8518 241.415 -51.9351C221.943 -63.2027 210.48 -77.3813 228.863 -93.7029C239.426 -103.142 240.413 -111.682 237.652 -116.407L-134.977 63.9833Z" fill="#F2D162"/>
<path d="M259.173 -126.804L250.121 -122.417C313.11 28.1329 279.431 164.618 267.328 203.617L278.958 207.634C287.907 174.531 325.561 13.9764 259.173 -126.804Z" fill="#C29D50"/>
<path d="M204.147 33.3632C204.147 33.3632 197.998 52.8437 211.252 66.0677C224.506 79.2918 233.866 79.2196 233.866 79.2196C234.483 70.8501 233.529 62.4393 231.055 54.42C226.842 42.1477 213.267 34.0104 204.147 33.3632Z" fill="#94A92A"/>
<path opacity="0.1" d="M204.147 33.3633L233.887 79.1758C234.486 70.8211 233.533 62.4276 231.077 54.4194C226.842 42.1478 213.267 34.0105 204.147 33.3633Z" fill="black"/>
<path d="M195.537 44.7395C195.537 44.7395 178.857 45.1763 172.122 58.7725C165.386 72.3688 167.826 79.6955 167.826 79.6955C174.47 77.9753 180.735 75.0338 186.302 71.0215C194.675 64.665 197.435 51.9724 195.537 44.7395Z" fill="#94A92A"/>
<path opacity="0.1" d="M195.537 44.7395L167.826 79.6955C174.454 77.9692 180.704 75.0284 186.258 71.0226C194.675 64.665 197.435 51.9724 195.537 44.7395Z" fill="black"/>
<path d="M89.3883 10.4579C89.3883 10.4579 109.628 13.0397 120.295 -2.34504C130.963 -17.7298 129.23 -26.9335 129.23 -26.9335C120.882 -26.0784 112.768 -23.667 105.308 -19.8241C93.9711 -13.5196 88.3718 1.36506 89.3883 10.4579Z" fill="#94A92A"/>
<path opacity="0.1" d="M89.3883 10.4578L129.187 -26.9325C120.854 -26.07 112.755 -23.6592 105.308 -19.8242C93.9711 -13.5197 88.3718 1.36497 89.3883 10.4578Z" fill="black"/>
<path d="M8.27729 43.9164C8.27729 43.9164 10.9689 64.1378 28.6896 70.4161C46.4103 76.6944 54.6923 72.6094 54.6923 72.6094C51.6625 64.7569 47.183 57.5436 41.4872 51.3451C32.6396 42.0899 16.7951 40.5815 8.27729 43.9164Z" fill="#94A92A"/>
<path opacity="0.1" d="M8.27739 43.9165L54.6703 72.5884C51.64 64.7738 47.169 57.5973 41.4896 51.4315C32.6398 42.09 16.7953 40.5816 8.27739 43.9165Z" fill="black"/>
<path d="M287.617 208.856C287.617 208.856 340.294 37.4266 267.759 -129.211C267.759 -129.211 353.232 9.68618 287.617 208.856Z" fill="#F2D19A"/>
<path d="M157.255 -46.6509C144.447 -32.8944 147.24 -9.48757 163.494 5.62967C179.748 20.7469 203.306 21.85 216.114 8.09352C228.922 -5.66298 226.129 -29.0698 209.875 -44.187C193.621 -59.3042 170.062 -60.4073 157.255 -46.6509Z" fill="#E8FFF7"/>
<path d="M168.175 98.8056C149.453 111 142.655 133.736 152.99 149.589C163.326 165.443 186.882 168.409 205.604 156.215C224.326 144.021 231.124 121.285 220.788 105.431C210.452 89.5782 186.897 86.6117 168.175 98.8056Z" fill="#E8FFF7"/>
<path d="M177.295 116.293C175.051 126.928 181.857 137.368 192.497 139.611C203.138 141.854 213.583 135.05 215.827 124.415C218.072 113.78 211.265 103.341 200.625 101.098C189.984 98.8548 179.539 105.658 177.295 116.293Z" fill="#E4AA28"/>
<path d="M88.5589 41.4357C69.8371 53.6297 63.0388 76.3664 73.3746 92.2196C83.7104 108.073 107.266 111.039 125.988 98.8454C144.71 86.6515 151.508 63.9148 141.172 48.0615C130.837 32.2083 107.281 29.2418 88.5589 41.4357Z" fill="#E8FFF7"/>
<path d="M104.595 47.6679C96.1332 54.4948 94.8104 66.8852 101.641 75.3426C108.471 83.8 120.867 85.1218 129.329 78.2949C137.791 71.468 139.114 59.0776 132.284 50.6202C125.454 42.1628 113.057 40.841 104.595 47.6679Z" fill="#E4AA28"/>
<path d="M4.2014 97.9836C15.5013 82.82 10.1395 59.708 -7.78609 46.4333C-25.7116 33.1587 -49.4149 34.5574 -60.7137 49.7642C-69.2976 61.3127 -68.2486 77.4279 -59.3692 90.3776L-8.79104 107.962C-3.61722 105.906 0.88165 102.451 4.2014 97.9836V97.9836Z" fill="#E8FFF7"/>
<path d="M-6.40127 64.6359C-3.27595 66.9582 -0.909869 70.1548 0.397732 73.8213C1.70533 77.4878 1.89571 81.4595 0.944815 85.2342C-0.00608265 89.0089 -2.05557 92.417 -4.94443 95.0276C-7.83329 97.6381 -11.4318 99.3337 -15.2848 99.9001C-19.1379 100.466 -23.0724 99.8781 -26.5908 98.2094C-30.1092 96.5408 -33.0535 93.8667 -35.0512 90.5254C-37.049 87.1842 -38.0106 83.3258 -37.8143 79.4382C-37.6181 75.5507 -36.2728 71.8086 -33.9486 68.6852C-30.8325 64.4975 -26.1798 61.7183 -21.0138 60.9589C-15.8478 60.1995 -10.5916 61.5222 -6.40127 64.6359V64.6359Z" fill="#E4AA28"/>
<path d="M5.54291 12.9776C16.1789 28.6041 39.7895 31.0977 58.2709 18.5337C76.7522 5.96973 83.1157 -16.8875 72.4575 -32.535C71.7682 -33.5166 71.0217 -34.4568 70.2217 -35.3506L0.405565 -1.56111C0.823696 3.64928 2.59443 8.66049 5.54291 12.9776V12.9776Z" fill="#E8FFF7"/>
<path d="M32.1775 -6.11C33.7301 -3.82437 35.7468 -1.89107 38.0963 -0.43591C40.4458 1.01925 43.0756 1.96366 45.8144 2.33589C48.5533 2.70812 51.3399 2.49981 53.9929 1.72454C56.646 0.949262 59.106 -0.375605 61.2129 -2.16388C63.3198 -3.95216 65.0264 -6.16378 66.2217 -8.65481C67.417 -11.1458 68.0742 -13.8605 68.1505 -16.6221C68.2267 -19.3837 67.7204 -22.1305 66.6645 -24.6836C65.6085 -27.2366 64.0266 -29.5389 62.0216 -31.4405L28.8629 -15.4452C29.1428 -12.0996 30.2848 -8.88348 32.1775 -6.11V-6.11Z" fill="#E4AA28"/>
<path d="M73.3403 25.1191C72.9975 25.7541 72.4741 26.2733 71.8363 26.6113C71.1985 26.9492 70.4748 27.0906 69.7566 27.0178C69.0385 26.9449 68.358 26.661 67.8012 26.2019C67.2443 25.7427 66.8361 25.129 66.628 24.4381C66.4199 23.7472 66.4213 23.0102 66.632 22.3201C66.8427 21.63 67.2532 21.0178 67.8118 20.5607C68.3703 20.1037 69.0519 19.8223 69.7703 19.7521C70.4888 19.6818 71.2119 19.826 71.8484 20.1663C72.2724 20.3929 72.6474 20.701 72.952 21.0728C73.2566 21.4446 73.4847 21.8729 73.6233 22.3331C73.7619 22.7932 73.8083 23.2762 73.7597 23.7543C73.7111 24.2324 73.5686 24.6962 73.3403 25.1191V25.1191Z" fill="#845C33"/>
<path d="M265.892 79.4183C265.526 80.1044 264.963 80.6664 264.277 81.0331C263.591 81.3998 262.811 81.5547 262.036 81.4782C261.262 81.4018 260.527 81.0974 259.926 80.6036C259.324 80.1098 258.883 79.4488 258.658 78.7042C258.432 77.9596 258.433 77.1649 258.66 76.4207C258.886 75.6765 259.329 75.0162 259.931 74.5234C260.533 74.0306 261.268 73.7274 262.043 73.6523C262.818 73.5771 263.597 73.7333 264.283 74.1011C265.201 74.5936 265.886 75.4301 266.188 76.4269C266.49 77.4238 266.383 78.4997 265.892 79.4183V79.4183Z" fill="#845C33"/>
<path d="M64.7219 117.922C62.5501 117.979 60.8357 119.785 60.8925 121.956C60.9493 124.126 62.756 125.84 64.9278 125.783C67.0995 125.726 68.814 123.92 68.7572 121.75C68.7003 119.579 66.8937 117.865 64.7219 117.922Z" fill="#845C33"/>
<path d="M198.423 84.7722C197.907 84.7347 197.403 84.5958 196.941 84.3636C196.478 84.1315 196.066 83.8105 195.727 83.419C195.389 83.0275 195.131 82.5732 194.968 82.0821C194.805 81.5909 194.74 81.0725 194.778 80.5565C194.816 80.0404 194.955 79.5368 195.187 79.0744C195.419 78.612 195.74 78.1999 196.132 77.8615C196.524 77.5232 196.978 77.2653 197.47 77.1025C197.961 76.9397 198.48 76.8752 198.996 76.9128C200.039 76.9886 201.009 77.4754 201.692 78.266C202.376 79.0566 202.717 80.0863 202.641 81.1285C202.566 82.1708 202.078 83.1402 201.287 83.8235C200.496 84.5068 199.466 84.8481 198.423 84.7722V84.7722Z" fill="#845C33"/>
<path d="M67.8096 104.551C67.256 104.507 66.7279 104.3 66.2918 103.957C65.8558 103.613 65.5315 103.148 65.3599 102.62C65.1882 102.092 65.177 101.525 65.3275 100.991C65.478 100.456 65.7835 99.9787 66.2055 99.6178C66.6275 99.257 67.147 99.0292 67.6984 98.9633C68.2499 98.8974 68.8085 98.9962 69.3037 99.2474C69.7989 99.4986 70.2085 99.8908 70.4809 100.375C70.7532 100.858 70.876 101.412 70.8337 101.965C70.8056 102.334 70.705 102.693 70.5377 103.023C70.3704 103.352 70.1396 103.645 69.8587 103.886C69.5777 104.126 69.2521 104.308 68.9005 104.423C68.5489 104.537 68.1782 104.581 67.8096 104.551V104.551Z" fill="#845C33"/>
<path d="M245.676 49.6503C244.124 49.6909 242.9 50.9808 242.94 52.5312C242.981 54.0817 244.271 55.3057 245.823 55.2651C247.374 55.2245 248.599 53.9346 248.558 52.3841C248.517 50.8337 247.227 49.6097 245.676 49.6503Z" fill="#845C33"/>
<path d="M52.6645 110.761C51.9205 110.706 51.2288 110.358 50.7416 109.793C50.2545 109.228 50.0117 108.493 50.0668 107.75C50.1219 107.006 50.4702 106.315 51.0353 105.828C51.6003 105.341 52.3357 105.098 53.0798 105.153C53.4482 105.18 53.8076 105.28 54.1375 105.446C54.4675 105.612 54.7614 105.842 55.0026 106.121C55.2439 106.401 55.4276 106.725 55.5434 107.076C55.6592 107.426 55.7048 107.796 55.6775 108.165C55.6502 108.533 55.5507 108.892 55.3845 109.222C55.2183 109.552 54.9888 109.845 54.709 110.087C54.4292 110.328 54.1046 110.511 53.7538 110.627C53.403 110.743 53.0329 110.788 52.6645 110.761V110.761Z" fill="#845C33"/>
<path d="M208.694 174.79C207.954 174.723 207.269 174.369 206.786 173.804C206.303 173.24 206.059 172.509 206.107 171.768C206.132 171.397 206.231 171.036 206.397 170.704C206.563 170.372 206.793 170.076 207.074 169.834C207.356 169.591 207.682 169.407 208.035 169.291C208.388 169.176 208.76 169.131 209.13 169.16C209.873 169.222 210.561 169.575 211.045 170.14C211.529 170.706 211.771 171.44 211.718 172.183C211.692 172.553 211.593 172.915 211.427 173.247C211.261 173.579 211.031 173.874 210.75 174.117C210.469 174.359 210.142 174.544 209.789 174.659C209.436 174.775 209.064 174.819 208.694 174.79Z" fill="#845C33"/>
<path d="M21.7076 109.281C20.5449 109.19 19.4353 108.757 18.5188 108.036C17.6023 107.316 16.92 106.34 16.5582 105.231C16.1963 104.123 16.1711 102.933 16.4857 101.811C16.8003 100.688 17.4407 99.6841 18.3259 98.9252C19.211 98.1663 20.3014 97.6865 21.4591 97.5466C22.6169 97.4066 23.7902 97.6127 24.8308 98.1388C25.8715 98.6649 26.7328 99.4874 27.306 100.503C27.8792 101.518 28.1386 102.68 28.0515 103.842C27.9934 104.616 27.7832 105.371 27.4327 106.063C27.0822 106.756 26.5984 107.372 26.0091 107.878C25.4197 108.383 24.7364 108.767 23.9983 109.008C23.2601 109.249 22.4817 109.341 21.7076 109.281V109.281Z" fill="#3F363F"/>
<path d="M244.753 182.015C243.976 181.959 243.219 181.751 242.524 181.402C241.828 181.053 241.209 180.57 240.701 179.981C240.193 179.392 239.807 178.708 239.565 177.969C239.323 177.23 239.229 176.45 239.289 175.675C239.347 174.901 239.558 174.146 239.908 173.453C240.259 172.761 240.742 172.144 241.332 171.639C241.921 171.134 242.604 170.75 243.343 170.509C244.081 170.268 244.859 170.175 245.633 170.236C247.199 170.353 248.653 171.087 249.678 172.275C250.702 173.464 251.212 175.011 251.096 176.576C250.974 178.136 250.237 179.585 249.048 180.605C247.859 181.624 246.315 182.131 244.753 182.015V182.015Z" fill="#3F363F"/>
<path d="M225.002 28.8626C223.839 28.7717 222.73 28.3386 221.813 27.6178C220.897 26.8971 220.214 25.921 219.852 24.813C219.491 23.7049 219.465 22.5145 219.78 21.3921C220.095 20.2697 220.735 19.2656 221.62 18.5067C222.505 17.7478 223.596 17.2681 224.753 17.1281C225.911 16.9881 227.085 17.1942 228.125 17.7203C229.166 18.2464 230.027 19.069 230.6 20.084C231.174 21.0991 231.433 22.2612 231.346 23.4236C231.223 24.9844 230.487 26.4331 229.298 27.4524C228.109 28.4718 226.564 28.9788 225.002 28.8626V28.8626Z" fill="#3F363F"/>
<path d="M36.1974 85.4762C35.478 85.4188 34.7917 85.1497 34.2252 84.7028C33.6587 84.2559 33.2374 83.6513 33.0144 82.9653C32.7913 82.2793 32.7766 81.5426 32.9721 80.8482C33.1675 80.1539 33.5644 79.5329 34.1126 79.0638C34.6608 78.5946 35.3358 78.2983 36.0523 78.2122C36.7689 78.1261 37.4948 78.2541 38.1387 78.58C38.7825 78.9059 39.3153 79.4151 39.6698 80.0434C40.0244 80.6716 40.1847 81.3908 40.1307 82.1101C40.0975 82.5907 39.9689 83.0599 39.7525 83.4903C39.536 83.9207 39.236 84.3037 38.8698 84.6171C38.5037 84.9304 38.0788 85.1677 37.62 85.3152C37.1612 85.4627 36.6776 85.5175 36.1974 85.4762V85.4762Z" fill="#3F363F"/>
<path d="M60.7999 49.8885C60.4323 49.863 60.0733 49.765 59.7438 49.6C59.4143 49.435 59.1208 49.2064 58.8803 48.9273C58.6398 48.6483 58.457 48.3243 58.3425 47.9742C58.228 47.6241 58.1841 47.2548 58.2133 46.8876C58.2531 46.3329 58.4567 45.8026 58.7984 45.3637C59.1401 44.9249 59.6045 44.5973 60.1327 44.4225C60.6608 44.2476 61.229 44.2335 61.7652 44.3818C62.3014 44.53 62.7815 44.8341 63.1446 45.2554C63.5077 45.6767 63.7376 46.1962 63.805 46.7482C63.8723 47.3002 63.7742 47.8598 63.5231 48.356C63.272 48.8522 62.8791 49.2627 62.3943 49.5355C61.9095 49.8084 61.3546 49.9312 60.7999 49.8885Z" fill="#845C33"/>
<path d="M129.076 124.06C127.913 123.969 126.803 123.536 125.887 122.815C124.97 122.095 124.288 121.119 123.926 120.01C123.564 118.902 123.539 117.712 123.854 116.59C124.168 115.467 124.809 114.463 125.694 113.704C126.579 112.945 127.669 112.466 128.827 112.326C129.985 112.186 131.158 112.392 132.199 112.918C133.24 113.444 134.101 114.266 134.674 115.282C135.247 116.297 135.507 117.459 135.42 118.621C135.297 120.182 134.56 121.631 133.371 122.65C132.182 123.669 130.638 124.176 129.076 124.06Z" fill="#3F363F"/>
<path d="M244.823 92.2229C243.66 92.1321 242.55 91.699 241.634 90.9782C240.717 90.2574 240.035 89.2814 239.673 88.1733C239.312 87.0652 239.286 85.8748 239.601 84.7524C239.916 83.63 240.556 82.626 241.441 81.867C242.326 81.1081 243.417 80.6284 244.574 80.4885C245.732 80.3485 246.905 80.5546 247.946 81.0807C248.987 81.6068 249.848 82.4293 250.421 83.4444C250.994 84.4595 251.254 85.6216 251.167 86.7839C251.109 87.5578 250.898 88.3127 250.548 89.0052C250.197 89.6977 249.714 90.3143 249.124 90.8196C248.535 91.3248 247.852 91.7089 247.113 91.9497C246.375 92.1905 245.597 92.2834 244.823 92.2229V92.2229Z" fill="#3F363F"/>
<path d="M144.464 102.371C143.745 102.328 143.054 102.074 142.479 101.64C141.904 101.206 141.471 100.611 141.233 99.9317C140.995 99.2519 140.964 98.517 141.143 97.8194C141.322 97.1218 141.704 96.4928 142.24 96.0114C142.775 95.53 143.442 95.2178 144.155 95.114C144.868 95.0102 145.596 95.1195 146.247 95.4282C146.898 95.7368 147.443 96.231 147.813 96.8486C148.184 97.4661 148.364 98.1794 148.33 98.8988C148.304 99.3805 148.184 99.8525 147.976 100.288C147.768 100.723 147.476 101.113 147.117 101.435C146.758 101.758 146.339 102.007 145.883 102.167C145.428 102.328 144.946 102.397 144.464 102.371V102.371Z" fill="#3F363F"/>
<path d="M231.39 147.815C229.41 148.204 228.121 150.123 228.51 152.101C228.898 154.08 230.818 155.369 232.798 154.98C234.777 154.592 236.067 152.673 235.678 150.694C235.289 148.716 233.37 147.427 231.39 147.815Z" fill="#3F363F"/>
<path d="M135.656 144.671C133.668 145.066 132.377 146.997 132.773 148.983C133.168 150.97 135.099 152.26 137.087 151.865C139.074 151.47 140.365 149.54 139.97 147.553C139.575 145.567 137.643 144.276 135.656 144.671Z" fill="#3F363F"/>
<path d="M159.789 45.2218C159.003 45.1618 158.253 44.8684 157.635 44.3795C157.017 43.8905 156.559 43.2281 156.321 42.4774C156.082 41.7267 156.073 40.9218 156.295 40.1659C156.518 39.4101 156.96 38.7379 157.567 38.2354C158.174 37.7329 158.918 37.4231 159.702 37.3458C160.486 37.2685 161.276 37.4271 161.97 37.8014C162.663 38.1756 163.229 38.7484 163.594 39.4463C163.96 40.1442 164.109 40.9353 164.021 41.7182C163.902 42.7344 163.396 43.6656 162.608 44.3182C161.82 44.9708 160.81 45.2944 159.789 45.2218V45.2218Z" fill="#845C33"/>
<path d="M163.668 24.1153C163.116 24.0567 162.593 23.8358 162.167 23.4804C161.74 23.125 161.428 22.6512 161.27 22.1187C161.113 21.5863 161.117 21.0191 161.282 20.4889C161.447 19.9587 161.765 19.4893 162.197 19.1399C162.629 18.7906 163.155 18.577 163.708 18.5261C164.261 18.4752 164.817 18.5894 165.305 18.8542C165.793 19.1189 166.192 19.5224 166.451 20.0136C166.71 20.5049 166.817 21.0618 166.76 21.614C166.724 21.9823 166.615 22.3399 166.44 22.6658C166.265 22.9918 166.026 23.2795 165.739 23.5124C165.451 23.7452 165.12 23.9185 164.764 24.022C164.409 24.1255 164.036 24.1572 163.668 24.1153V24.1153Z" fill="#845C33"/>
<path d="M148.4 29.7447C147.849 29.682 147.329 29.4578 146.905 29.1004C146.482 28.7429 146.173 28.2681 146.019 27.7358C145.865 27.2035 145.872 26.6375 146.038 26.109C146.205 25.5805 146.525 25.1132 146.957 24.7659C147.389 24.4186 147.914 24.2069 148.467 24.1573C149.019 24.1078 149.574 24.2226 150.061 24.4875C150.548 24.7523 150.945 25.1552 151.204 25.6455C151.462 26.1359 151.57 26.6916 151.513 27.2429C151.475 27.6122 151.364 27.9703 151.186 28.2964C151.009 28.6225 150.768 28.9102 150.479 29.1429C150.189 29.3756 149.856 29.5486 149.5 29.6519C149.143 29.7552 148.769 29.7867 148.4 29.7447V29.7447Z" fill="#845C33"/>
<path d="M117.506 27.3771C116.342 27.2518 115.24 26.784 114.342 26.0331C113.443 25.2821 112.787 24.2816 112.458 23.1582C112.128 22.0347 112.139 20.8388 112.489 19.7216C112.84 18.6044 113.514 17.6161 114.426 16.8818C115.338 16.1474 116.448 15.7 117.615 15.5961C118.782 15.4922 119.953 15.7365 120.981 16.2981C122.009 16.8597 122.847 17.7133 123.389 18.751C123.932 19.7887 124.154 20.9639 124.028 22.1279C123.859 23.6883 123.078 25.1177 121.855 26.1021C120.632 27.0864 119.068 27.545 117.506 27.3771Z" fill="#3F363F"/>
<path d="M132.765 4.02751C132.047 3.95014 131.367 3.66161 130.813 3.19843C130.259 2.73525 129.855 2.11822 129.651 1.42535C129.448 0.732489 129.455 -0.00508657 129.671 -0.694107C129.887 -1.38313 130.302 -1.99265 130.865 -2.44559C131.428 -2.89853 132.112 -3.17454 132.832 -3.23873C133.551 -3.30292 134.274 -3.15241 134.908 -2.80623C135.542 -2.46004 136.059 -1.93372 136.393 -1.29383C136.728 -0.653945 136.865 0.0707755 136.788 0.788685C136.737 1.26538 136.592 1.7273 136.362 2.14805C136.132 2.56881 135.821 2.94015 135.448 3.24091C135.074 3.54166 134.645 3.76593 134.184 3.90089C133.724 4.03586 133.242 4.07889 132.765 4.02751Z" fill="#3F363F"/>
</g>
<defs>
<filter id="filter0_d_42_885" x="-144.165" y="-145.801" width="494.584" height="386.444" filterUnits="userSpaceOnUse" color-interpolation-filters="sRGB">
<feFlood flood-opacity="0" result="BackgroundImageFix"/>
<feColorMatrix in="SourceAlpha" type="matrix" values="0 0 0 0 0 0 0 0 0 0 0 0 0 0 0 0 0 0 127 0" result="hardAlpha"/>
<feOffset dy="4"/>
<feGaussianBlur stdDeviation="2"/>
<feComposite in2="hardAlpha" operator="out"/>
<feColorMatrix type="matrix" values="0 0 0 0 0 0 0 0 0 0 0 0 0 0 0 0 0 0 0.25 0"/>
<feBlend mode="normal" in2="BackgroundImageFix" result="effect1_dropShadow_42_885"/>
<feBlend mode="normal" in="SourceGraphic" in2="effect1_dropShadow_42_885" result="shape"/>
</filter>
<filter id="filter1_d_42_885" x="-142.977" y="-148.847" width="493.219" height="381.765" filterUnits="userSpaceOnUse" color-interpolation-filters="sRGB">
<feFlood flood-opacity="0" result="BackgroundImageFix"/>
<feColorMatrix in="SourceAlpha" type="matrix" values="0 0 0 0 0 0 0 0 0 0 0 0 0 0 0 0 0 0 127 0" result="hardAlpha"/>
<feOffset dy="4"/>
<feGaussianBlur stdDeviation="4"/>
<feComposite in2="hardAlpha" operator="out"/>
<feColorMatrix type="matrix" values="0 0 0 0 0 0 0 0 0 0 0 0 0 0 0 0 0 0 0.15 0"/>
<feBlend mode="normal" in2="BackgroundImageFix" result="effect1_dropShadow_42_885"/>
<feBlend mode="normal" in="SourceGraphic" in2="effect1_dropShadow_42_885" result="shape"/>
</filter>
<clipPath id="clip0_42_885">
<rect width="477.165" height="366.079" fill="white" transform="translate(346.419 220.152) rotate(178.5)"/>
</clipPath>
</defs>
</svg>
