<svg width="308" height="221" viewBox="0 0 308 221" fill="none" xmlns="http://www.w3.org/2000/svg">
<g clip-path="url(#clip0_42_1048)">
<g filter="url(#filter0_d_42_1048)">
<path d="M-137.052 66.9578L310.197 219.905C310.197 219.905 377.054 53.8327 287.852 -141.272L-137.052 66.9578Z" fill="#DE5E3E"/>
</g>
<path d="M242.399 -118.987C305.308 29.4641 272.757 164.347 260.918 203.055L310.197 219.905C310.197 219.905 377.054 53.8327 287.852 -141.272L242.399 -118.987Z" fill="#DDB56C"/>
<path d="M-137.053 66.9578L228.025 192.09C234.152 191.717 254.558 188.698 259.917 177.523C266.614 163.609 248.082 155.002 237.346 144.492C224.28 131.573 227.808 113.396 254.443 103.257C271.607 96.7002 279.785 73.3215 261.656 58.9209C243.527 44.5204 227.276 30.1591 236.824 11.6045C246.372 -6.95007 260.573 -8.27419 259.991 -22.8273C259.408 -37.3804 247.981 -41.3404 234.161 -49.2503C214.882 -60.3042 203.484 -74.24 221.58 -90.3917C232.052 -99.7834 232.869 -108.208 230.124 -112.878L-137.053 66.9578Z" fill="#E7B72B"/>
<path d="M251.327 -123.361L242.398 -118.987C305.307 29.4641 272.756 164.347 260.918 203.055L272.411 206.975C281.105 174.218 317.586 15.4084 251.327 -123.361Z" fill="#C29D50"/>
<path d="M192.672 139.144C192.672 139.144 186.703 158.411 199.805 171.502C212.906 184.593 222.208 184.401 222.208 184.401C222.762 176.129 221.769 167.827 219.282 159.918C215.225 147.628 201.606 139.534 192.672 139.144Z" fill="#94A92A"/>
<path opacity="0.1" d="M192.672 139.144L222.257 184.254C222.797 175.996 221.804 167.71 219.329 159.814C215.225 147.628 201.606 139.534 192.672 139.144Z" fill="black"/>
<path d="M241.621 -25.3599C241.621 -25.3599 221.921 -29.7024 210.084 -15.4992C198.248 -1.29604 199.107 7.90675 199.107 7.90675C207.401 7.76345 215.596 6.07822 223.273 2.93713C234.994 -2.2554 241.808 -16.4215 241.621 -25.3599Z" fill="#94A92A"/>
<path opacity="0.1" d="M241.621 -25.3599L199.149 7.90861C207.429 7.75599 215.608 6.07036 223.273 2.93713C234.994 -2.2554 241.808 -16.4215 241.621 -25.3599Z" fill="black"/>
<path d="M153.264 31.1342C126.736 44.0216 115.786 76.1982 128.807 103.003C141.828 129.807 173.89 141.089 200.419 128.202C226.948 115.314 237.898 83.1376 224.876 56.3332C211.855 29.5288 179.793 18.2468 153.264 31.1342Z" fill="#95322C"/>
<path d="M150.455 100.512C151.742 99.8857 153.187 99.6557 154.605 99.8508C156.023 100.046 157.352 100.657 158.422 101.608C159.493 102.558 160.258 103.805 160.619 105.19C160.981 106.575 160.924 108.036 160.455 109.389C159.986 110.741 159.127 111.925 157.985 112.788C156.844 113.652 155.472 114.158 154.042 114.242C152.613 114.326 151.191 113.984 149.957 113.259C148.722 112.535 147.73 111.46 147.106 110.172C146.69 109.318 146.446 108.39 146.389 107.442C146.332 106.494 146.463 105.544 146.774 104.646C147.085 103.749 147.57 102.921 148.202 102.212C148.834 101.502 149.599 100.925 150.455 100.512Z" fill="#A95254"/>
<path d="M184.489 62.3243C186.171 61.5065 188.059 61.2062 189.912 61.4613C191.765 61.7163 193.501 62.5153 194.899 63.7571C196.298 64.9988 197.298 66.6277 197.771 68.4374C198.244 70.2472 198.169 72.1566 197.557 73.9241C196.944 75.6915 195.821 77.2376 194.33 78.3668C192.839 79.4959 191.046 80.1573 189.179 80.2673C187.311 80.3773 185.453 79.931 183.84 78.9848C182.226 78.0386 180.929 76.6351 180.114 74.9518C179.027 72.6959 178.877 70.1015 179.697 67.7354C180.516 65.3693 182.239 63.424 184.489 62.3243Z" fill="#A95254"/>
<path d="M182.383 94.8983C184.663 93.7912 187.219 93.3854 189.73 93.732C192.24 94.0787 194.591 95.1623 196.485 96.8457C198.379 98.529 199.731 100.736 200.37 103.189C201.009 105.641 200.906 108.228 200.075 110.621C199.243 113.015 197.72 115.108 195.698 116.636C193.676 118.163 191.247 119.057 188.717 119.203C186.187 119.349 183.671 118.742 181.486 117.457C179.302 116.172 177.548 114.269 176.446 111.987C174.971 108.933 174.768 105.418 175.881 102.215C176.994 99.0111 179.332 96.3799 182.383 94.8983Z" fill="#A95254"/>
<path d="M158.12 62.4547C158.594 62.3386 159.094 62.3884 159.535 62.596C159.977 62.8036 160.335 63.1564 160.548 63.5955C160.761 64.0346 160.817 64.5336 160.707 65.0092C160.597 65.4848 160.327 65.9082 159.943 66.209C159.692 66.4052 159.401 66.5427 159.09 66.6116C158.779 66.6806 158.457 66.679 158.146 66.6072C157.836 66.5354 157.546 66.3951 157.297 66.1967C157.048 65.9982 156.847 65.7465 156.708 65.4601C156.569 65.1737 156.496 64.8599 156.494 64.5415C156.491 64.2231 156.561 63.9083 156.696 63.6202C156.831 63.332 157.03 63.0778 157.276 62.8761C157.522 62.6745 157.811 62.5305 158.12 62.4547Z" fill="#A95254"/>
<path d="M208.81 67.5094C209.312 67.278 209.885 67.2505 210.407 67.4327C210.929 67.6149 211.36 67.9926 211.609 68.4862C211.801 68.8659 211.874 69.2943 211.821 69.7163C211.767 70.1383 211.589 70.5347 211.309 70.8546C211.028 71.1745 210.659 71.4034 210.248 71.5118C209.836 71.6202 209.402 71.6032 209 71.4631C208.599 71.3229 208.248 71.0659 207.993 70.7251C207.739 70.3843 207.592 69.9752 207.572 69.5503C207.551 69.1255 207.658 68.7042 207.879 68.3405C208.1 67.9769 208.424 67.6875 208.81 67.5094Z" fill="#A95254"/>
<path d="M162.854 82.7225C163.612 82.3333 164.47 82.1801 165.316 82.2825C166.162 82.3849 166.958 82.7383 167.602 83.2971C168.245 83.8559 168.707 84.5945 168.927 85.4179C169.147 86.2413 169.116 87.1118 168.837 87.9172C168.558 88.7226 168.044 89.4261 167.362 89.937C166.68 90.448 165.86 90.743 165.009 90.7842C164.158 90.8253 163.313 90.6107 162.585 90.1679C161.857 89.7251 161.278 89.0745 160.923 88.2997C160.464 87.3003 160.409 86.1625 160.769 85.1235C161.129 84.0846 161.876 83.2245 162.854 82.7225Z" fill="#A95254"/>
<path d="M143.619 45.6916C144.377 45.3025 145.235 45.1492 146.081 45.2516C146.927 45.3541 147.723 45.7074 148.367 46.2662C149.01 46.825 149.472 47.5637 149.692 48.3871C149.912 49.2105 149.881 50.0809 149.602 50.8863C149.323 51.6917 148.809 52.3952 148.127 52.9061C147.445 53.4171 146.625 53.7122 145.774 53.7533C144.923 53.7945 144.079 53.5798 143.35 53.137C142.622 52.6942 142.043 52.0436 141.688 51.2688C141.447 50.7761 141.306 50.2406 141.272 49.6931C141.239 49.1456 141.314 48.597 141.494 48.0787C141.673 47.5604 141.954 47.0827 142.318 46.673C142.683 46.2634 143.125 45.9298 143.619 45.6916Z" fill="#A95254"/>
<path d="M141.212 70.9673C142.275 70.4518 143.467 70.2629 144.637 70.4245C145.808 70.5861 146.904 71.0909 147.787 71.8752C148.671 72.6595 149.302 73.688 149.602 74.8309C149.901 75.9738 149.855 77.1797 149.469 78.2963C149.083 79.4129 148.375 80.3902 147.434 81.1045C146.493 81.8189 145.361 82.2384 144.182 82.31C143.003 82.3815 141.829 82.102 140.808 81.5066C139.788 80.9113 138.967 80.0269 138.449 78.9651C137.759 77.5375 137.662 75.8946 138.18 74.3958C138.698 72.897 139.788 71.6643 141.212 70.9673Z" fill="#A95254"/>
<path d="M197.731 47.2424C198.491 46.8848 199.34 46.7594 200.172 46.8821C201.003 47.0047 201.779 47.3699 202.404 47.9319C203.028 48.494 203.473 49.2278 203.682 50.0415C203.892 50.8552 203.856 51.7126 203.581 52.5062C203.305 53.2999 202.801 53.9945 202.132 54.503C201.463 55.0116 200.659 55.3115 199.821 55.3652C198.982 55.4188 198.147 55.2239 197.419 54.8047C196.69 54.3855 196.102 53.7608 195.728 53.0087C195.474 52.4997 195.325 51.9452 195.288 51.3777C195.252 50.8102 195.329 50.2412 195.516 49.704C195.703 49.1668 195.995 48.6724 196.375 48.2496C196.756 47.8269 197.217 47.4845 197.731 47.2424Z" fill="#A95254"/>
<path d="M207.763 83.1878C208.826 82.6723 210.017 82.4834 211.188 82.6449C212.358 82.8065 213.454 83.3114 214.338 84.0956C215.221 84.8799 215.853 85.9085 216.152 87.0513C216.451 88.1942 216.405 89.4001 216.019 90.5168C215.633 91.6334 214.925 92.6106 213.984 93.325C213.043 94.0394 211.912 94.4588 210.732 94.5304C209.553 94.602 208.379 94.3224 207.359 93.7271C206.338 93.1317 205.517 92.2473 204.999 91.1855C204.655 90.4791 204.453 89.7117 204.405 88.9271C204.357 88.1426 204.465 87.3563 204.722 86.6134C204.978 85.8705 205.379 85.1855 205.901 84.5977C206.423 84.0099 207.055 83.5308 207.763 83.1878Z" fill="#A95254"/>
<path d="M169.014 34.6014C170.624 33.817 172.43 33.5278 174.204 33.7705C175.979 34.0132 177.641 34.7769 178.981 35.9648C180.321 37.1527 181.279 38.7115 181.732 40.4439C182.186 42.1762 182.116 44.0042 181.53 45.6965C180.944 47.3888 179.87 48.8694 178.442 49.9507C177.015 51.032 175.299 51.6655 173.511 51.771C171.723 51.8765 169.945 51.4493 168.4 50.5434C166.855 49.6374 165.614 48.2936 164.833 46.6819C164.313 45.6144 164.009 44.4549 163.937 43.2695C163.866 42.0842 164.029 40.8965 164.417 39.7743C164.806 38.6522 165.412 37.6176 166.2 36.73C166.989 35.8423 167.945 35.119 169.014 34.6014Z" fill="#A95254"/>
<path d="M280.971 208.118C280.971 208.118 332.199 38.4147 259.807 -125.79C259.807 -125.79 344.824 11.0429 280.971 208.118Z" fill="#F2D19A"/>
<path d="M0.720919 -52.3647C-24.0478 -40.3323 -34.2714 -10.2904 -22.1139 14.7358C-9.95648 39.7619 19.9782 50.2954 44.7469 38.263C69.5157 26.2306 79.7392 -3.81127 67.5817 -28.8374C55.4243 -53.8636 25.4897 -64.3971 0.720919 -52.3647Z" fill="#95322C"/>
<path d="M-1.97564 12.4276C-0.773576 11.8431 0.574835 11.6284 1.89899 11.8105C3.22314 11.9927 4.46349 12.5635 5.46309 13.4508C6.4627 14.3382 7.17664 15.5021 7.51454 16.7953C7.85243 18.0885 7.79911 19.4528 7.36133 20.7157C6.92354 21.9786 6.12096 23.0833 5.05516 23.8899C3.98936 24.6965 2.70827 25.1688 1.37394 25.247C0.039611 25.3253 -1.28796 25.006 -2.44075 24.3295C-3.59353 23.653 -4.51974 22.6498 -5.10215 21.4467C-5.49098 20.6495 -5.71852 19.7835 -5.77176 18.8981C-5.825 18.0128 -5.7029 17.1257 -5.41241 16.2877C-5.12191 15.4497 -4.66874 14.6773 -4.07897 14.0149C-3.48919 13.3524 -2.77442 12.813 -1.97564 12.4276Z" fill="#A95254"/>
<path d="M27.8936 7.209C30.0206 6.17214 32.4075 5.78974 34.7521 6.11019C37.0966 6.43065 39.2933 7.43957 41.064 9.0092C42.8348 10.5788 44.1 12.6386 44.6995 14.9277C45.299 17.2168 45.2058 19.6323 44.4316 21.8684C43.6575 24.1045 42.2373 26.0606 40.3508 27.4891C38.4643 28.9175 36.1964 29.7541 33.8341 29.8929C31.4719 30.0317 29.1216 29.4665 27.0808 28.2688C25.04 27.0711 23.4005 25.2947 22.3698 23.1647C20.9912 20.3156 20.7985 17.0361 21.834 14.0452C22.8694 11.0542 25.0485 8.59588 27.8936 7.209Z" fill="#A95254"/>
<path d="M9.67939 -4.15814C10.3874 -4.52147 11.1879 -4.66451 11.9779 -4.5689C12.768 -4.47329 13.5113 -4.1434 14.1121 -3.62167C14.713 -3.09994 15.1439 -2.41028 15.3494 -1.6415C15.5549 -0.872719 15.5257 -0.0600073 15.2653 0.691961C15.0049 1.44393 14.5253 2.10072 13.8884 2.57778C13.2515 3.05484 12.4863 3.33034 11.6915 3.36875C10.8966 3.40717 10.1084 3.20676 9.42847 2.79334C8.74851 2.37993 8.20791 1.77244 7.87621 1.04909C7.44832 0.115955 7.397 -0.946318 7.73291 -1.91637C8.06882 -2.88642 8.76607 -3.68944 9.67939 -4.15814Z" fill="#A95254"/>
<path d="M51.59 -3.74463C52.5824 -4.22595 53.6953 -4.40232 54.7879 -4.25145C55.8806 -4.10058 56.904 -3.62924 57.7289 -2.89699C58.5538 -2.16474 59.1432 -1.20443 59.4226 -0.137376C59.702 0.929682 59.6588 2.05561 59.2986 3.09817C58.9384 4.14072 58.2773 5.05311 57.3988 5.72009C56.5203 6.38708 55.4637 6.77873 54.3627 6.84554C53.2617 6.91236 52.1657 6.65136 51.2129 6.09551C50.2602 5.53967 49.4936 4.71391 49.0099 3.72258C48.3655 2.38966 48.2751 0.855758 48.7586 -0.543592C49.2421 -1.94294 50.2601 -3.09385 51.59 -3.74463Z" fill="#A95254"/>
<path d="M119.567 45.1115C119.567 45.1115 104.466 25.9507 82.333 29.3641C60.2001 32.7774 40.7279 57.4575 49.2215 87.0333C57.715 116.609 80.6457 130.642 103.532 132.475L119.567 45.1115Z" fill="#C4010A"/>
<path d="M111.8 54.1941C111.8 54.1941 100.808 40.2334 84.6771 42.7123C68.5456 45.1913 54.362 63.2444 60.5596 84.7297C66.7572 106.215 83.463 116.516 100.133 117.842L111.8 54.1941Z" fill="#5F2A1C"/>
<path d="M87.4743 62.3186C75.8029 71.7648 76.7804 95.3723 108.889 103.248L114.467 73.3461C110.159 65.3387 95.9114 55.5086 87.4743 62.3186Z" fill="#DC3B37"/>
<path d="M97.2556 51.1448C97.8388 51.8021 98.1371 52.6641 98.0848 53.5413C98.0325 54.4184 97.6338 55.2389 96.9766 55.8221C96.3193 56.4054 95.4573 56.7037 94.5802 56.6513C93.703 56.599 92.8825 56.2004 92.2993 55.5431C92.0105 55.2177 91.7886 54.8386 91.6463 54.4274C91.5041 54.0162 91.4442 53.581 91.4701 53.1467C91.496 52.7124 91.6072 52.2874 91.7973 51.8961C91.9875 51.5047 92.2529 51.1547 92.5783 50.8659C92.9037 50.5771 93.2829 50.3552 93.694 50.2129C94.1052 50.0706 94.5404 50.0108 94.9747 50.0367C95.409 50.0626 95.834 50.1737 96.2254 50.3639C96.6167 50.554 96.9668 50.8194 97.2556 51.1448Z" fill="#E8A33E"/>
<path d="M85.1006 53.5625C85.5474 54.0473 85.8402 54.6539 85.9418 55.3054C86.0435 55.9568 85.9495 56.6238 85.6717 57.2218C85.3939 57.8197 84.9448 58.3217 84.3813 58.6641C83.8179 59.0066 83.1654 59.174 82.5067 59.1453C81.848 59.1165 81.2127 58.8928 80.6813 58.5026C80.1498 58.1124 79.7462 57.5731 79.5215 56.9532C79.2969 56.3334 79.2614 55.6607 79.4195 55.0206C79.5775 54.3805 79.9221 53.8017 80.4094 53.3576C80.7301 53.0616 81.1062 52.8319 81.5161 52.6819C81.926 52.5319 82.3615 52.4644 82.7976 52.4835C83.2337 52.5025 83.6617 52.6077 84.057 52.7928C84.4522 52.978 84.8069 53.2396 85.1006 53.5625Z" fill="#E8A33E"/>
<path d="M76.9409 63.8029C77.3877 64.2877 77.6805 64.8943 77.7822 65.5458C77.8838 66.1972 77.7898 66.8642 77.512 67.4621C77.2342 68.0601 76.7851 68.5621 76.2216 68.9045C75.6582 69.247 75.0058 69.4144 74.3471 69.3856C73.6884 69.3569 73.053 69.1332 72.5216 68.743C71.9901 68.3527 71.5865 67.8135 71.3619 67.1936C71.1372 66.5737 71.1017 65.9011 71.2597 65.261C71.4178 64.6209 71.7623 64.0421 72.2497 63.5981C72.9 63.0054 73.7585 62.6943 74.6375 62.7327C75.5166 62.7711 76.3447 63.1558 76.9409 63.8029Z" fill="#E8A33E"/>
<path d="M69.0841 78.5C68.9779 80.3359 70.3801 81.9102 72.216 82.0164C74.0518 82.1225 75.6261 80.7204 75.7323 78.8845C75.8385 77.0487 74.4363 75.4744 72.6005 75.3682C70.7646 75.262 69.1903 76.6642 69.0841 78.5Z" fill="#E8A33E"/>
<path d="M79.92 88.5445C80.3627 89.0267 80.6524 89.6294 80.7524 90.2763C80.8524 90.9232 80.7583 91.5852 80.4819 92.1786C80.2055 92.772 79.7593 93.2701 79.1998 93.6098C78.6403 93.9495 77.9926 94.1156 77.3386 94.087C76.6847 94.0585 76.0539 93.8366 75.5261 93.4494C74.9983 93.0622 74.5972 92.5271 74.3736 91.9119C74.15 91.2967 74.1139 90.629 74.2699 89.9933C74.426 89.3576 74.7671 88.7824 75.2501 88.3407C75.8968 87.7492 76.7517 87.4385 77.6272 87.4767C78.5027 87.5149 79.3273 87.899 79.92 88.5445Z" fill="#E8A33E"/>
<path d="M88.8585 97.1601C89.2981 97.6433 89.5848 98.2459 89.6825 98.8919C89.7801 99.5379 89.6842 100.198 89.4071 100.79C89.1299 101.381 88.6838 101.878 88.125 102.216C87.5662 102.555 86.9197 102.72 86.267 102.691C85.6143 102.663 84.9847 102.442 84.4575 102.056C83.9303 101.67 83.5291 101.137 83.3046 100.523C83.08 99.9099 83.0421 99.2437 83.1957 98.6087C83.3492 97.9737 83.6873 97.3984 84.1674 96.9553C84.4881 96.6592 84.8643 96.4296 85.2742 96.2795C85.6841 96.1295 86.1196 96.0621 86.5556 96.0811C86.9917 96.1001 87.4197 96.2053 87.8149 96.3905C88.2102 96.5756 88.5648 96.8372 88.8585 97.1601Z" fill="#E8A33E"/>
<path d="M-23.142 105.687C-23.142 105.687 -2.01528 93.5129 -2.21145 71.0932C-2.40762 48.6735 -24.1658 25.8893 -54.5149 30.0762C-84.8641 34.2631 -102.196 54.9347 -107.296 77.3154L-23.142 105.687Z" fill="#C4010A"/>
<path d="M125.113 32.1078C125.113 32.1078 152.585 31.1709 163.488 8.50941C174.39 -14.1521 170.084 -26.1118 170.084 -26.1118C159.179 -23.1371 148.925 -18.1504 139.852 -11.4085C126.162 -0.747279 121.912 20.2605 125.113 32.1078Z" fill="#94A92A"/>
<path opacity="0.1" d="M125.113 32.1078L170.04 -26.0923C159.145 -23.1189 148.9 -18.1395 139.831 -11.4095C126.162 -0.747284 121.912 20.2605 125.113 32.1078Z" fill="black"/>
<path d="M126.175 32.2396C126.175 32.2396 139.361 16.9844 132.526 -0.191775C125.692 -17.3679 117.176 -20.9871 117.176 -20.9871C113.341 -13.6303 110.919 -5.62 110.035 2.62906C108.945 15.3573 118.153 28.0865 126.175 32.2396Z" fill="#94A92A"/>
<path opacity="0.1" d="M126.175 32.2396L117.153 -20.9454C113.335 -13.5981 110.921 -5.60328 110.035 2.62906C108.945 15.3573 118.153 28.0865 126.175 32.2396Z" fill="black"/>
<path d="M0.285204 101.988C0.285204 101.988 19.3757 121.772 43.5331 114.559C67.6906 107.345 73.6438 96.2608 73.6438 96.2608C64.1274 90.1597 53.553 85.8938 42.467 83.6833C25.3195 80.5632 6.89191 91.5945 0.285204 101.988Z" fill="#94A92A"/>
<path opacity="0.1" d="M0.28523 101.988L73.6021 96.2375C64.0886 90.1688 53.531 85.9191 42.4661 83.7046C25.3195 80.5632 6.89194 91.5944 0.28523 101.988Z" fill="black"/>
<path d="M0.869211 102.804C0.869211 102.804 21.0351 102.36 29.1949 85.753C37.3548 69.146 34.2997 60.3387 34.2997 60.3387C26.2765 62.4336 18.7152 66.0089 12.0051 70.8807C1.83595 78.7047 -1.50541 94.0692 0.869211 102.804Z" fill="#94A92A"/>
<path opacity="0.1" d="M0.869177 102.804L34.1466 60.4175C26.1391 62.5202 18.5931 66.0958 11.8947 70.9613C1.83588 78.7047 -1.50544 94.0692 0.869177 102.804Z" fill="black"/>
</g>
<defs>
<filter id="filter0_d_42_1048" x="-145.052" y="-145.272" width="487.304" height="377.177" filterUnits="userSpaceOnUse" color-interpolation-filters="sRGB">
<feFlood flood-opacity="0" result="BackgroundImageFix"/>
<feColorMatrix in="SourceAlpha" type="matrix" values="0 0 0 0 0 0 0 0 0 0 0 0 0 0 0 0 0 0 127 0" result="hardAlpha"/>
<feOffset dy="4"/>
<feGaussianBlur stdDeviation="4"/>
<feComposite in2="hardAlpha" operator="out"/>
<feColorMatrix type="matrix" values="0 0 0 0 0 0 0 0 0 0 0 0 0 0 0 0 0 0 0.15 0"/>
<feBlend mode="normal" in2="BackgroundImageFix" result="effect1_dropShadow_42_1048"/>
<feBlend mode="normal" in="SourceGraphic" in2="effect1_dropShadow_42_1048" result="shape"/>
</filter>
<clipPath id="clip0_42_1048">
<rect width="471.466" height="359.859" fill="white" transform="translate(328.171 220.69) rotate(-177.5)"/>
</clipPath>
</defs>
</svg>
