<?xml version="1.0" standalone="no"?>
<!DOCTYPE svg PUBLIC "-//W3C//DTD SVG 20010904//EN"
 "http://www.w3.org/TR/2001/REC-SVG-20010904/DTD/svg10.dtd">
<svg version="1.0" xmlns="http://www.w3.org/2000/svg"
 width="700.000000pt" height="700.000000pt" viewBox="0 0 700.000000 700.000000"
 preserveAspectRatio="xMidYMid meet">
<metadata>
Created by potrace 1.14, written by Peter Selinger 2001-2017
</metadata>
<g transform="translate(0.000000,700.000000) scale(0.100000,-0.100000)"
fill="#000000" stroke="none">
<path d="M0 3500 l0 -3501 2278 4 c1252 1 2288 6 2302 9 14 4 50 9 80 13 30 3
109 17 175 30 617 125 1166 456 1558 939 314 387 523 869 582 1341 3 28 9 66
12 85 4 19 9 1058 10 2308 l4 2272 -3501 0 -3500 0 0 -3500z m6837 1142 c-1
-1208 -5 -2206 -9 -2218 -3 -12 -9 -45 -13 -75 -7 -64 -41 -231 -62 -309 -19
-71 -91 -284 -114 -335 l-18 -40 -3231 -1 -3230 0 0 2587 0 2588 3340 -1 3341
0 -4 -2196z"/>
<path d="M1655 6488 c-258 -31 -415 -141 -487 -345 -68 -193 -53 -482 34 -645
60 -113 172 -198 303 -231 107 -27 127 -30 310 -32 191 -3 343 15 456 52 l54
18 0 180 c1 132 6 205 19 275 14 70 16 107 9 140 l-9 45 -277 3 -278 2 3 -137
3 -138 70 0 70 0 6 -38 c10 -62 -17 -78 -131 -77 -191 1 -278 87 -282 279 -4
190 60 270 236 295 29 4 73 -7 256 -62 91 -28 165 -50 166 -49 0 1 28 70 61
153 l60 151 -121 70 c-74 43 -138 73 -166 78 -25 4 -56 9 -70 12 -48 8 -226 9
-295 1z"/>
<path d="M3028 6495 c-2 -1 -28 -5 -58 -8 -217 -23 -387 -150 -457 -342 -26
-72 -35 -138 -39 -266 -9 -354 138 -564 439 -630 173 -38 379 -16 521 55 153
76 243 206 272 391 3 22 8 43 10 47 6 9 6 203 0 240 -2 14 -7 39 -10 55 -4 15
-8 39 -11 52 -8 44 -39 116 -70 166 -75 119 -216 203 -385 231 -44 7 -206 14
-212 9z m183 -375 c72 -37 110 -124 113 -260 2 -60 -24 -163 -49 -201 -28 -44
-93 -77 -155 -80 -172 -10 -254 91 -246 304 5 150 57 233 159 257 50 12 133 2
178 -20z"/>
<path d="M4388 6495 c-2 -2 -26 -6 -53 -9 -83 -9 -186 -46 -257 -91 -107 -70
-177 -172 -214 -315 -24 -92 -26 -319 -4 -415 68 -292 284 -442 625 -431 167
6 226 19 338 79 204 108 302 365 262 687 -38 304 -249 482 -586 494 -59 2
-109 3 -111 1z m190 -374 c78 -40 114 -121 115 -255 1 -215 -93 -310 -278
-283 -64 9 -119 53 -148 116 -17 38 -20 67 -20 161 -1 129 15 181 71 233 58
55 181 69 260 28z"/>
<path d="M5274 6424 c-15 -48 -15 -61 -3 -112 10 -42 15 -185 19 -562 l5 -505
325 1 c345 0 414 4 507 28 216 56 353 210 389 438 11 74 11 245 -2 315 -33
190 -114 308 -259 378 -131 62 -177 68 -592 70 l-372 3 -17 -54z m713 -298
c61 -19 107 -66 124 -128 17 -62 18 -185 2 -248 -33 -129 -108 -170 -325 -174
l-108 -2 -1 25 c-1 30 -1 521 0 538 1 17 243 9 308 -11z"/>
<path d="M834 6398 c-29 -31 -31 -38 -30 -105 1 -73 -6 -89 -37 -77 -10 4 -13
22 -11 69 4 68 5 67 -46 67 -46 0 -46 0 -45 -59 2 -70 -2 -82 -23 -79 -14 2
-18 17 -20 82 l-3 80 -44 16 c-43 16 -45 16 -55 -2 -5 -10 -10 -82 -10 -159
l0 -141 163 -1 c89 -1 178 -2 197 -3 l35 -1 3 159 c2 157 -2 186 -32 186 -7 0
-26 -15 -42 -32z"/>
<path d="M514 6001 c-2 -2 -4 -30 -4 -61 l0 -58 70 0 c38 0 73 -3 78 -6 4 -2
8 -29 8 -58 l-1 -53 -75 0 -75 -1 0 -64 0 -64 30 1 c17 0 105 1 198 2 l167 1
0 65 0 65 -69 -4 -69 -4 -4 32 c-2 17 -1 44 2 61 l5 30 68 -3 67 -3 0 66 0 65
-196 -2 c-108 -2 -198 -5 -200 -7z"/>
<path d="M512 5416 c0 -123 3 -176 11 -178 7 -2 32 -3 57 -3 l45 0 -3 58 -2
57 144 0 144 0 4 56 c1 31 1 59 -2 63 -3 4 -69 6 -148 6 l-143 -1 3 55 3 56
-57 3 -56 3 0 -175z"/>
<path d="M529 4990 c-19 -12 -46 -115 -38 -145 5 -16 11 -45 14 -65 3 -19 8
-48 12 -65 3 -16 7 -266 7 -555 l1 -525 203 0 c164 0 206 2 215 14 11 13 13
149 5 291 l-3 45 130 1 c177 2 244 10 333 40 89 29 163 78 209 135 106 134
123 424 37 606 -56 118 -152 186 -304 215 -56 11 -805 18 -821 8z m688 -385
c56 -33 75 -121 42 -194 -22 -50 -56 -62 -198 -65 -129 -3 -118 -19 -127 164
l-7 123 130 -5 c102 -3 135 -8 160 -23z"/>
<path d="M1908 4992 l-47 -3 -7 -57 c-4 -31 -7 -59 -7 -62 11 -59 17 -275 17
-705 l1 -530 200 0 c110 -1 206 1 212 3 10 3 13 150 13 678 l0 674 -38 0 c-20
0 -95 2 -167 3 -71 1 -151 1 -177 -1z"/>
<path d="M2504 4991 c-2 -2 -4 -85 -4 -183 l0 -178 270 0 271 0 -64 -92 c-35
-51 -108 -158 -162 -238 -140 -205 -239 -351 -311 -456 l-62 -92 24 -48 c14
-27 29 -53 35 -59 6 -6 200 -10 558 -10 l548 0 -1 200 -1 200 -30 -1 c-50 -3
-198 -16 -216 -19 -37 -7 -249 -16 -249 -11 0 6 369 578 452 701 l41 60 1 108
c1 62 -3 112 -9 115 -11 7 -1084 9 -1091 3z"/>
<path d="M3763 4813 l0 -183 269 0 269 0 -138 -202 c-75 -112 -210 -310 -299
-440 l-161 -238 30 -57 30 -58 551 1 551 0 3 202 2 201 -27 -3 c-16 -2 -71 -7
-123 -11 -52 -4 -104 -9 -114 -11 -40 -7 -236 -16 -236 -11 0 4 52 86 116 184
64 98 140 214 169 258 29 44 87 134 131 200 l78 120 1 100 c1 55 -1 107 -4
115 -5 13 -76 15 -552 15 l-546 0 0 -182z"/>
<path d="M5439 4963 c-16 -41 -175 -471 -218 -592 -40 -111 -41 -112 -136
-151 l-50 -20 2 -118 c1 -111 -1 -125 -44 -275 -25 -87 -42 -161 -39 -165 4
-3 102 -6 219 -7 l212 0 41 140 41 140 260 3 261 2 48 -142 49 -143 208 0 207
-1 0 112 0 112 -79 148 c-54 102 -111 234 -181 419 -126 335 -168 444 -180
470 -5 11 -14 37 -21 58 l-13 37 -288 0 -288 0 -11 -27z m379 -511 c34 -103
62 -190 62 -192 0 -7 -269 -4 -276 3 -3 3 21 88 53 189 78 249 78 249 161 0z"/>
<path d="M1145 3432 c-119 -11 -273 -61 -362 -118 -197 -126 -297 -344 -296
-644 0 -266 56 -433 188 -565 141 -142 323 -198 615 -190 170 4 285 27 425 82
l95 37 0 208 c0 164 -3 208 -13 208 -7 0 -17 -4 -23 -9 -16 -15 -167 -68 -244
-86 -96 -22 -267 -26 -343 -9 -104 25 -147 57 -189 143 -20 41 -23 61 -23 176
0 123 2 133 28 184 39 73 99 128 161 146 27 8 55 15 62 15 6 0 100 -40 207
-90 108 -49 199 -90 204 -90 4 0 48 66 97 148 50 81 96 157 103 169 13 20 8
26 -102 120 -64 54 -131 106 -149 116 -63 34 -311 61 -441 49z"/>
<path d="M2081 2832 c0 -320 -2 -586 -5 -590 -2 -4 -7 -23 -10 -42 -3 -19 -10
-60 -16 -90 -9 -46 -7 -63 11 -117 l20 -62 544 -1 544 0 48 65 c26 36 48 68
48 72 0 5 -40 75 -89 156 -87 145 -90 148 -120 143 -103 -15 -164 -20 -398
-32 l-137 -6 7 88 c4 49 7 294 7 544 l0 455 -227 0 -227 0 0 -583z"/>
<path d="M3336 3410 c-5 -12 2 -989 8 -1029 33 -222 142 -359 339 -425 165
-55 496 -57 667 -5 137 43 242 128 297 244 62 131 65 166 67 705 1 267 0 492
-2 501 -3 15 -29 16 -230 15 l-227 -1 -1 -425 c-1 -541 -5 -576 -73 -633 -74
-62 -234 -62 -303 0 -31 28 -55 82 -65 148 -5 33 -8 250 -8 482 0 233 -2 424
-5 424 -17 5 -462 4 -464 -1z"/>
<path d="M4986 3410 c-7 -11 -40 -115 -39 -120 1 -3 4 -22 7 -42 3 -21 11 -59
18 -85 8 -34 12 -219 13 -638 l1 -590 520 0 c465 0 546 2 619 19 63 14 140 53
185 93 99 89 140 195 136 356 -1 88 -5 110 -29 161 -41 88 -120 157 -220 190
-16 5 -14 12 22 52 69 78 95 177 80 293 -22 159 -137 261 -339 302 -56 11
-969 20 -974 9z m789 -411 c68 -33 71 -108 5 -141 -29 -15 -62 -18 -185 -18
l-150 0 2 72 c1 40 2 81 2 90 1 15 15 17 149 15 103 -2 156 -7 177 -18z m126
-487 c63 -32 69 -119 11 -159 -24 -16 -54 -18 -241 -21 -132 -2 -216 0 -220 6
-5 9 -6 76 -2 170 l1 23 209 -1 c174 -1 214 -4 242 -18z"/>
</g>
</svg>
