<svg width="101" height="101" viewBox="0 0 101 101" fill="none" xmlns="http://www.w3.org/2000/svg">
<g clip-path="url(#clip0_200:4002)">
<path d="M17.8928 73.4316C16.5301 73.4393 15.1715 73.2808 13.8471 72.9596C12.5742 72.6513 11.3819 72.0742 10.3503 71.2672C9.26035 70.3749 8.41757 69.2179 7.90262 67.9068C7.29652 66.4778 6.99465 64.6537 6.99698 62.4344C6.95004 60.6937 7.24834 58.9609 7.87467 57.3361C8.39183 56.0298 9.2101 54.8641 10.2629 53.9338C11.282 53.0604 12.4734 52.4111 13.7597 52.0281C15.1029 51.6207 16.4996 51.4167 17.9033 51.4231C18.9118 51.4215 19.9187 51.5022 20.914 51.6644C21.6444 51.7596 22.3606 51.9427 23.0471 52.2099L26.7046 55.2661L23.6799 60.2559L17.8928 57.5739C17.2124 57.5718 16.5458 57.766 15.9731 58.1334C15.3487 58.5352 14.8458 59.0998 14.5185 59.7664C14.1226 60.5912 13.9307 61.499 13.959 62.4134C13.959 63.7422 14.1665 64.7655 14.5814 65.4835C14.9689 66.1801 15.6062 66.7038 16.3647 66.9487C17.2604 67.2293 18.1957 67.3627 19.1342 67.3438C20.1152 67.3496 21.0937 67.2428 22.0504 67.0256C22.8841 66.8413 23.7024 66.5934 24.4982 66.2843C25.046 66.0739 25.5808 65.8311 26.0997 65.557V71.6099C25.6976 71.8092 25.1276 72.0574 24.3898 72.3477C23.5078 72.6823 22.5972 72.9362 21.6693 73.1065C20.4237 73.3346 19.1591 73.4435 17.8928 73.4316Z" fill="#1F1F1F"/>
<path d="M30.0231 73.1274L29.4182 71.3126L30.0231 68.2879V51.7098H36.667V63.2491L36.3627 67.3928H36.9677L42.3841 67.092L44.5311 66.7878L47.1922 71.2042L45.7095 73.1414L30.0231 73.1274Z" fill="#1F1F1F"/>
<path d="M58.0635 73.4316C54.5342 73.4316 51.9932 72.7207 50.4407 71.2986C48.8881 69.8766 48.1118 67.5921 48.1118 64.445V56.5808L48.1433 53.5247L48.1118 51.7099H54.8885V62.9344C54.8808 63.7551 54.9511 64.5747 55.0983 65.3822C55.2005 66.0291 55.5214 66.6215 56.0075 67.0606C56.4737 67.4639 57.173 67.6655 58.1055 67.6655C59.038 67.6655 59.7536 67.4837 60.2525 67.12C60.7425 66.7164 61.0662 66.1461 61.1617 65.5185C61.3145 64.66 61.3848 63.7889 61.3715 62.917V51.6924H68.0153V64.4275C68.0153 66.4859 67.682 68.1749 67.0153 69.4943C66.3412 70.8241 65.2156 71.8704 63.8402 72.4456C62.3902 73.1006 60.4647 73.4293 58.0635 73.4316Z" fill="#1F1F1F"/>
<path d="M71.9457 73.1274V56.5528L71.3442 53.5247L71.9457 51.7098H83.4325C85.71 51.7098 87.5342 52.1539 88.9049 53.0421C90.2756 53.9303 90.9621 55.2812 90.9645 57.0948C90.9986 57.9427 90.8157 58.7852 90.433 59.5426C90.0924 60.1627 89.6353 60.7113 89.0867 61.1581C89.7846 61.3273 90.4427 61.6314 91.0239 62.0532C91.6449 62.5053 92.1524 63.0955 92.5065 63.7771C92.9125 64.5988 93.1095 65.5081 93.08 66.4242C93.08 68.5409 92.4599 70.189 91.2197 71.3686C89.9795 72.5481 87.9887 73.1379 85.2473 73.1379L71.9457 73.1274ZM78.5895 60.0286H82.1561C82.6704 60.0692 83.1854 59.9599 83.6388 59.7139C83.7918 59.6014 83.9137 59.4519 83.9932 59.2795C84.0727 59.107 84.1072 58.9172 84.0934 58.7278C84.1019 58.5146 84.0421 58.3042 83.9226 58.1274C83.803 57.9506 83.6301 57.8167 83.429 57.7452C82.9291 57.5447 82.3939 57.4472 81.8554 57.4585H78.5895V60.0286ZM78.5895 67.3718H83.7297C84.5374 67.3718 85.1004 67.2459 85.4256 66.9941C85.5811 66.8766 85.7061 66.7235 85.79 66.5477C85.874 66.3718 85.9145 66.1783 85.9081 65.9836C85.9081 65.0138 85.2834 64.5289 84.0339 64.5289H78.5895V67.3718Z" fill="#1F1F1F"/>
<path d="M13.1479 23.8234H8.95179L9.0322 25.4493H7.39575V20.3616H9.0322L8.95179 22.0295H11.8576L12.6723 21.9421L13.1619 22.0295L13.1479 23.8234Z" fill="#1F1F1F"/>
<path d="M13.1477 19.6273H8.69287L7.87815 19.7112L7.38159 19.6273V17.8369H9.58802V16.134H7.38159V14.3437H10.4412L11.0042 14.2598H13.1477V16.134H11.0776V17.8369H11.6476L13.1477 17.7565V19.6273Z" fill="#1F1F1F"/>
<path d="M13.1477 13.1198L12.6582 13.2841L11.8434 13.1198H7.38159V8.92371L7.62635 8.51808L9.02505 9.05308L8.94113 9.7874V11.3085H9.59502V9.31884H10.9378V10.4413L10.8573 11.3295H11.6126V9.07406L12.6407 8.10547L13.1617 8.58452L13.1477 13.1198Z" fill="#1F1F1F"/>
<path d="M26.2851 25.5612C24.9372 25.5718 23.5918 25.4417 22.2709 25.1731C21.119 24.9435 20.0309 24.4662 19.0818 23.7744C18.1387 23.0524 17.4128 22.0845 16.9838 20.977C16.4434 19.517 16.1917 17.9661 16.2425 16.4102C16.1895 14.8576 16.4548 13.3106 17.0222 11.8644C17.4701 10.7618 18.2011 9.7968 19.1413 9.06705C20.0504 8.39567 21.0885 7.91947 22.1904 7.66835C23.3588 7.39788 24.5544 7.26295 25.7536 7.26623C26.5085 7.26244 27.2628 7.30447 28.0125 7.3921C28.6374 7.46465 29.2574 7.57441 29.8693 7.7208L33.2821 9.70346L31.5337 14.1198L25.9844 12.4659C25.3078 12.461 24.6359 12.5795 24.0018 12.8156C23.3981 13.0414 22.8889 13.4655 22.5576 14.0184C22.1568 14.7694 21.9705 15.6163 22.0191 16.4662C22.0191 18.0723 22.3688 19.1971 23.0681 19.8405C23.7675 20.4839 24.7501 20.8068 26.0159 20.8091C26.4186 20.8144 26.821 20.7852 27.2188 20.7217C27.4927 20.6749 27.7619 20.6035 28.023 20.5084V19.1097H25.8411V15.1479H33.8206L34.0969 16.6515L33.5444 19.2391V24.5087C33.359 24.5751 32.9464 24.694 32.303 24.8584C31.4798 25.0618 30.6464 25.2217 29.8064 25.3374C28.6396 25.497 27.4627 25.5718 26.2851 25.5612Z" fill="#1F1F1F"/>
<path d="M44.6814 25.5612C43.6032 25.5606 42.5289 25.4303 41.4819 25.1731C40.4241 24.9147 39.432 24.4383 38.569 23.7744C37.6388 23.0348 36.9101 22.0727 36.45 20.977C35.9115 19.7881 35.6434 18.2658 35.6458 16.4102C35.6481 14.5546 35.9162 13.0324 36.45 11.8435C36.909 10.7471 37.638 9.78479 38.569 9.04607C39.432 8.38211 40.4241 7.9057 41.4819 7.64737C42.5288 7.38899 43.603 7.2575 44.6814 7.25574C45.7604 7.25802 46.8349 7.39308 47.8809 7.65786C48.9356 7.92158 49.9255 8.3975 50.7902 9.05656C51.7226 9.79485 52.4528 10.7572 52.9127 11.854C53.9868 14.7893 53.9868 18.0102 52.9127 20.9455C52.4528 22.0422 51.7226 23.0046 50.7902 23.7429C49.9255 24.402 48.9356 24.8779 47.8809 25.1416C46.8357 25.4123 45.7611 25.5532 44.6814 25.5612ZM44.6814 20.5434C45.7677 20.5434 46.5836 20.2124 47.1291 19.5503C47.6816 18.8894 47.9578 17.8509 47.9578 16.4277C47.9578 15.0045 47.6816 13.98 47.1291 13.3156C46.5766 12.6512 45.7584 12.312 44.6814 12.312C42.5064 12.312 41.4189 13.6839 41.4189 16.4277C41.4189 17.8264 41.6882 18.8754 42.2337 19.5398C42.7792 20.2042 43.5939 20.5434 44.6814 20.5434Z" fill="#1F1F1F"/>
<path d="M64.4554 25.5612C63.3772 25.5602 62.3031 25.4299 61.2559 25.1731C60.1993 24.9147 59.2083 24.4382 58.3466 23.7744C57.4143 23.0361 56.684 22.0737 56.2241 20.977C55.6879 19.7881 55.421 18.2658 55.4234 16.4102C55.4257 14.5546 55.6926 13.0324 56.2241 11.8435C56.6831 10.7462 57.4135 9.78361 58.3466 9.04607C59.2083 8.38219 60.1993 7.90577 61.2559 7.64737C62.3029 7.38939 63.3771 7.25791 64.4554 7.25574C65.5344 7.2576 66.6091 7.39266 67.655 7.65786C68.7108 7.9215 69.7018 8.39741 70.5677 9.05656C71.4979 9.79613 72.2267 10.7582 72.6868 11.854C73.2253 13.0429 73.4933 14.5581 73.491 16.3997C73.4887 18.2413 73.2206 19.7566 72.6868 20.9455C72.2267 22.0412 71.4979 23.0033 70.5677 23.7429C69.7018 24.402 68.7108 24.878 67.655 25.1416C66.6098 25.4127 65.5351 25.5537 64.4554 25.5612ZM64.4554 20.5434C65.5418 20.5434 66.3577 20.2124 66.9031 19.5503C67.4556 18.8894 67.7319 17.8509 67.7319 16.4277C67.7319 15.0045 67.4556 13.98 66.9031 13.3156C66.3507 12.6512 65.5289 12.312 64.4554 12.312C62.2805 12.312 61.193 13.6839 61.193 16.4277C61.193 17.8264 61.4657 18.8754 62.0112 19.5398C62.5567 20.2042 63.3679 20.5434 64.4554 20.5434Z" fill="#1F1F1F"/>
<path d="M76.3514 25.3129V11.5847L75.8513 9.07405L76.3514 7.54248H84.8589C86.0182 7.54239 87.1745 7.65954 88.3102 7.89216C89.3825 8.1029 90.3994 8.53393 91.2965 9.15798C92.2227 9.83983 92.9476 10.7592 93.3945 11.819C93.912 12.9846 94.1708 14.4824 94.1708 16.3123C94.1708 18.1423 93.9074 19.6517 93.3805 20.8406C92.9271 21.9275 92.195 22.8756 91.258 23.589C90.3681 24.2445 89.3509 24.7067 88.2718 24.9458C87.152 25.1995 86.0071 25.3261 84.8589 25.3234L76.3514 25.3129ZM81.9252 20.5434H83.8309C84.6748 20.5628 85.5168 20.4531 86.3276 20.2182C86.9833 20.0168 87.5366 19.5711 87.8731 18.9733C88.2228 18.3649 88.3976 17.4744 88.3976 16.3018C88.3976 15.1292 88.2182 14.2551 87.8592 13.6793C87.5045 13.1221 86.9461 12.7255 86.3031 12.5743C85.4931 12.3849 84.6627 12.2968 83.8309 12.312H81.9252V20.5434Z" fill="#1F1F1F"/>
<path d="M7.55304 48.5453V33.4114L6.99707 30.6141L7.55304 28.9566H17.5118C18.8301 28.9214 20.141 29.1657 21.3582 29.6734C22.4109 30.1466 23.2732 30.9609 23.8059 31.9848C24.377 33.0431 24.6626 34.4418 24.6626 36.1809C24.6626 38.7824 23.9633 40.6474 22.5646 41.7757C21.1659 42.9039 19.196 43.4716 16.6551 43.4786H13.6129V44.087L13.8891 46.8529L13.6129 48.5418L7.55304 48.5453ZM13.6374 38.3104H15.2459C15.8053 38.3149 16.3646 38.2869 16.9208 38.2265C17.3356 38.1962 17.7244 38.013 18.0118 37.7124C18.3081 37.3095 18.4462 36.8118 18.4 36.3137C18.4497 35.7905 18.3012 35.2676 17.9838 34.8486C17.6779 34.5376 17.2714 34.3456 16.8369 34.3066C16.2718 34.2393 15.7031 34.2077 15.134 34.2122H13.3646L13.6374 38.3104Z" fill="#1F1F1F"/>
<path d="M26.9005 48.5452V33.3834L26.6243 30.6174L26.9005 28.96H33.0128V48.5417L26.9005 48.5452Z" fill="#1F1F1F"/>
<path d="M36.083 48.5453L35.2263 46.8843L43.8563 34.1876H36.083V28.9425H51.9897V32.205L44.7724 43.3001H45.6291L52.0457 42.7442V48.5278L36.083 48.5453Z" fill="#1F1F1F"/>
<path d="M54.2869 48.5453L53.4302 46.8843L62.0602 34.1876H54.2869V28.9425H70.1936V32.205L62.9728 43.3001H63.8295L70.2495 42.7442V48.5278L54.2869 48.5453Z" fill="#1F1F1F"/>
<path d="M71.3545 48.5454L72.6833 43.8702V40.3735L74.7289 39.5448L78.6032 29.0021H86.929L91.6601 41.398L93.7896 45.3249V48.5629H87.7892L86.3905 44.4402H78.8935L77.7046 48.5629L71.3545 48.5454ZM80.7328 39.5832H84.8834L83.0581 34.0759H82.4777L80.7328 39.5832Z" fill="#1F1F1F"/>
<path d="M62.1371 101H0V0H101V62.1372C100.988 72.4405 96.8896 82.3185 89.6041 89.604C82.3185 96.8896 72.4405 100.988 62.1371 101ZM2.30784 98.6887H62.1371C71.8278 98.6775 81.1184 94.823 87.9707 87.9707C94.823 81.1184 98.6775 71.8278 98.6886 62.1372V2.32533H2.30784V98.6887Z" fill="#1F1F1F"/>
<path d="M96.9788 77.0018H1.16797V99.8426H65.036C70.3858 99.8426 75.6488 98.4913 80.3369 95.9141C85.0249 93.3369 88.986 89.6172 91.8526 85.1003L96.9788 77.0018Z" fill="#1F1F1F"/>
</g>
<defs>
<clipPath id="clip0_200:4002">
<rect width="101" height="101" fill="white"/>
</clipPath>
</defs>
</svg>
